<?xml version="1.0" standalone="no"?>
<!DOCTYPE svg PUBLIC "-//W3C//DTD SVG 20010904//EN"
 "http://www.w3.org/TR/2001/REC-SVG-20010904/DTD/svg10.dtd">
<svg version="1.0" xmlns="http://www.w3.org/2000/svg"
 width="2000.000000pt" height="2000.000000pt" viewBox="0 0 2000.000000 2000.000000"
 preserveAspectRatio="xMidYMid meet">

<g transform="translate(0.000000,2000.000000) scale(0.100000,-0.100000)"
fill="#000000" stroke="none">
<path d="M0 10000 l0 -10000 10000 0 10000 0 0 10000 0 10000 -10000 0 -10000
0 0 -10000z m12880 5044 c120 -36 239 -156 277 -282 17 -54 18 -259 17 -3722
0 -3492 -1 -3668 -18 -3724 -44 -145 -155 -253 -301 -292 -77 -21 -2215 -20
-2215 0 0 8 8 16 18 18 13 3 8 10 -20 27 -39 23 -54 47 -35 54 7 2 1 14 -16
29 -15 14 -27 29 -27 33 0 4 -18 29 -40 55 -22 26 -40 53 -40 58 0 6 -6 15
-14 19 -22 12 -66 81 -66 102 0 12 -10 21 -25 25 -14 4 -23 11 -20 16 4 7
-160 10 -457 10 -521 0 -516 0 -574 76 -36 47 -34 0 -37 852 -2 619 -3 664
-19 676 -25 18 -68 84 -68 103 0 8 -18 37 -40 63 -22 26 -40 51 -40 55 0 4
-10 18 -22 30 -13 12 -39 46 -58 75 -19 29 -45 63 -57 75 -13 12 -23 26 -23
29 0 4 -16 28 -36 52 -20 24 -31 44 -25 44 12 0 -41 78 -78 116 -12 12 -21 24
-21 28 0 4 -16 27 -35 51 -25 29 -32 45 -23 48 8 2 -2 13 -24 26 -39 23 -54
47 -35 54 7 2 1 14 -16 29 -15 14 -27 29 -27 32 0 4 -16 27 -35 51 -25 29 -32
45 -23 48 8 2 -2 13 -24 26 -39 23 -54 47 -35 54 7 2 1 14 -16 29 -15 14 -27
29 -27 32 0 4 -16 27 -35 51 -25 29 -32 45 -23 48 8 2 -2 13 -24 26 -39 23
-54 47 -35 54 7 2 2 13 -14 28 -14 13 -29 32 -32 43 -5 12 -13 16 -25 12 -14
-5 -13 -3 3 9 11 9 25 13 32 11 7 -3 13 -2 13 3 0 5 12 17 28 26 15 10 21 12
15 5 -10 -11 -10 -17 0 -28 10 -13 8 -14 -13 -8 -21 6 -22 5 -7 -4 21 -13 44
-3 29 12 -15 15 16 61 35 54 8 -3 12 -2 9 2 -3 5 18 31 46 58 28 27 63 68 78
91 15 23 31 39 35 35 5 -4 5 -2 2 5 -10 16 3 44 16 36 5 -3 7 -2 4 4 -3 5 3
38 14 74 25 77 29 218 9 299 -31 128 -111 249 -217 328 -70 53 -182 102 -232
102 -15 0 -30 2 -33 6 -3 3 -154 5 -334 6 -181 0 -311 4 -289 8 l40 7 -55 3
c-47 2 -51 3 -25 10 22 5 3 9 -65 11 l-95 3 78 3 c86 4 97 16 52 57 -14 13
-25 27 -25 30 0 4 -16 27 -35 51 -25 29 -32 45 -23 48 8 2 -2 13 -24 26 -39
23 -54 47 -35 54 7 2 1 14 -16 29 -15 14 -27 29 -27 32 0 4 -16 27 -35 51 -25
29 -32 45 -23 48 8 2 -2 13 -24 26 -39 23 -54 47 -35 54 7 2 1 14 -16 29 -15
14 -27 29 -27 33 0 4 -18 29 -40 55 -22 26 -40 53 -40 58 0 6 -6 15 -14 19
-22 12 -66 81 -66 103 0 11 -5 20 -11 20 -6 0 -23 13 -38 28 -25 25 -28 34
-25 82 2 38 1 45 -4 25 -7 -30 -7 -30 -25 -10 -10 11 -34 41 -53 67 -29 40
-32 47 -16 52 9 2 -22 4 -70 3 -47 -1 -84 1 -81 6 2 4 -1 7 -6 7 -6 0 -11 5
-11 12 0 9 3 9 12 0 8 -8 41 -11 93 -10 69 1 74 2 35 8 -25 4 279 8 675 8 793
2 774 1 905 65 96 47 207 160 253 257 45 96 61 165 60 265 -1 250 -171 471
-423 550 -45 14 -114 19 -365 25 -340 7 -340 7 -463 76 -130 73 -241 225 -271
372 -39 188 17 379 149 513 71 72 128 109 229 148 l66 26 935 6 c514 3 1697 4
2628 2 1453 -4 1700 -6 1742 -19z m-6270 -2294 c0 -5 -5 -10 -11 -10 -5 0 -7
5 -4 10 3 6 8 10 11 10 2 0 4 -4 4 -10z m3 -27 c-7 -2 -19 -2 -25 0 -7 3 -2 5
12 5 14 0 19 -2 13 -5z m-246 -62 c-1 -15 -4 -17 -14 -9 -15 12 -17 22 -3 13
6 -3 10 -1 10 4 0 6 2 11 4 11 3 0 4 -9 3 -19z m986 -988 c-7 -2 -21 -2 -30 0
-10 3 -4 5 12 5 17 0 24 -2 18 -5z m-5 -40 c-10 -2 -28 -2 -40 0 -13 2 -5 4
17 4 22 1 32 -1 23 -4z m882 -1163 c0 -5 -5 -10 -11 -10 -5 0 -7 5 -4 10 3 6
8 10 11 10 2 0 4 -4 4 -10z m-30 -15 c7 -8 20 -15 29 -15 14 0 14 -2 1 -10
-12 -8 -12 -10 -1 -10 8 0 11 -3 8 -7 -4 -3 -20 8 -37 25 -17 18 -26 32 -21
32 5 0 14 -7 21 -15z m-20 -9 c0 -3 -4 -8 -10 -11 -5 -3 -10 -1 -10 4 0 6 5
11 10 11 6 0 10 -2 10 -4z m7 -32 c-3 -3 -12 -4 -19 -1 -8 3 -5 6 6 6 11 1 17
-2 13 -5z m318 -1274 c10 -11 16 -20 13 -20 -3 0 -13 9 -23 20 -10 11 -16 20
-13 20 3 0 13 -9 23 -20z m-2847 -3143 c224 -78 364 -286 364 -542 1 -169 -53
-307 -161 -416 -108 -109 -233 -159 -391 -159 -153 0 -283 52 -384 154 -173
174 -216 459 -104 695 38 81 149 196 227 235 138 71 306 83 449 33z m1219 -1
c68 -22 130 -70 167 -129 38 -62 47 -164 21 -234 -21 -55 -83 -126 -125 -143
-31 -13 -40 -30 -17 -30 24 0 96 -54 126 -95 40 -55 65 -144 56 -203 -16 -111
-76 -191 -179 -239 l-61 -28 -262 -3 -263 -3 0 566 0 567 243 -4 c189 -4 253
-9 294 -22z m693 -541 l0 -565 -70 0 -70 0 0 565 0 565 70 0 70 0 0 -565z
m518 58 l2 -503 190 0 190 0 0 -60 0 -60 -265 0 -265 0 0 565 0 566 73 -3 72
-3 3 -502z m1252 442 l0 -65 -225 0 -225 0 0 -185 0 -185 200 0 200 0 0 -60 0
-60 -200 0 -200 0 2 -192 3 -193 223 -3 222 -2 0 -60 0 -60 -295 0 -295 0 0
565 0 565 295 0 295 0 0 -65z m-5494 -400 c109 -250 201 -455 204 -455 3 0 94
205 204 455 l198 455 79 0 79 0 0 -560 0 -560 -75 0 -75 0 -2 405 -3 405 -175
-402 -176 -403 -54 0 -55 0 -175 401 -175 402 -3 -404 -2 -404 -75 0 -75 0 0
560 0 560 79 0 78 0 199 -455z m4330 -1096 c26 -16 64 -78 64 -104 0 -3 -30
-5 -67 -5 -48 0 -72 5 -85 17 -17 15 -20 15 -34 1 -24 -23 -12 -46 65 -122
l70 -69 12 26 c12 26 16 27 85 27 l73 0 -18 -42 c-10 -24 -27 -57 -37 -75
l-19 -32 55 -56 54 -55 -86 0 c-59 0 -89 4 -97 13 -9 12 -21 11 -68 -6 -142
-48 -288 13 -295 123 -4 60 4 81 42 121 38 40 39 42 25 70 -40 77 7 166 100
190 44 12 125 0 161 -22z m-3842 11 c82 -19 127 -73 128 -153 1 -66 -27 -118
-72 -137 -17 -7 -30 -15 -30 -19 0 -3 23 -46 50 -95 28 -49 50 -90 50 -92 0
-2 -37 -4 -83 -4 l-82 0 -47 93 -47 92 0 -92 -1 -93 -75 0 -75 0 0 255 0 255
123 0 c67 0 140 -5 161 -10z m676 -50 l0 -59 -87 -3 -88 -3 0 -35 0 -35 78 -3
77 -3 0 -54 0 -55 -80 0 -80 0 0 -40 0 -40 90 0 90 0 0 -60 0 -60 -165 0 -165
0 0 255 0 255 165 0 165 0 0 -60z m545 34 c110 -56 111 -240 1 -296 -24 -13
-68 -23 -108 -26 l-68 -5 0 -78 0 -79 -75 0 -75 0 0 256 0 256 143 -4 c119 -2
148 -6 182 -24z m690 -166 c37 -106 78 -221 91 -256 l23 -63 -81 3 -81 3 -12
35 -12 35 -77 3 c-86 3 -101 -3 -110 -48 l-5 -30 -81 0 c-44 0 -80 2 -80 4 0
3 141 402 175 494 3 8 31 12 93 12 l89 0 68 -192z m465 -63 l0 -255 -75 0 -75
0 0 255 0 255 75 0 75 0 0 -255z m570 229 c103 -60 109 -216 10 -272 -31 -17
-37 -31 -21 -47 4 -6 27 -45 50 -87 l42 -78 -83 0 -84 0 -39 81 c-58 118 -65
119 -65 10 l0 -91 -75 0 -75 0 0 256 0 256 153 -3 c131 -4 157 -7 187 -25z
m1841 -124 c29 -82 55 -150 59 -150 3 0 21 44 39 98 19 53 43 121 53 150 l19
52 95 0 94 0 0 -255 0 -255 -75 0 -75 0 0 128 c0 76 -4 122 -9 113 -5 -7 -24
-65 -42 -127 l-33 -114 -67 0 -68 0 -16 58 c-9 31 -27 89 -40 127 l-23 70 -1
-127 -1 -128 -75 0 -75 0 0 255 0 255 94 0 93 0 54 -150z m984 -42 c37 -106
78 -221 91 -256 l23 -63 -81 3 -81 3 -12 35 -12 35 -86 3 -86 3 -11 -41 -11
-40 -79 0 c-44 0 -80 2 -80 4 0 3 141 402 175 494 3 8 31 12 93 12 l89 0 68
-192z m465 -63 l0 -255 -75 0 -75 0 0 255 0 255 75 0 75 0 0 -255z m471 123
l84 -133 3 133 3 132 74 0 75 0 0 -255 0 -255 -77 0 -78 0 -80 125 c-44 69
-83 125 -87 125 -5 0 -8 -56 -8 -125 l0 -125 -75 0 -75 0 0 255 0 255 78 0 78
0 85 -132z m859 72 l0 -59 -62 -3 -63 -3 -3 -192 -2 -193 -75 0 -75 0 -2 193
-3 192 -62 3 -63 3 0 59 0 60 205 0 205 0 0 -60z m540 0 l0 -60 -90 0 -90 0 0
-40 0 -40 80 0 80 0 0 -55 0 -55 -80 0 -80 0 0 -40 0 -40 90 0 90 0 0 -60 0
-60 -165 0 -165 0 0 255 0 255 165 0 165 0 0 -60z m455 -70 c44 -71 83 -129
88 -130 4 0 7 59 7 130 l0 130 75 0 75 0 0 -255 0 -255 -79 0 -79 0 -78 125
c-44 68 -82 124 -86 125 -5 0 -8 -56 -8 -125 l0 -125 -75 0 -75 0 0 255 0 255
78 0 77 0 80 -130z m814 103 c6 -16 44 -122 85 -238 41 -115 77 -218 81 -228
7 -16 1 -18 -75 -15 l-82 3 -12 35 -11 35 -83 3 -83 3 -16 -41 -16 -40 -80 0
c-71 0 -78 2 -72 18 4 9 41 112 82 227 41 116 80 222 85 238 10 27 11 27 98
27 86 0 88 0 99 -27z m605 -105 l81 -127 3 129 3 130 74 0 75 0 0 -255 0 -255
-75 0 -75 0 -67 106 c-110 172 -102 170 -103 22 l0 -128 -75 0 -75 0 0 255 0
256 77 -3 77 -3 80 -127z m827 104 c53 -27 97 -82 114 -139 6 -21 3 -22 -72
-25 -71 -3 -80 -1 -98 20 -11 12 -36 25 -56 28 -29 5 -41 1 -65 -19 -27 -23
-29 -31 -29 -90 0 -55 4 -69 24 -91 32 -34 79 -35 119 -1 26 22 39 25 107 25
75 0 76 -1 70 -22 -16 -52 -53 -104 -93 -133 -42 -28 -49 -30 -142 -30 -93 0
-101 2 -142 30 -66 46 -98 117 -98 219 1 167 85 254 246 256 49 0 73 -6 115
-28z m669 -32 l0 -59 -87 -3 -88 -3 0 -35 0 -35 78 -3 77 -3 0 -54 0 -55 -80
0 -80 0 0 -40 0 -40 90 0 90 0 0 -60 0 -60 -165 0 -165 0 0 255 0 255 165 0
165 0 0 -60z"/>
<path d="M9946 14698 c-15 -13 -29 -37 -32 -55 -5 -27 -1 -37 24 -63 l30 -30
1041 0 1040 0 27 23 c21 18 27 33 27 62 0 29 -6 44 -27 62 l-27 23 -1039 0
-1039 0 -25 -22z"/>
<path d="M7577 11643 c18 -2 50 -2 70 0 21 2 7 4 -32 4 -38 0 -55 -2 -38 -4z"/>
<path d="M8461 10596 c-8 -10 -8 -16 2 -24 10 -9 13 -6 13 13 0 29 0 29 -15
11z"/>
<path d="M5380 5887 c-192 -44 -310 -210 -310 -435 1 -190 87 -340 238 -410
50 -24 69 -27 162 -27 97 0 110 2 172 32 109 52 189 153 217 274 15 63 13 215
-3 275 -33 123 -127 234 -231 273 -71 27 -174 34 -245 18z"/>
<path d="M6480 5710 l0 -180 143 0 c78 0 159 5 179 10 109 31 159 150 107 256
-15 33 -32 49 -72 68 -48 25 -60 26 -204 26 l-153 0 0 -180z"/>
<path d="M6480 5210 l0 -202 168 4 c155 3 170 5 212 28 140 78 132 268 -14
342 -35 18 -65 22 -203 26 l-163 5 0 -203z"/>
<path d="M7994 4143 c-11 -43 41 -76 91 -57 14 6 10 13 -21 45 -45 46 -61 49
-70 12z"/>
<path d="M4200 4300 c0 -49 1 -50 29 -50 54 0 81 16 81 49 0 36 -22 51 -74 51
l-36 0 0 -50z"/>
<path d="M5382 4303 c3 -51 16 -61 64 -49 32 8 47 38 34 70 -8 23 -15 26 -55
26 l-46 0 3 -47z"/>
<path d="M6065 4248 c-9 -34 -19 -68 -22 -75 -4 -10 7 -13 41 -13 31 0 46 4
46 13 0 14 -40 137 -45 137 -1 0 -10 -28 -20 -62z"/>
<path d="M7094 4336 c-3 -8 -4 -29 -2 -48 3 -29 7 -33 36 -36 63 -6 104 45 66
82 -20 20 -93 21 -100 2z"/>
<path d="M9924 4248 c-10 -35 -20 -69 -22 -75 -2 -9 11 -13 42 -13 31 0 46 4
46 13 0 14 -40 137 -45 137 -1 0 -11 -28 -21 -62z"/>
<path d="M13586 4243 c-10 -32 -21 -64 -23 -70 -4 -10 9 -13 47 -13 37 0 50 3
47 13 -3 6 -13 38 -23 70 -9 31 -20 57 -23 57 -4 0 -15 -26 -25 -57z"/>
</g>
</svg>
