<?xml version="1.0" standalone="no"?>
<!DOCTYPE svg PUBLIC "-//W3C//DTD SVG 20010904//EN"
 "http://www.w3.org/TR/2001/REC-SVG-20010904/DTD/svg10.dtd">
<svg version="1.0" xmlns="http://www.w3.org/2000/svg"
 width="2000.000000pt" height="2000.000000pt" viewBox="0 0 2000.000000 2000.000000"
 preserveAspectRatio="xMidYMid meet">

<g transform="translate(0.000000,2000.000000) scale(0.100000,-0.100000)"
fill="#000000" stroke="none">
<path d="M0 10000 l0 -10000 10000 0 10000 0 0 10000 0 10000 -10000 0 -10000
0 0 -10000z m8275 6900 c-3 -5 -11 -10 -16 -10 -6 0 -7 5 -4 10 3 6 11 10 16
10 6 0 7 -4 4 -10z m44 7 c-2 -1 -13 -9 -24 -17 -19 -14 -19 -14 -6 3 7 9 18
17 24 17 6 0 8 -1 6 -3z m21 -17 c-8 -5 -19 -10 -25 -10 -5 0 -3 5 5 10 8 5
20 10 25 10 6 0 3 -5 -5 -10z m-203 -41 c-4 -16 -2 -19 11 -14 13 5 14 3 5 -5
-8 -9 -16 -9 -30 -1 -10 6 -12 11 -5 11 6 0 12 7 12 15 0 8 3 15 6 15 4 0 4
-9 1 -21z m-27 7 c0 -2 -8 -10 -17 -17 -16 -13 -17 -12 -4 4 13 16 21 21 21
13z m-80 -30 c0 -3 -4 -8 -10 -11 -5 -3 -10 -1 -10 4 0 6 5 11 10 11 6 0 10
-2 10 -4z m-54 -45 c-3 -5 1 -14 9 -21 8 -7 15 -18 15 -24 0 -6 -5 -3 -11 7
-5 9 -20 17 -31 17 -21 0 -21 0 -2 15 22 17 27 18 20 6z m-60 -19 c8 -5 5 -13
-8 -27 -16 -16 -18 -17 -13 -2 4 10 2 17 -4 17 -6 0 -11 -6 -12 -12 0 -10 -2
-10 -6 0 -4 9 -8 10 -18 2 -10 -8 -15 -8 -21 1 -4 7 -3 9 4 5 6 -3 13 -2 17 4
4 6 10 8 15 5 5 -3 11 -1 15 5 7 12 16 12 31 2z m51 -18 c-3 -3 -12 -4 -19 -1
-8 3 -5 6 6 6 11 1 17 -2 13 -5z m-137 -42 c0 -28 -29 -54 -62 -57 -25 -2 -22
4 7 15 16 6 23 14 19 25 -3 8 -1 15 6 15 6 0 8 -4 5 -10 -3 -5 -1 -10 4 -10 6
0 11 7 11 15 0 8 -4 15 -10 15 -5 0 -10 5 -10 10 0 6 7 10 15 10 10 0 15 -10
15 -28z m-40 14 c0 -2 -8 -10 -17 -17 -16 -13 -17 -12 -4 4 13 16 21 21 21 13z
m-40 -46 c0 -4 -7 -11 -16 -14 -13 -5 -14 -4 -6 7 7 8 8 18 4 22 -4 5 -1 5 6
1 6 -4 12 -11 12 -16z m85 -20 c-3 -5 -12 -10 -18 -10 -7 0 -6 4 3 10 19 12
23 12 15 0z m-176 -49 c21 -14 21 -37 1 -37 -10 0 -17 3 -14 7 2 4 1 9 -3 12
-5 2 -2 2 5 0 7 -1 10 2 7 7 -9 14 -36 12 -54 -4 -9 -7 -27 -17 -41 -21 -18
-5 -13 1 15 19 43 27 62 31 84 17z m-34 -31 c3 -5 -1 -10 -10 -10 -9 0 -13 5
-10 10 3 6 8 10 10 10 2 0 7 -4 10 -10z m-108 -35 c0 -8 -5 -12 -10 -8 -5 3
-6 -3 -2 -16 4 -13 2 -21 -5 -21 -6 0 -8 5 -4 12 4 7 3 8 -5 4 -14 -9 -5 -26
15 -26 12 0 14 -39 15 -242 1 -134 1 -246 0 -250 0 -5 4 -8 11 -8 8 0 6 -7 -5
-17 -15 -15 -20 -16 -38 -5 -24 15 -49 1 -49 -29 0 -13 -7 -17 -30 -17 -17 1
-33 -2 -36 -5 -4 -3 -13 0 -20 8 -11 11 -14 56 -14 209 0 107 4 197 9 200 11
7 9 25 -3 45 -6 9 -5 12 0 8 6 -3 11 4 11 15 2 19 1 19 -17 3 -18 -17 -17 -43
3 -56 5 -4 0 -10 -12 -14 -17 -5 -21 -14 -21 -46 0 -28 -4 -39 -15 -39 -11 0
-15 -11 -15 -40 0 -29 4 -40 15 -40 13 0 15 -20 15 -120 0 -70 4 -120 10 -120
5 0 18 -10 30 -22 11 -12 20 -16 20 -10 0 7 5 12 10 12 15 0 12 -17 -4 -23 -8
-3 -23 3 -35 14 -19 18 -22 18 -27 4 -5 -12 -9 -13 -20 -4 -11 9 -14 8 -14 -4
0 -9 10 -23 23 -32 l22 -17 -24 7 c-17 5 -22 4 -16 -5 6 -9 4 -11 -4 -6 -9 6
-12 66 -10 243 l2 235 27 12 c19 8 25 16 21 28 -6 15 -8 15 -29 -2 -13 -11
-23 -23 -23 -27 -1 -4 -5 -7 -10 -5 -5 1 -9 -3 -9 -8 0 -5 5 -10 10 -10 6 0
10 -5 10 -11 0 -5 -4 -7 -10 -4 -14 9 -13 -8 2 -23 12 -12 9 -14 -27 -16 -19
-1 -20 -10 -25 -209 -3 -125 -1 -212 5 -218 5 -6 4 -9 -3 -9 -7 0 -12 -6 -11
-12 3 -24 -1 -38 -11 -38 -6 0 -10 33 -10 80 0 47 -4 80 -10 80 -6 0 -10 50
-9 133 0 72 3 126 6 120 2 -7 9 -13 15 -13 7 0 6 5 -1 14 -13 15 -35 16 -48 1
-4 -4 -2 -5 6 0 9 5 12 4 7 -3 -4 -6 -14 -8 -22 -5 -13 5 -8 13 22 39 22 17
41 30 44 27 3 -2 -4 -9 -14 -15 -15 -8 -16 -12 -5 -19 20 -13 32 -11 26 4 -3
8 -1 20 3 28 5 7 5 18 -1 25 -6 7 -4 16 6 24 12 10 15 10 15 0 0 -10 3 -10 15
0 11 9 12 16 5 20 -6 3 17 31 54 63 43 38 66 53 73 46 7 -7 10 -3 9 12 -1 29
24 38 31 11 9 -36 30 -33 28 4 0 19 4 43 10 53 7 14 9 -18 7 -117 -1 -75 -3
-196 -5 -268 -2 -106 1 -130 11 -126 11 4 11 6 0 13 -10 7 -9 9 5 9 9 0 17 -3
17 -8 0 -4 8 -12 18 -18 16 -10 17 -1 14 165 -2 97 -8 178 -13 179 -5 2 -9 38
-9 81 0 46 -5 82 -12 89 -9 9 -6 17 12 37 28 29 27 29 27 10z m-89 -82 c1 -27
1 -27 -13 -9 -14 18 -12 25 10 36 0 0 2 -12 3 -27z m729 -35 c-2 -13 -4 -3 -4
22 0 25 2 35 4 23 2 -13 2 -33 0 -45z m3104 -35 c13 -16 12 -17 -3 -4 -10 7
-18 15 -18 17 0 8 8 3 21 -13z m-3246 -253 c13 -6 15 -9 5 -9 -8 0 -22 4 -30
9 -18 12 -2 12 25 0z m273 3 c-10 -2 -26 -2 -35 0 -10 3 -2 5 17 5 19 0 27 -2
18 -5z m-1173 -22 c-2 -20 -35 -27 -46 -10 -11 18 -3 27 25 27 16 0 23 -6 21
-17z m800 9 c3 -5 1 -10 -4 -10 -6 0 -11 5 -11 10 0 6 2 10 4 10 3 0 8 -4 11
-10z m62 -6 c-3 -3 -12 -4 -19 -1 -8 3 -5 6 6 6 11 1 17 -2 13 -5z m-880 -34
c38 4 43 0 43 -40 0 -22 -5 -40 -11 -40 -7 0 -9 -42 -7 -125 2 -98 0 -125 -10
-125 -7 0 -10 -4 -7 -10 4 -6 18 -4 38 6 l32 17 -19 -22 c-11 -11 -24 -21 -31
-21 -6 0 -26 -18 -44 -41 -21 -25 -39 -38 -48 -35 -8 3 -12 2 -9 -3 3 -5 -8
-23 -26 -40 -33 -32 -60 -43 -37 -14 13 15 12 15 -9 4 -13 -7 -21 -20 -20 -29
2 -13 -4 -17 -24 -16 -25 1 -28 -2 -28 -32 0 -20 -8 -42 -19 -53 -11 -11 -18
-21 -16 -23 3 -2 -7 -17 -20 -32 -14 -16 -25 -35 -25 -43 0 -8 -4 -11 -10 -8
-5 3 -10 1 -10 -5 0 -6 -5 -8 -12 -4 -6 4 -8 3 -4 -4 9 -15 -15 -64 -30 -58
-8 3 -11 0 -8 -9 6 -15 -15 -59 -45 -94 -12 -13 -21 -30 -21 -36 0 -7 -6 -18
-14 -25 -8 -6 -13 -17 -10 -25 3 -7 0 -16 -7 -21 -7 -4 -10 -3 -5 4 3 5 0 13
-6 15 -10 4 -10 7 0 15 7 5 10 17 6 28 -4 14 -3 15 4 6 7 -11 11 -10 16 4 3 9
4 25 1 35 -5 15 -2 18 12 13 16 -5 16 -4 2 8 -24 21 -10 60 24 64 26 3 27 2
12 -19 -22 -32 -18 -44 5 -14 18 23 19 27 5 61 -8 20 -20 36 -27 36 -6 0 1 11
16 25 14 13 26 28 26 32 0 4 -7 0 -14 -9 -7 -10 -16 -18 -19 -18 -5 0 8 45 26
90 6 14 10 30 8 37 -1 6 4 15 10 19 9 5 10 2 6 -9 -3 -10 -2 -17 3 -17 6 0 10
9 10 19 0 11 5 23 11 27 8 4 9 -3 5 -22 -4 -19 -1 -36 8 -49 14 -18 15 -18 16
-2 0 9 -4 17 -10 17 -5 0 -10 8 -10 18 0 13 2 14 9 4 7 -12 13 -12 36 1 19 9
24 16 16 22 -7 4 -18 -1 -26 -11 -12 -17 -13 -13 -10 30 1 27 -1 43 -5 36 -5
-7 -9 1 -12 21 -6 38 0 62 13 53 5 -3 7 1 4 8 -3 7 11 38 30 68 19 30 35 59
35 64 0 5 2 7 5 4 3 -3 0 -18 -7 -32 -9 -22 -9 -29 1 -35 9 -6 10 -11 2 -15
-6 -4 -11 -3 -11 3 0 16 -28 2 -35 -17 -5 -14 -4 -15 6 -4 14 13 33 17 25 4
-2 -4 3 -8 12 -9 14 -1 17 8 17 52 0 29 -3 57 -7 60 -4 4 0 21 8 36 12 24 18
28 34 19 10 -5 23 -10 28 -10 18 0 21 44 5 69 -14 22 -14 23 0 18 11 -4 15 -1
12 13 -2 10 4 25 13 32 15 11 15 11 6 -2 -7 -9 -8 -23 -3 -35 7 -19 8 -19 8 2
1 16 6 21 16 17 8 -4 15 -1 15 5 0 6 6 8 13 5 10 -3 13 8 13 45 1 28 -3 48 -7
45 -4 -2 -6 -18 -4 -34 4 -30 -8 -41 -19 -17 -3 6 -3 2 -1 -10 3 -12 2 -24 -3
-27 -6 -3 -12 6 -15 20 -3 20 0 28 14 31 10 3 16 9 13 14 -3 5 5 22 17 39 17
22 26 27 35 19 7 -6 21 -10 31 -9z m6183 16 c0 -2 -8 -10 -17 -17 -16 -13 -17
-12 -4 4 13 16 21 21 21 13z m-5484 -31 c-19 -14 -56 -21 -56 -10 0 4 53 22
70 24 3 0 -4 -6 -14 -14z m-151 -15 c-3 -5 -16 -10 -28 -9 -21 0 -21 1 -2 9
28 12 37 12 30 0z m50 -18 c-3 -3 -11 0 -18 7 -9 10 -8 11 6 5 10 -3 15 -9 12
-12z m-62 -19 c-7 -2 -19 -2 -25 0 -7 3 -2 5 12 5 14 0 19 -2 13 -5z m-33 -17
c0 -2 -11 -6 -25 -8 -13 -3 -22 -1 -19 3 5 9 44 13 44 5z m-125 -56 c-3 -5
-10 -10 -16 -10 -5 0 -9 5 -9 10 0 6 7 10 16 10 8 0 12 -4 9 -10z m-535 -40
c0 -5 -5 -10 -11 -10 -5 0 -7 5 -4 10 3 6 8 10 11 10 2 0 4 -4 4 -10z m2535
-10 c3 -6 -1 -7 -9 -4 -18 7 -21 14 -7 14 6 0 13 -4 16 -10z m-2535 -25 c-7
-9 -15 -13 -17 -11 -7 7 7 26 19 26 6 0 6 -6 -2 -15z m400 5 c0 -5 -4 -10 -10
-10 -5 0 -10 5 -10 10 0 6 5 10 10 10 6 0 10 -4 10 -10z m-85 -39 c19 -7 18
-8 -5 -21 -14 -7 -22 -9 -18 -5 4 5 3 14 -3 22 -13 14 -4 16 26 4z m-474 -287
c13 -37 7 -39 -13 -3 -9 16 -13 29 -7 29 5 0 14 -12 20 -26z m-23 -6 c-2 -6
-10 -14 -16 -16 -7 -2 -10 2 -6 12 7 18 28 22 22 4z m155 -33 c-5 -13 -23 -22
-23 -11 0 15 14 35 21 31 4 -3 6 -12 2 -20z m-220 -227 c-7 -13 -23 -9 -30 8
-3 9 0 20 8 25 14 8 31 -18 22 -33z m6904 -221 c0 -8 -6 -14 -14 -14 -9 0 -10
4 -2 14 6 7 12 13 14 13 1 0 2 -6 2 -13z m-6994 -39 c-21 -43 -27 -49 -18 -18
7 23 23 50 30 50 2 0 -4 -15 -12 -32z m7462 -36 c-3 -3 -11 0 -18 7 -9 10 -8
11 6 5 10 -3 15 -9 12 -12z m162 -8 c-3 -3 -12 -4 -19 -1 -8 3 -5 6 6 6 11 1
17 -2 13 -5z m300 -70 c-3 -3 -12 -4 -19 -1 -8 3 -5 6 6 6 11 1 17 -2 13 -5z
m337 -10 c3 -8 2 -12 -4 -9 -6 3 -10 10 -10 16 0 14 7 11 14 -7z m-8464 -730
c0 -8 -19 -13 -24 -6 -3 5 1 9 9 9 8 0 15 -2 15 -3z m-30 -24 c0 -5 -5 -10
-11 -10 -5 0 -7 5 -4 10 3 6 8 10 11 10 2 0 4 -4 4 -10z m-70 -294 c0 -3 -4
-8 -10 -11 -5 -3 -10 -1 -10 4 0 6 5 11 10 11 6 0 10 -2 10 -4z m7 -38 c-3 -8
-6 -5 -6 6 -1 11 2 17 5 13 3 -3 4 -12 1 -19z m-37 -46 c0 -13 -29 -48 -30
-35 0 6 5 15 10 18 6 4 8 11 5 16 -4 5 -1 9 4 9 6 0 11 -4 11 -8z m17 -14 c-3
-8 -6 -5 -6 6 -1 11 2 17 5 13 3 -3 4 -12 1 -19z m-18 -41 c-6 -13 -17 -24
-25 -24 -10 0 -8 7 8 24 12 13 23 23 25 23 1 0 -2 -10 -8 -23z m46 -26 c-2 -2
-11 3 -19 12 -8 8 -12 17 -9 21 3 3 12 -2 19 -12 7 -9 11 -19 9 -21z m-95
-102 c-7 -11 -14 -18 -17 -15 -3 3 0 12 7 21 18 21 23 19 10 -6z m1030 -70 c0
8 3 12 6 8 3 -3 1 -14 -5 -24 -6 -11 -11 -13 -11 -5 0 7 -4 10 -10 7 -6 -3 -7
1 -3 10 5 13 7 14 14 3 7 -11 9 -10 9 1z m11 -48 c-6 -10 -8 -21 -5 -24 3 -3
-1 -4 -10 -3 -8 1 -19 6 -23 11 -5 4 -2 5 6 0 11 -6 13 -4 8 9 -4 9 -3 14 2
11 5 -3 12 -1 16 5 11 18 16 11 6 -9z m7684 -39 c-3 -3 -11 0 -18 7 -9 10 -8
11 6 5 10 -3 15 -9 12 -12z m32 -14 c-3 -8 -6 -5 -6 6 -1 11 2 17 5 13 3 -3 4
-12 1 -19z m20 0 c-3 -8 -6 -5 -6 6 -1 11 2 17 5 13 3 -3 4 -12 1 -19z m-7759
-23 c-3 -3 -9 2 -12 12 -6 14 -5 15 5 6 7 -7 10 -15 7 -18z m7892 10 c0 -2
-10 -9 -22 -15 -22 -11 -22 -10 -4 4 21 17 26 19 26 11z m81 -18 c-10 -9 -11
-8 -5 6 3 10 9 15 12 12 3 -3 0 -11 -7 -18z m-261 9 c0 -11 -19 -15 -25 -6 -3
5 1 10 9 10 9 0 16 -2 16 -4z m-8790 -26 c0 -5 -5 -10 -11 -10 -5 0 -7 5 -4
10 3 6 8 10 11 10 2 0 4 -4 4 -10z m560 -15 c0 -11 11 -15 40 -15 22 0 40 -4
40 -10 0 -5 -18 -10 -40 -10 -22 0 -40 5 -40 10 0 6 -18 10 -40 10 -29 0 -40
4 -40 15 0 11 11 15 40 15 29 0 40 -4 40 -15z m6215 6 c3 -5 2 -12 -3 -15 -5
-3 -9 1 -9 9 0 17 3 19 12 6z m2690 -11 c-3 -5 -12 -10 -18 -10 -7 0 -6 4 3
10 19 12 23 12 15 0z m175 -20 c-8 -5 -19 -10 -25 -10 -5 0 -3 5 5 10 8 5 20
10 25 10 6 0 3 -5 -5 -10z m77 -5 c0 -8 -4 -15 -9 -15 -10 0 -11 14 -1 23 9
10 10 9 10 -8z m-9739 -35 c-12 -35 -23 -41 -12 -7 4 12 7 27 7 34 0 7 4 10 8
7 4 -2 3 -18 -3 -34z m9772 3 c1 4 3 12 4 19 0 6 8 13 16 15 13 4 13 3 0 -6
-13 -9 -13 -11 2 -11 9 0 18 4 20 10 2 6 9 6 17 0 11 -6 6 -11 -20 -17 -31 -8
-34 -13 -37 -51 -5 -66 -22 -49 -21 21 1 46 3 56 9 37 4 -14 9 -22 10 -17z
m115 17 c-3 -5 -14 -10 -23 -9 -14 0 -13 2 3 9 27 11 27 11 20 0z m29 1 c3 -5
-1 -11 -9 -14 -9 -4 -12 -1 -8 9 6 16 10 17 17 5z m122 -47 c-3 -7 3 -18 12
-23 15 -10 15 -10 -2 -11 -20 0 -20 0 0 -16 19 -15 19 -15 0 -6 -14 7 -20 21
-21 45 0 20 3 33 8 30 5 -3 6 -11 3 -19z m-10016 -15 c0 -5 -4 -7 -10 -4 -5 3
-10 1 -10 -4 0 -6 0 -14 0 -18 0 -10 0 -10 140 -12 l120 -1 0 -25 c0 -25 -1
-25 -80 -25 -47 0 -80 4 -80 10 0 6 -18 10 -40 10 -31 0 -40 4 -40 17 0 15 -3
14 -22 -4 -12 -13 -19 -26 -14 -30 4 -4 11 -1 15 6 7 11 10 9 15 -7 6 -17 18
-21 86 -27 58 -5 80 -11 80 -21 0 -10 12 -14 40 -14 22 0 40 -4 40 -10 0 -5
18 -10 40 -10 22 0 40 -4 40 -9 0 -5 36 -12 80 -16 58 -5 80 -11 80 -21 0 -10
12 -14 40 -14 22 0 40 -4 40 -10 0 -5 18 -10 40 -10 29 0 40 -4 40 -15 0 -11
11 -15 40 -15 29 0 40 -4 40 -15 0 -11 11 -15 40 -15 22 0 40 -4 40 -10 0 -5
18 -10 40 -10 29 0 40 -4 40 -15 0 -8 5 -15 10 -15 6 0 10 -8 10 -18 0 -10 7
-19 15 -19 11 0 12 4 5 11 -5 5 -10 18 -10 29 0 10 -4 15 -10 12 -5 -3 -10 -1
-10 4 0 6 7 11 15 11 8 0 15 -9 15 -20 0 -11 5 -20 11 -20 5 0 8 4 5 9 -3 4 2
17 10 27 9 10 13 13 9 6 -3 -7 -8 -23 -11 -37 -2 -13 -9 -37 -16 -52 -6 -16
-10 -37 -10 -48 1 -11 -7 0 -17 25 -11 25 -20 39 -20 33 -1 -10 -23 -13 -83
-11 -46 1 -64 3 -40 5 57 6 59 33 2 33 -22 0 -40 5 -40 10 0 6 -18 10 -40 10
-22 0 -40 5 -40 10 0 6 -18 10 -40 10 -22 0 -40 5 -40 10 0 6 -18 10 -40 10
-22 0 -40 5 -40 10 0 6 -18 10 -40 10 -22 0 -40 5 -40 10 0 6 -18 10 -40 10
-22 0 -40 5 -40 10 0 6 -18 10 -40 10 -22 0 -40 5 -40 10 0 6 -18 10 -40 10
-22 0 -40 5 -40 10 0 6 -18 10 -40 10 -22 0 -40 5 -40 10 0 6 -18 10 -40 10
-33 0 -40 3 -40 20 0 17 -7 20 -46 20 -59 0 -55 24 4 28 23 2 42 8 42 13 0 6
-4 7 -10 4 -6 -4 -7 1 -4 12 5 16 4 16 -10 -1 -12 -15 -16 -16 -16 -5 0 11 -2
11 -9 1 -7 -11 -9 -10 -14 3 -4 9 -3 13 3 10 6 -3 10 1 10 10 0 9 -5 13 -11 9
-8 -5 -8 -1 0 13 6 11 7 24 3 28 -4 5 -2 5 5 1 7 -4 10 -14 7 -24 -5 -14 -4
-14 4 -3 7 10 7 21 0 34 -6 12 -6 17 0 13 5 -3 12 1 16 9 6 17 26 20 26 4z
m990 -93 c0 -21 4 -27 16 -22 8 3 12 2 9 -4 -13 -21 -35 -10 -36 18 0 24 -1
25 -10 7 -8 -17 -9 -17 -4 5 2 14 5 32 5 40 1 29 20 -13 20 -44z m40 33 c0 -6
-4 -7 -10 -4 -5 3 -10 11 -10 16 0 6 5 7 10 4 6 -3 10 -11 10 -16z m8925 11
c-3 -5 -12 -10 -18 -10 -7 0 -6 4 3 10 19 12 23 12 15 0z m67 -14 c7 4 8 2 4
-5 -4 -6 -11 -9 -15 -7 -10 7 -51 -22 -51 -36 0 -6 8 -4 18 5 10 10 22 17 26
17 5 0 -2 -9 -15 -19 -30 -24 -50 -10 -25 18 13 15 14 20 4 25 -7 3 -3 3 10 0
14 -3 22 -1 23 8 0 10 2 10 6 0 2 -6 10 -9 15 -6z m-9622 -46 c0 -5 18 -10 40
-10 36 0 40 -2 40 -25 0 -22 -4 -25 -40 -25 -22 0 -40 5 -40 10 0 6 -18 10
-40 10 -22 0 -40 5 -40 10 0 6 -19 11 -42 12 l-43 1 43 4 c23 2 42 8 42 14 0
5 18 9 40 9 22 0 40 -4 40 -10z m8980 -50 c0 -22 -4 -40 -10 -40 -5 0 -10 18
-10 40 0 22 5 40 10 40 6 0 10 -18 10 -40z m350 0 c0 -22 -4 -40 -10 -40 -5 0
-10 18 -10 40 0 22 5 40 10 40 6 0 10 -18 10 -40z m166 27 c4 -3 16 -2 28 4
17 9 17 7 -4 -11 -21 -18 -22 -21 -5 -15 16 5 17 4 8 -6 -9 -9 -17 -8 -36 4
-24 15 -37 13 -37 -5 0 -5 5 -6 10 -3 6 4 10 3 9 -2 -3 -20 2 -27 11 -13 6 9
10 10 10 3 0 -15 -40 -44 -52 -37 -4 3 -8 -2 -8 -10 0 -9 -4 -16 -10 -16 -5 0
-18 -10 -30 -22 -11 -12 -20 -16 -20 -10 0 20 4 26 18 29 22 3 24 10 7 27 -9
9 -12 16 -6 16 5 0 15 -8 20 -17 9 -16 10 -16 11 -1 0 9 5 18 11 20 7 2 13 19
14 38 2 19 3 35 4 36 5 3 42 -4 47 -9z m-2921 -14 c-2 -10 -4 -19 -4 -21 -1
-2 -6 0 -11 3 -8 5 -7 11 1 21 15 18 18 18 14 -3z m-5972 -13 c-5 -19 -23 -39
-23 -25 0 9 20 45 24 45 2 0 2 -9 -1 -20z m6022 -29 c-9 -8 -36 -10 -30 -2 2
4 11 8 20 8 8 0 13 -3 10 -6z m-6045 -36 c0 -5 -5 -3 -10 5 -5 8 -10 20 -10
25 0 6 5 3 10 -5 5 -8 10 -19 10 -25z m-980 4 c0 -5 -18 -9 -40 -9 -25 0 -40
5 -40 13 0 8 -4 7 -10 -3 -5 -8 -10 -22 -10 -30 0 -13 1 -13 10 0 6 9 10 10
10 3 0 -6 -5 -15 -11 -19 -7 -4 -7 -10 -1 -16 6 -6 8 -16 6 -22 -3 -8 21 -10
81 -8 56 2 85 0 85 -7 0 -6 18 -11 40 -11 22 0 40 -4 40 -10 0 -5 18 -10 40
-10 33 0 40 -3 40 -20 0 -17 7 -20 40 -20 22 0 40 -4 40 -10 0 -5 18 -10 40
-10 22 0 40 -4 40 -10 0 -6 33 -10 80 -10 73 0 80 -2 80 -20 0 -17 7 -20 40
-20 22 0 40 -4 40 -10 0 -5 18 -10 40 -10 22 0 40 -4 40 -10 0 -5 18 -10 40
-10 33 0 40 -3 40 -19 0 -16 8 -20 42 -23 59 -4 63 -28 4 -28 -25 0 -46 5 -46
10 0 6 -18 10 -40 10 -22 0 -40 5 -40 10 0 6 -18 10 -40 10 -33 0 -40 3 -40
20 0 17 -7 20 -40 20 -22 0 -40 5 -40 10 0 6 -18 10 -40 10 -22 0 -40 5 -40
10 0 6 -18 10 -40 10 -22 0 -40 5 -40 10 0 6 -18 10 -40 10 -22 0 -40 5 -40
10 0 6 -18 10 -40 10 -22 0 -40 5 -40 10 0 6 -18 10 -40 10 -22 0 -40 5 -40
10 0 6 -18 10 -40 10 -33 0 -40 3 -40 20 0 17 -7 20 -40 20 -22 0 -40 5 -40
10 0 6 -18 10 -40 10 -34 0 -40 -3 -40 -21 0 -11 -4 -18 -9 -15 -12 8 -41 -4
-41 -16 0 -5 5 -6 10 -3 6 3 14 -4 19 -16 8 -23 8 -23 15 4 6 24 11 27 46 27
40 0 40 0 40 -40 l0 -40 120 0 120 0 0 -40 0 -40 160 0 160 0 0 -40 0 -40 130
0 c72 0 130 -1 130 -3 0 -1 -4 -17 -9 -35 -6 -18 -6 -30 -1 -27 5 3 12 20 16
38 6 30 7 31 15 10 5 -13 13 -23 19 -23 19 0 10 -21 -12 -30 -19 -7 -20 -9 -4
-9 15 -1 17 -6 12 -28 -4 -16 -15 -34 -24 -41 -12 -9 -14 -15 -5 -20 8 -5 8
-11 -1 -24 -7 -10 -17 -14 -21 -10 -4 4 -3 -2 2 -13 13 -25 6 -45 -15 -45 -15
0 -15 2 -2 10 13 9 13 10 0 10 -8 0 -21 -10 -29 -22 -13 -21 -13 -22 2 -9 12
9 17 10 17 2 0 -7 5 -9 13 -5 7 4 9 3 4 -2 -5 -5 -14 -9 -20 -9 -7 0 -12 -10
-12 -21 -1 -29 -23 -54 -42 -47 -8 3 -26 -6 -42 -23 -15 -16 -37 -37 -49 -46
-12 -10 -22 -23 -22 -30 0 -7 5 -5 11 5 6 9 15 14 21 11 7 -4 8 -2 4 4 -3 6 2
16 13 22 27 14 35 -3 9 -21 -11 -8 -33 -24 -48 -36 -15 -12 -30 -20 -34 -16
-3 3 -6 1 -6 -5 0 -7 -4 -12 -10 -12 -5 0 -7 7 -3 16 3 8 12 13 20 9 11 -4 13
-1 9 11 -4 9 -1 23 5 31 7 7 10 15 8 18 -3 2 -16 -14 -29 -35 -17 -28 -32 -40
-48 -40 -13 0 -21 -4 -17 -10 3 -5 13 -6 23 -3 13 5 14 3 6 -6 -9 -10 -17 -10
-33 -2 -12 7 -21 15 -21 19 0 4 -9 8 -21 9 -20 2 -20 2 -1 -15 10 -9 17 -23
14 -31 -4 -11 -6 -11 -13 0 -8 12 -11 11 -19 -2 -6 -10 -20 -15 -35 -14 -14 2
-27 -1 -31 -6 -3 -5 -10 -9 -16 -9 -7 0 -6 6 2 15 7 8 19 15 27 15 11 0 13 4
6 13 -6 6 -9 20 -8 30 3 14 -4 17 -36 17 -21 0 -39 5 -39 10 0 6 -18 10 -40
10 -39 0 -40 -1 -38 -31 2 -28 18 -54 18 -30 0 6 8 11 18 12 14 0 14 2 -3 9
-19 8 -19 9 3 9 12 1 22 -5 22 -11 0 -9 4 -8 10 2 8 12 10 11 10 -7 0 -29 13
-36 36 -17 18 14 18 15 -3 9 -13 -4 -23 -2 -23 3 0 16 41 22 46 7 6 -14 -25
-64 -39 -65 -5 0 -6 4 -3 9 3 5 -1 12 -10 15 -12 4 -15 2 -10 -9 3 -8 1 -15
-4 -15 -6 0 -10 6 -11 13 0 8 -2 8 -5 1 -6 -14 -45 -6 -56 10 -5 7 -8 6 -8 -3
0 -10 -3 -11 -13 -2 -8 6 -17 8 -20 4 -4 -3 -13 -1 -20 5 -8 7 -17 9 -21 5 -4
-4 -9 3 -13 15 -3 12 -9 22 -14 22 -5 0 -5 -8 -2 -17 5 -14 1 -13 -25 6 -18
12 -32 19 -32 14 0 -4 -7 3 -16 15 -8 12 -20 20 -25 17 -5 -4 -9 -2 -9 4 0 13
17 23 23 14 2 -5 2 -2 1 5 -4 13 8 16 19 5 4 -3 2 -12 -4 -19 -14 -17 24 -38
73 -40 52 -3 39 24 -13 28 -22 2 -38 6 -37 9 6 12 -24 38 -42 36 -11 -1 -17
-3 -15 -6 3 -2 0 -10 -5 -16 -8 -10 -19 -5 -45 18 -24 21 -31 33 -23 38 7 4
17 0 25 -9 7 -9 13 -13 13 -8 0 5 6 4 13 -1 20 -15 71 -9 75 9 2 12 -7 17 -42
19 -24 2 -42 1 -40 -3 3 -4 -1 -5 -9 -2 -8 3 -13 15 -12 27 2 16 -3 23 -14 23
-10 0 -18 -6 -18 -13 0 -7 4 -13 9 -13 4 0 8 -4 8 -10 0 -18 -40 -4 -56 19
-15 20 -15 23 1 34 10 8 14 19 9 30 -4 12 -10 15 -19 7 -6 -5 -16 -6 -20 -2
-5 4 -5 2 -1 -5 4 -7 13 -10 21 -6 8 3 15 1 15 -5 0 -5 -7 -12 -15 -16 -10 -3
-20 5 -31 25 -12 23 -12 29 -2 24 7 -3 6 -1 -3 7 -17 14 -44 82 -29 73 9 -6 4
19 -9 40 -3 6 -6 36 -6 68 0 41 3 53 10 44 7 -10 10 3 11 44 1 51 -1 56 -12
41 -7 -9 -14 -12 -14 -5 0 6 7 18 15 27 9 9 11 17 5 21 -5 3 -10 11 -10 16 0
6 3 8 8 6 4 -3 8 9 9 26 5 59 43 124 65 111 10 -6 9 4 -1 31 -7 17 -8 17 -15
-8 -3 -15 -11 -27 -16 -27 -6 0 -4 13 5 30 8 16 15 42 15 58 0 15 4 32 10 38
11 11 100 6 100 -7z m800 -4 c0 -22 -4 -25 -40 -25 -22 0 -40 5 -40 10 0 6
-33 10 -80 10 -64 0 -80 3 -80 15 0 13 20 15 120 15 l120 0 0 -25z m-640 -39
c0 -10 22 -16 80 -21 44 -4 80 -11 80 -16 0 -5 18 -9 40 -9 22 0 40 -4 40 -9
0 -6 17 -12 38 -14 20 -2 3 -2 -38 0 -41 3 -76 9 -78 14 -2 5 -21 9 -43 9 -21
0 -39 4 -39 9 0 5 -36 12 -80 16 -58 5 -80 11 -80 21 0 10 12 14 40 14 28 0
40 -4 40 -14z m794 -31 c-17 -26 -24 -31 -24 -16 0 10 28 41 36 41 2 0 -3 -11
-12 -25z m-91 8 c-13 -2 -33 -2 -45 0 -13 2 -3 4 22 4 25 0 35 -2 23 -4z m55
-16 c-8 -16 -12 -17 -19 -6 -7 12 -9 12 -9 0 0 -8 -2 -12 -5 -9 -11 11 6 34
24 34 16 0 18 -4 9 -19z m8836 12 c3 -3 -4 -5 -14 -6 -11 -1 -22 2 -24 6 -5 8
30 8 38 0z m-44 -33 c-7 -7 -14 -6 -21 1 -9 9 -7 12 9 10 14 -1 18 -5 12 -11z
m-9800 -46 c0 -5 -2 -10 -4 -10 -3 0 -8 5 -11 10 -3 6 -1 10 4 10 6 0 11 -4
11 -10z m553 3 c-13 -2 -33 -2 -45 0 -13 2 -3 4 22 4 25 0 35 -2 23 -4z m9074
-18 c-15 -16 -19 -13 -11 9 3 9 10 13 15 10 5 -3 3 -11 -4 -19z m78 17 c-3 -3
0 -11 6 -18 14 -17 -9 -30 -24 -15 -9 9 -7 10 8 5 19 -7 19 -7 2 13 -14 16
-15 20 -2 20 8 0 13 -3 10 -5z m45 4 c0 -2 -7 -7 -16 -10 -8 -3 -12 -2 -9 4 6
10 25 14 25 6z m-2448 -18 c-8 -8 -9 -15 0 -25 6 -7 9 -15 7 -17 -2 -2 -13 8
-23 22 -11 14 -14 22 -8 18 6 -3 13 -2 17 4 3 5 9 10 13 10 3 0 1 -5 -6 -12z
m2348 -43 c-13 -14 -26 -23 -28 -20 -5 5 36 45 46 45 3 0 -5 -11 -18 -25z
m-2295 -4 c-9 -8 -36 -10 -30 -2 2 4 11 8 20 8 8 0 13 -3 10 -6z m2325 6 c0
-2 -10 -12 -22 -23 l-23 -19 19 23 c18 21 26 27 26 19z m-8707 -33 c9 -3 17
-13 16 -22 0 -11 -3 -12 -6 -4 -3 7 -23 12 -49 12 -24 0 -44 4 -44 9 0 6 -17
12 -37 14 -21 2 -6 2 32 0 39 -2 78 -6 88 -9z m8626 -8 c9 -10 8 -16 -3 -26
-13 -10 -15 -8 -11 9 5 26 -2 26 -29 4 -21 -18 -21 -18 -2 5 22 26 29 27 45 8z
m-2198 -33 c13 -16 12 -17 -3 -4 -17 13 -22 21 -14 21 2 0 10 -8 17 -17z
m2165 -8 c-3 -24 -12 -27 -27 -8 -8 9 -9 14 -2 10 6 -4 14 -3 18 3 9 14 14 12
11 -5z m-8569 -17 c-3 -8 -6 -5 -6 6 -1 11 2 17 5 13 3 -3 4 -12 1 -19z m6503
-23 c13 -14 21 -25 18 -25 -2 0 -15 11 -28 25 -13 14 -21 25 -18 25 2 0 15
-11 28 -25z m1890 -21 c0 -33 3 -43 13 -38 9 6 9 5 0 -8 -7 -8 -11 -17 -8 -20
3 -3 -1 -11 -9 -17 -11 -10 -14 -9 -12 1 1 7 5 18 9 25 4 6 3 14 -3 18 -13 8
-13 85 0 85 6 0 10 -21 10 -46z m130 31 c-7 -9 -15 -13 -19 -10 -3 3 1 10 9
15 21 14 24 12 10 -5z m-53 -20 c0 -8 -4 -12 -9 -9 -5 3 -6 10 -3 15 9 13 12
11 12 -6z m-9552 -15 c3 -5 1 -10 -4 -10 -6 0 -11 5 -11 10 0 6 2 10 4 10 3 0
8 -4 11 -10z m9575 -4 c0 -2 -6 -9 -14 -15 -11 -9 -16 -9 -22 0 -4 7 -3 9 4 5
6 -3 13 -2 17 4 6 10 15 14 15 6z m-9593 -88 c-3 -8 -6 -5 -6 6 -1 11 2 17 5
13 3 -3 4 -12 1 -19z m7808 -27 c-9 -8 -36 -10 -30 -2 2 4 11 8 20 8 8 0 13
-3 10 -6z m1547 2 c-6 -3 -10 -9 -7 -14 4 -5 -1 -6 -9 -3 -9 3 -16 2 -16 -4 0
-6 5 -12 12 -14 8 -3 7 -6 -4 -10 -14 -6 -17 9 -9 42 0 3 11 6 24 7 12 0 16
-1 9 -4z m56 -5 c-2 -7 4 -12 12 -10 11 3 12 0 4 -8 -6 -6 -27 -13 -45 -15
-26 -4 -30 -3 -14 4 11 5 14 10 7 10 -7 1 -10 6 -7 12 5 6 12 4 22 -8 12 -15
14 -15 10 -1 -3 9 -3 19 0 22 10 9 13 7 11 -6z m-1554 -24 c3 -8 2 -12 -4 -9
-6 3 -10 10 -10 16 0 14 7 11 14 -7z m-20 -13 c14 -16 15 -19 2 -24 -8 -3 -20
2 -28 11 -12 15 -11 16 5 3 19 -15 24 -2 5 17 -7 7 -10 12 -7 12 3 0 14 -8 23
-19z m1546 -14 c0 -2 -10 -12 -22 -23 l-23 -19 19 23 c18 21 26 27 26 19z
m-70 -37 c-11 -11 -19 -24 -16 -28 3 -4 -5 -8 -17 -9 -12 0 -16 1 -9 4 6 3 12
10 12 16 0 5 -3 7 -7 4 -3 -4 -13 -1 -21 6 -13 10 -15 9 -8 -8 6 -16 5 -18 -5
-7 -11 10 -10 15 3 28 14 14 17 14 32 -1 15 -15 21 -12 17 8 -1 5 3 6 8 3 5
-4 13 -1 16 5 4 5 9 8 12 5 2 -2 -5 -14 -17 -26z m-1380 -26 c0 -8 -19 -13
-24 -6 -3 5 1 9 9 9 8 0 15 -2 15 -3z m1283 -49 c9 2 15 -1 11 -6 -3 -5 -9 -7
-14 -4 -5 3 -12 -1 -17 -8 -7 -12 -12 -11 -28 5 -19 18 -19 19 -1 12 15 -6 17
-4 11 7 -7 11 -6 12 6 3 8 -6 22 -10 32 -9z m-1175 -26 c-7 -5 -14 -4 -16 1
-2 6 -9 7 -14 4 -6 -4 -8 -2 -5 4 4 5 16 8 28 5 16 -4 17 -8 7 -14z m1135 -13
c3 -8 -2 -20 -11 -27 -14 -11 -15 -11 -5 0 6 7 9 20 6 27 -3 8 -3 14 0 14 3 0
7 -6 10 -14z m-79 -35 c3 -5 -2 -15 -12 -22 -15 -12 -16 -12 -5 2 7 9 10 19 6
22 -3 4 -4 7 0 7 3 0 8 -4 11 -9z m-904 -37 c0 -8 -19 -13 -24 -6 -3 5 1 9 9
9 8 0 15 -2 15 -3z m-7286 -19 c-25 -19 -40 -19 -24 0 7 8 20 15 28 15 13 0
12 -3 -4 -15z m8034 -28 c8 -10 6 -13 -7 -13 -11 0 -17 6 -14 13 3 7 6 13 8
13 1 0 7 -6 13 -13z m-618 -12 c0 -2 -6 -5 -13 -8 -8 -3 -14 1 -14 8 0 7 6 11
14 8 7 -3 13 -6 13 -8z m660 5 c0 -5 -5 -10 -11 -10 -5 0 -7 5 -4 10 3 6 8 10
11 10 2 0 4 -4 4 -10z m-645 -30 c3 -6 -1 -7 -9 -4 -18 7 -21 14 -7 14 6 0 13
-4 16 -10z m36 -17 c13 -16 12 -17 -3 -4 -17 13 -22 21 -14 21 2 0 10 -8 17
-17z m594 -13 c-14 -15 -21 -17 -32 -9 -7 6 -13 14 -13 16 0 3 6 0 14 -6 10
-9 16 -8 26 4 7 8 15 15 18 15 3 0 -3 -9 -13 -20z m-87 -14 c-10 -7 -15 -16
-11 -19 3 -4 12 -2 20 4 18 16 16 1 -3 -18 -11 -12 -18 -13 -27 -4 -6 6 -7 11
-3 11 5 0 2 8 -5 17 -8 9 -9 14 -4 11 6 -4 17 -3 25 3 22 13 27 10 8 -5z m-8
-60 c0 -2 -8 -10 -17 -17 -16 -13 -17 -12 -4 4 13 16 21 21 21 13z m-187 -30
c3 3 14 1 24 -6 15 -9 15 -10 -7 -4 -23 6 -24 6 -10 -12 14 -18 14 -18 -6 -1
-11 9 -23 15 -26 12 -2 -3 -5 2 -5 10 0 10 4 12 12 5 7 -5 14 -7 18 -4z m112
4 c-3 -5 -12 -10 -18 -10 -7 0 -6 4 3 10 19 12 23 12 15 0z m-27 -45 c-3 -3
-9 2 -12 12 -6 14 -5 15 5 6 7 -7 10 -15 7 -18z m-6889 -925 c179 -64 284
-217 283 -416 0 -102 -21 -187 -74 -294 -34 -70 -57 -101 -132 -175 -104 -103
-170 -145 -293 -187 -105 -37 -262 -49 -365 -28 -254 50 -396 251 -359 508 23
161 89 292 206 407 105 102 225 168 369 201 93 21 284 13 365 -16z m7084 15
c67 -14 187 -70 187 -87 0 -12 -52 -242 -55 -246 -2 -2 -23 8 -47 21 -75 44
-152 61 -278 61 -160 1 -245 -30 -331 -119 -99 -101 -140 -312 -79 -410 13
-22 41 -44 77 -62 49 -23 69 -27 147 -28 50 0 107 6 126 13 35 12 36 15 53 95
9 45 17 85 17 90 0 4 -38 7 -84 7 l-83 0 20 100 20 100 224 0 c209 0 224 -1
219 -17 -3 -10 -28 -125 -56 -256 -27 -132 -53 -250 -56 -264 -8 -29 -77 -63
-194 -94 -106 -29 -312 -37 -403 -15 -259 61 -391 262 -345 523 28 160 91 283
199 392 100 99 220 164 361 195 84 19 276 19 361 1z m-9513 -26 c74 -35 110
-67 145 -131 26 -47 30 -63 30 -138 0 -215 -122 -397 -312 -461 -57 -20 -96
-24 -242 -29 l-175 -5 -22 -109 c-13 -60 -28 -133 -34 -162 l-11 -54 -146 0
-145 0 5 23 c4 12 56 258 117 547 61 289 113 531 115 538 4 11 65 13 312 10
307 -3 308 -3 363 -29z m696 -6 c-3 -21 -24 -120 -45 -220 l-38 -183 217 0
217 0 42 208 c23 114 44 213 46 220 3 9 42 12 148 12 l143 0 -103 -487 c-56
-269 -110 -521 -119 -560 l-15 -73 -145 0 c-134 0 -145 1 -140 18 10 33 86
403 86 417 0 13 -34 15 -214 15 l-215 0 -11 -57 c-7 -32 -27 -130 -46 -218
-19 -88 -34 -163 -34 -167 0 -5 -66 -8 -146 -8 l-146 0 5 23 c4 12 56 258 117
547 61 289 112 531 115 538 3 9 42 12 146 12 l142 0 -7 -37z m2736 -292 c92
-226 134 -318 138 -305 4 11 36 157 71 327 l64 307 137 0 c109 0 138 -3 138
-13 0 -8 -52 -258 -115 -557 -63 -299 -115 -545 -115 -547 0 -2 -62 -3 -138
-3 l-138 0 -124 303 c-68 166 -128 312 -135 325 -10 20 -20 -17 -73 -270 -34
-161 -65 -308 -68 -325 l-6 -33 -150 0 -150 0 5 23 c4 12 56 258 117 547 61
289 112 531 115 538 3 10 39 12 151 10 l145 -3 131 -324z m1567 312 c0 -10
-10 -63 -22 -118 l-22 -100 -256 -3 -256 -2 -17 -88 c-10 -48 -19 -95 -22
-104 -5 -17 8 -18 181 -18 l187 0 -4 -22 c-3 -13 -13 -62 -24 -110 l-18 -88
-187 0 -188 0 -11 -57 c-6 -32 -16 -74 -21 -93 -5 -19 -9 -41 -9 -47 0 -10 57
-13 254 -13 l254 0 -13 -62 c-7 -35 -18 -89 -25 -120 l-11 -58 -401 0 -400 0
5 23 c4 12 56 258 117 547 61 289 112 531 115 538 3 9 92 12 400 12 370 0 395
-1 394 -17z m1101 7 c0 -6 -20 -106 -45 -222 -25 -116 -43 -213 -42 -215 2 -2
108 98 234 222 l231 225 174 0 173 -1 -283 -277 -283 -277 153 -245 c84 -135
164 -262 177 -282 l23 -38 -169 0 -168 1 -150 239 c-113 181 -152 236 -157
223 -7 -16 -98 -443 -98 -458 0 -3 -66 -5 -146 -5 l-146 0 5 23 c4 12 56 258
117 547 61 289 112 531 115 538 6 16 285 18 285 2z m1230 -1 c0 -6 -52 -256
-115 -555 -63 -299 -115 -546 -115 -549 0 -3 -66 -5 -146 -5 l-146 0 5 23 c4
12 56 258 117 547 61 289 112 531 115 538 6 16 285 18 285 1z m642 -318 c91
-224 134 -318 138 -305 4 11 36 157 71 327 l64 307 137 0 c109 0 138 -3 138
-13 0 -8 -52 -258 -115 -557 -63 -299 -115 -545 -115 -547 0 -2 -62 -3 -138
-3 l-138 0 -124 303 c-68 166 -128 312 -135 325 -10 20 -20 -17 -73 -270 -34
-161 -65 -308 -68 -325 l-6 -33 -150 0 -150 0 5 23 c4 12 56 258 117 547 61
289 112 531 115 538 3 10 39 12 151 10 l145 -3 131 -324z m-5607 -1506 c35
-17 40 -25 43 -58 l3 -38 -37 20 c-81 44 -221 32 -271 -21 -56 -59 -69 -163
-30 -238 40 -80 126 -114 227 -90 l50 12 0 69 0 69 -50 0 c-49 0 -50 1 -50 30
l0 30 85 0 86 0 -3 -122 -3 -121 -40 -21 c-56 -29 -202 -30 -260 -1 -98 49
-153 152 -141 267 11 106 74 190 171 226 47 18 173 10 220 -13z m-1285 -15 l0
-30 -80 0 -80 0 0 -225 0 -225 -40 0 -40 0 0 225 0 225 -75 0 -75 0 0 30 0 30
195 0 195 0 0 -30z m543 -218 c53 -136 97 -251 97 -255 0 -5 -16 -7 -36 -5
-34 3 -38 6 -61 66 l-25 63 -110 -3 -110 -3 -25 -62 c-25 -62 -26 -63 -63 -63
l-39 0 33 83 c18 45 63 160 100 255 l68 172 37 0 36 0 98 -248z m1167 23 l0
-225 130 0 130 0 0 -30 0 -30 -165 0 -164 0 -3 255 -3 255 38 0 37 0 0 -225z
m610 -30 l0 -255 -35 0 -35 0 0 255 0 255 35 0 35 0 0 -255z m501 68 l124
-186 3 186 2 187 40 0 40 0 0 -255 0 -255 -37 0 c-38 1 -38 1 -163 187 l-125
186 -3 -187 -2 -186 -35 0 -35 0 0 255 0 255 34 0 c32 0 37 -6 157 -187z m849
157 l0 -30 -130 0 -130 0 0 -85 0 -85 94 0 94 0 4 -30 5 -30 -99 0 -98 0 0
-80 0 -80 130 0 130 0 0 -30 0 -30 -165 0 -165 0 0 255 0 255 165 0 165 0 0
-30z m850 -80 l0 -110 130 0 130 0 0 110 0 110 40 0 40 0 0 -255 0 -255 -40 0
-40 0 0 115 0 115 -130 0 -130 0 0 -115 0 -115 -35 0 -35 0 0 255 0 255 35 0
35 0 0 -110z m980 80 l0 -30 -130 0 -130 0 0 -85 0 -85 95 0 95 0 0 -30 0 -30
-95 0 -95 0 0 -80 0 -80 130 0 130 0 0 -30 0 -30 -165 0 -165 0 0 255 0 255
165 0 165 0 0 -30z m603 -3 c70 -53 74 -163 8 -228 -20 -20 -42 -38 -50 -41
-11 -3 -3 -27 37 -101 29 -54 52 -100 52 -102 0 -3 -17 -5 -37 -5 -38 0 -38 1
-89 98 l-50 97 -57 3 -57 3 0 -101 0 -100 -35 0 -35 0 0 256 0 256 138 -4
c134 -3 140 -4 175 -31z m677 3 l0 -30 -130 0 -130 0 0 -85 0 -85 95 0 95 0 0
-30 0 -30 -95 0 -95 0 0 -80 0 -80 130 0 130 0 0 -30 0 -30 -165 0 -165 0 0
255 0 255 165 0 165 0 0 -30z m-530 -1349 c0 -6 12 -9 28 -8 17 1 26 -3 24
-11 -2 -10 2 -10 17 -2 13 6 22 6 26 0 3 -5 13 -6 22 -3 11 4 14 3 9 -6 -5 -8
-3 -12 5 -11 24 4 59 -12 52 -23 -3 -6 -1 -7 5 -3 19 11 109 -54 95 -68 -4 -3
-1 -6 6 -6 19 0 43 -28 35 -41 -4 -8 -3 -9 4 -5 7 4 12 1 12 -8 0 -10 -6 -13
-15 -10 -8 4 -15 12 -15 19 0 8 -4 16 -9 19 -21 13 3 -34 24 -48 25 -16 37
-12 28 10 -10 26 5 14 26 -21 11 -19 16 -37 10 -40 -5 -4 -9 -12 -9 -18 0 -7
4 -6 10 3 5 8 12 12 15 8 4 -3 -2 -15 -14 -27 -11 -11 -15 -21 -9 -23 8 -3 7
-11 -1 -26 -19 -36 -5 -25 18 14 12 19 16 32 9 28 -7 -4 -8 -3 -4 5 4 6 12 9
17 5 5 -3 7 -9 4 -14 -3 -5 -1 -11 5 -15 6 -4 8 -11 4 -16 -3 -5 2 -21 11 -35
9 -14 14 -28 11 -31 -2 -3 -1 -15 4 -28 10 -27 -2 -35 -56 -35 -19 0 -34 -4
-34 -10 0 -15 80 -13 81 3 1 14 17 -22 18 -41 1 -6 -2 -11 -6 -11 -5 1 -27 1
-50 0 -62 -2 -53 -21 10 -21 39 0 48 -3 37 -11 -11 -8 -12 -12 -2 -16 6 -2 12
-9 12 -14 0 -6 -4 -8 -9 -5 -5 4 -7 -3 -4 -14 3 -11 0 -27 -7 -35 -6 -8 -9
-18 -6 -24 9 -13 -11 -61 -37 -91 -13 -15 -15 -19 -4 -11 15 12 17 11 13 -10
-3 -13 -5 -29 -5 -35 -1 -18 -31 -26 -31 -8 0 8 5 12 10 9 6 -3 10 -2 10 4 0
15 -20 24 -22 9 -5 -42 -2 -84 7 -90 6 -5 5 -11 -3 -16 -7 -5 -10 -16 -6 -25
4 -12 -1 -20 -17 -26 -20 -8 -21 -10 -5 -10 15 -1 16 -4 7 -15 -7 -8 -14 -34
-17 -58 -3 -24 -12 -49 -22 -56 -9 -7 -16 -21 -14 -30 2 -15 1 -15 -7 -2 -7
10 -11 11 -11 3 0 -8 -15 -13 -40 -13 -22 0 -40 5 -40 10 0 6 -33 10 -80 10
-73 0 -80 2 -80 20 0 17 -7 20 -40 20 -22 0 -40 5 -40 10 0 6 -18 10 -40 10
-22 0 -40 5 -40 10 0 6 -18 10 -40 10 -33 0 -40 3 -40 20 0 17 -7 20 -40 20
-22 0 -40 5 -40 10 0 6 -18 10 -40 10 -22 0 -40 5 -40 10 0 6 -35 11 -82 12
-46 1 -64 3 -40 5 23 2 42 8 42 14 0 5 18 9 40 9 22 0 40 -4 40 -10 0 -5 18
-10 40 -10 22 0 40 -4 40 -10 0 -5 18 -10 40 -10 22 0 40 -4 40 -10 0 -5 18
-10 40 -10 22 0 40 -4 40 -10 0 -5 18 -10 40 -10 33 0 40 -3 40 -20 0 -17 7
-20 40 -20 22 0 40 -4 40 -10 0 -5 18 -10 40 -10 22 0 40 -4 40 -10 0 -5 18
-10 40 -10 22 0 40 -4 40 -10 0 -5 18 -10 40 -10 22 0 40 5 40 11 0 5 5 7 10
4 6 -3 10 1 10 10 0 9 5 13 10 10 11 -7 14 8 3 18 -3 4 -12 -1 -20 -11 -14
-16 -14 -16 -8 3 4 11 7 24 8 28 1 5 -55 8 -125 7 l-128 -1 0 40 0 41 -120 0
-120 0 0 40 0 40 -160 0 -160 0 0 40 0 40 -40 0 c-38 0 -40 1 -41 33 0 26 -2
28 -8 12 -5 -11 -6 -26 -4 -33 4 -8 0 -10 -11 -6 -10 4 -15 13 -11 22 3 8 3
24 -1 35 -5 16 -8 17 -15 6 -7 -11 -9 -11 -9 3 0 23 22 28 37 9 10 -14 11 -13
6 7 -4 17 -10 21 -25 16 -14 -4 -18 -2 -14 5 4 6 16 11 27 11 16 0 19 4 14 21
-4 12 -3 24 2 28 5 3 6 17 2 31 -7 24 -7 24 -8 3 -1 -13 -5 -23 -11 -23 -10 0
-3 27 12 47 6 7 7 17 3 23 -3 5 -1 10 4 10 6 0 10 8 9 18 -3 34 2 53 12 47 6
-3 7 1 4 9 -3 9 -1 16 5 16 6 0 11 -8 12 -17 0 -14 2 -15 6 -3 4 8 12 21 20
28 7 7 13 18 13 24 0 6 -9 0 -21 -13 -19 -23 -20 -23 -14 -2 3 12 2 24 -4 27
-6 4 -5 19 2 41 8 29 14 34 31 30 18 -5 19 -4 5 6 -15 11 -15 14 0 31 8 10 21
18 28 18 7 0 19 16 28 36 8 19 18 33 23 30 5 -3 9 1 9 9 0 8 -4 12 -9 9 -10
-6 -10 -1 -2 20 3 9 13 16 21 16 8 0 11 5 8 10 -3 6 1 10 10 10 10 0 13 5 9
13 -5 8 -3 8 9 -2 9 -7 14 -18 10 -24 -4 -6 -1 -7 6 -2 9 5 10 10 2 18 -15 15
-14 27 2 27 8 0 22 9 33 21 25 28 71 51 92 47 9 -2 22 2 27 8 6 7 26 15 45 19
26 4 31 3 20 -4 -8 -6 -10 -11 -4 -11 6 0 17 7 24 15 14 17 130 22 130 6z
m-463 -209 c-8 -10 -17 -25 -20 -34 -4 -10 -11 -18 -16 -18 -5 0 -3 14 5 30 9
17 20 30 25 30 6 0 7 5 3 12 -5 7 -3 8 5 4 10 -6 9 -12 -2 -24z m-105 -214
c-7 -7 -12 -8 -12 -2 0 14 12 26 19 19 2 -3 -1 -11 -7 -17z m-55 -230 c-3 -8
-6 -5 -6 6 -1 11 2 17 5 13 3 -3 4 -12 1 -19z m-25 -121 l-21 -20 6 24 c7 27
26 44 32 28 2 -6 -6 -20 -17 -32z m-26 -75 c-11 -10 -15 4 -8 28 l7 25 3 -23
c2 -13 1 -26 -2 -30z m84 -22 c0 -17 7 -20 40 -20 22 0 40 -4 40 -9 0 -6 19
-12 43 -14 23 -2 5 -4 -40 -5 -50 -1 -83 2 -83 8 0 6 -20 10 -45 10 -45 0 -48
5 -36 48 1 1 19 2 41 2 33 0 40 -3 40 -20z m-97 -20 c-3 -11 -9 -20 -13 -20
-5 0 -6 9 -3 20 3 11 9 20 13 20 5 0 6 -9 3 -20z m12 -68 c-3 -4 -10 0 -14 7
-5 8 -14 10 -21 6 -9 -6 -11 -4 -6 4 5 7 14 10 22 7 8 -3 15 1 15 12 1 10 4 8
6 -6 3 -13 2 -27 -2 -30z m-13 -42 c4 0 8 -7 8 -15 0 -11 12 -15 45 -15 25 0
45 -4 45 -10 0 -5 18 -10 40 -10 22 0 40 -4 40 -10 0 -5 18 -10 40 -10 22 0
40 -4 40 -10 0 -5 18 -10 40 -10 22 0 40 -4 40 -10 0 -5 18 -10 40 -10 33 0
40 -3 40 -20 0 -17 7 -20 40 -20 22 0 40 -4 40 -10 0 -5 18 -10 40 -10 22 0
40 -4 40 -10 0 -5 18 -10 40 -10 22 0 40 -4 40 -10 0 -5 18 -10 40 -10 22 0
40 -4 40 -10 0 -5 18 -10 40 -10 22 0 40 -4 40 -10 0 -5 16 -10 36 -10 19 0
42 -6 50 -14 8 -8 23 -13 34 -11 23 5 36 -26 21 -53 -6 -11 -7 -22 -4 -26 3
-3 2 -6 -4 -6 -5 0 -15 -12 -21 -26 -7 -14 -17 -22 -22 -19 -6 3 -10 2 -10 -3
0 -14 28 -23 34 -11 2 5 3 4 2 -3 -2 -7 -9 -12 -15 -11 -6 2 -11 -2 -11 -7 0
-6 5 -10 10 -10 6 0 10 -6 10 -12 -1 -7 -9 -3 -19 10 -17 19 -29 22 -95 22
-74 0 -76 1 -76 25 0 23 4 25 40 25 22 0 40 -4 40 -10 0 -5 18 -10 40 -10 31
0 40 4 41 18 1 15 2 15 6 -1 4 -14 11 -7 29 28 21 42 22 49 8 62 -13 14 -14
12 -8 -12 5 -20 4 -26 -5 -21 -6 4 -11 15 -11 24 0 13 -2 14 -12 3 -11 -10
-10 -15 5 -25 19 -15 24 -31 5 -20 -7 5 -8 3 -3 -6 6 -10 4 -12 -9 -7 -10 4
-33 7 -52 7 -24 0 -34 5 -34 15 0 11 -11 15 -40 15 -22 0 -40 5 -40 10 0 6
-18 10 -39 10 -22 0 -41 5 -43 12 -3 9 -66 13 -241 16 l-237 4 0 24 c0 21 5
24 40 24 22 0 40 -4 40 -10 0 -6 33 -10 80 -10 47 0 80 -4 80 -10 0 -5 18 -10
40 -10 33 0 40 3 40 20 0 17 -7 20 -40 20 -22 0 -40 4 -40 9 0 5 -36 12 -80
16 -58 5 -80 11 -80 21 0 10 -12 14 -40 14 -22 0 -40 5 -40 10 0 6 -18 10 -40
10 -22 0 -40 4 -40 9 0 6 -19 11 -42 13 -39 3 -43 5 -40 27 2 15 0 21 -7 17
-7 -4 -11 1 -11 13 0 32 -11 50 -26 44 -13 -5 -13 -9 1 -29 8 -13 11 -24 5
-24 -5 0 -10 4 -10 10 0 5 -7 6 -17 3 -12 -5 -14 -3 -7 8 4 8 9 21 11 29 1 8
7 16 12 18 6 2 11 8 11 13 0 6 -4 7 -10 4 -6 -4 -7 1 -3 11 6 16 8 15 16 -4 6
-12 14 -22 19 -22z m338 -40 c0 -17 7 -20 40 -20 22 0 40 -4 40 -10 0 -5 18
-10 40 -10 22 0 40 -4 40 -9 0 -6 17 -12 38 -14 20 -2 3 -2 -38 0 -41 3 -76 9
-78 14 -2 5 -21 9 -43 9 -21 0 -39 5 -39 10 0 6 -18 10 -40 10 -33 0 -40 3
-40 20 0 17 7 20 40 20 33 0 40 -3 40 -20z m-370 -47 c0 -15 2 -16 10 -3 5 8
12 11 16 7 11 -11 -2 -19 -38 -23 -24 -3 -29 -1 -18 6 8 5 11 10 7 10 -11 0 2
20 14 20 5 0 9 -8 9 -17z m11 -53 c21 0 39 -4 39 -10 0 -5 18 -10 40 -10 22 0
40 -4 40 -9 0 -6 19 -12 43 -14 23 -2 -13 -4 -79 -5 l-121 -2 -7 -31 c-3 -17
-3 -36 1 -43 3 -6 2 -7 -3 -3 -9 9 -13 87 -4 87 3 0 6 9 7 20 1 11 -2 18 -8
15 -11 -7 -12 8 -2 19 4 4 9 2 11 -3 2 -6 21 -11 43 -11z m582 3 c-13 -2 -33
-2 -45 0 -13 2 -3 4 22 4 25 0 35 -2 23 -4z m447 -19 c0 -2 -7 -22 -16 -44
-15 -37 -19 -40 -55 -40 -21 0 -39 5 -39 10 0 6 -18 10 -40 10 -33 0 -40 3
-40 20 0 17 7 20 40 20 33 0 40 -3 40 -20 0 -17 7 -20 40 -20 34 0 41 4 46 24
3 14 3 29 0 34 -3 5 1 9 9 9 8 0 15 -2 15 -3z m-1100 -84 c0 -5 -5 -10 -11
-10 -5 0 -7 5 -4 10 3 6 8 10 11 10 2 0 4 -4 4 -10z m-2899 -57 c13 -16 12
-17 -3 -4 -10 7 -18 15 -18 17 0 8 8 3 21 -13z m2909 -28 c0 -5 -5 -3 -10 5
-5 8 -10 20 -10 25 0 6 5 3 10 -5 5 -8 10 -19 10 -25z m660 15 c0 -5 18 -10
40 -10 22 0 40 -4 40 -9 0 -6 19 -12 43 -14 23 -2 -13 -4 -80 -5 l-123 -2 0
25 c0 23 4 25 40 25 22 0 40 -4 40 -10z m-3499 -63 c-6 -8 -7 -18 -3 -22 4 -5
1 -5 -6 -1 -10 6 -10 11 -1 22 6 8 14 14 16 14 3 0 0 -6 -6 -13z m99 -117 c6
-11 8 -20 6 -20 -3 0 -10 9 -16 20 -6 11 -8 20 -6 20 3 0 10 -9 16 -20z m2661
-61 c-7 -18 -10 -20 -10 -6 -1 11 -6 15 -12 11 -8 -5 -8 -1 0 13 6 11 9 23 7
25 -1 3 3 0 11 -6 10 -9 11 -19 4 -37z m1066 35 c-3 -3 -12 -4 -19 -1 -8 3 -5
6 6 6 11 1 17 -2 13 -5z m-4 -34 c-3 -11 -9 -17 -15 -14 -5 3 -4 12 3 20 16
19 18 18 12 -6z m-1082 -45 c-5 -5 -11 -17 -14 -25 -3 -8 -4 -1 -2 15 2 17 4
35 4 40 1 6 5 3 11 -5 5 -8 5 -19 1 -25z m1038 -17 c-8 -30 -4 -55 5 -27 13
40 14 42 15 18 1 -15 -5 -32 -13 -38 -12 -10 -16 -5 -26 24 -7 20 -9 39 -6 42
3 4 6 -2 7 -13 0 -17 1 -16 9 4 14 33 20 27 9 -10z m-1028 -38 c9 13 10 13 6
0 -2 -8 -10 -15 -17 -15 -7 0 -15 7 -17 15 -4 13 -3 13 6 0 10 -13 12 -13 22
0z m1027 -30 c13 0 13 -3 4 -12 -10 -10 -15 -10 -22 2 -11 17 -13 9 -4 -14 3
-9 10 -13 15 -10 12 7 11 -7 -1 -26 -8 -13 -10 -12 -10 3 0 10 -4 16 -8 13 -4
-2 -7 7 -6 22 2 40 5 48 11 35 2 -7 12 -13 21 -13z m-3593 -10 c3 -5 1 -10 -4
-10 -6 0 -11 5 -11 10 0 6 2 10 4 10 3 0 8 -4 11 -10z m2818 -57 c-13 -2 -33
-2 -45 0 -13 2 -3 4 22 4 25 0 35 -2 23 -4z m-2840 -18 c-3 -9 -8 -14 -10 -11
-3 3 -2 9 2 15 9 16 15 13 8 -4z m3097 -25 c0 -5 -18 -10 -40 -10 -22 0 -40 5
-40 10 0 6 18 10 40 10 22 0 40 -4 40 -10z m-3055 -28 c-3 -3 -11 0 -18 7 -9
10 -8 11 6 5 10 -3 15 -9 12 -12z m2475 -12 c0 -5 -2 -10 -4 -10 -3 0 -8 5
-11 10 -3 6 -1 10 4 10 6 0 11 -4 11 -10z m1034 -45 c-4 -8 -8 -15 -10 -15 -2
0 -4 7 -4 15 0 8 4 15 10 15 5 0 7 -7 4 -15z m-3558 -51 c-3 -7 -1 -16 4 -19
6 -4 10 -11 10 -18 0 -8 -4 -7 -12 1 -14 14 -19 64 -5 55 4 -3 6 -11 3 -19z
m3407 19 c-13 -2 -33 -2 -45 0 -13 2 -3 4 22 4 25 0 35 -2 23 -4z m110 -18
c-3 -9 -8 -14 -10 -11 -3 3 -2 9 2 15 9 16 15 13 8 -4z m41 0 c-4 -8 -7 -15
-9 -15 -2 0 -5 7 -9 15 -3 9 0 15 9 15 9 0 12 -6 9 -15z m-3524 -32 c-11 -17
-11 -17 -6 0 3 10 6 24 7 30 0 9 2 9 5 0 3 -7 0 -20 -6 -30z m3491 -1 c-6 -12
-11 -23 -11 -26 0 -12 25 -1 32 14 6 11 7 10 5 -5 -2 -11 -9 -19 -15 -17 -7 1
-12 -6 -13 -15 0 -13 -3 -11 -10 7 -7 17 -6 31 2 47 7 13 14 21 16 19 3 -2 0
-13 -6 -24z m-3521 -72 c0 -5 -5 -10 -11 -10 -5 0 -7 5 -4 10 3 6 8 10 11 10
2 0 4 -4 4 -10z m33 -30 c-7 -28 -13 -25 -13 6 0 14 4 23 9 20 5 -3 7 -15 4
-26z m3483 -8 c-17 -16 -18 -16 -5 5 7 12 15 20 18 17 3 -2 -3 -12 -13 -22z
m-3511 -43 c-2 -33 -6 -63 -9 -66 -3 -4 -6 -2 -7 3 0 5 -2 24 -3 41 -2 19 0
30 6 27 5 -4 9 2 8 12 -3 25 -1 44 4 44 2 0 3 -27 1 -61z m16 -16 c-12 -20
-14 -14 -5 12 4 9 9 14 11 11 3 -2 0 -13 -6 -23z m-231 -53 c-8 -5 -19 -10
-25 -10 -5 0 -3 5 5 10 8 5 20 10 25 10 6 0 3 -5 -5 -10z m3691 -37 c-12 -20
-14 -14 -5 12 4 9 9 14 11 11 3 -2 0 -13 -6 -23z m-4965 -25 c4 -7 3 -8 -4 -4
-7 4 -12 2 -12 -5 0 -7 -3 -10 -6 -6 -6 5 3 27 11 27 2 0 7 -5 11 -12z m1105
-8 c-13 -11 -28 -20 -33 -20 -6 0 0 9 13 20 13 10 29 19 34 19 6 0 -1 -9 -14
-19z m339 9 c0 4 7 8 16 8 15 0 15 -1 0 -12 -8 -7 -13 -14 -11 -17 3 -3 -6
-25 -20 -49 -13 -24 -25 -36 -25 -27 0 9 -5 20 -12 24 -7 5 -9 2 -6 -7 4 -11
-6 -19 -36 -28 -22 -7 -72 -27 -111 -45 -38 -18 -87 -38 -107 -45 -36 -12 -52
-31 -27 -31 23 0 -11 -28 -41 -34 -17 -3 -49 -15 -72 -26 -23 -11 -43 -18 -45
-16 -7 6 23 22 77 40 69 24 84 36 42 36 -18 0 -32 -4 -32 -9 0 -5 -17 -15 -37
-22 -21 -7 -69 -27 -108 -44 -38 -18 -87 -39 -107 -46 -35 -12 -43 -20 -35
-34 4 -10 -66 -46 -82 -42 -11 3 -10 5 5 6 12 0 27 8 34 16 18 22 -11 20 -60
-5 -22 -11 -52 -20 -67 -21 -15 0 -22 -3 -15 -6 21 -8 13 -25 -9 -18 -15 5
-19 4 -14 -5 6 -9 3 -9 -12 -1 -11 6 -23 7 -27 4 -3 -3 -6 -1 -6 6 0 8 7 10
21 6 15 -5 19 -4 15 4 -4 6 -15 11 -24 12 -11 0 -12 3 -4 6 22 9 13 25 -10 18
-18 -5 -20 -4 -7 4 8 6 25 7 37 4 18 -4 20 -8 11 -19 -13 -15 -6 -17 29 -8 19
6 20 8 7 18 -12 9 -9 11 20 14 44 3 86 28 78 48 -3 9 2 14 17 14 12 0 18 -4
15 -10 -7 -11 43 8 59 22 6 4 22 8 37 8 15 0 29 6 32 14 3 7 25 18 50 24 24 7
50 18 57 27 7 8 20 15 29 15 9 0 31 9 49 20 18 11 41 20 51 20 10 0 30 9 44
20 14 11 38 20 54 20 15 0 39 9 53 20 14 11 28 20 33 20 4 0 26 9 50 19 23 11
53 21 67 23 20 2 24 8 22 28 -2 20 0 22 8 10 8 -12 10 -11 10 8 0 15 -4 21
-12 16 -7 -4 -8 -3 -4 4 4 8 15 8 31 2 14 -5 25 -6 25 -1z m3480 -24 c0 -5 -5
-3 -10 5 -5 8 -10 20 -10 25 0 6 5 3 10 -5 5 -8 10 -19 10 -25z m-3595 -35
c-3 -5 -10 -10 -16 -10 -5 0 -9 5 -9 10 0 6 7 10 16 10 8 0 12 -4 9 -10z
m-395 -25 c-7 -8 -17 -15 -22 -15 -6 0 -5 7 2 15 7 8 17 15 22 15 6 0 5 -7 -2
-15z m-896 -3 c3 -5 -1 -9 -9 -9 -8 0 -12 4 -9 9 3 4 7 8 9 8 2 0 6 -4 9 -8z
m1213 -8 c-3 -3 -12 -4 -19 -1 -8 3 -5 6 6 6 11 1 17 -2 13 -5z m-1184 -19
c-3 -9 -8 -14 -10 -11 -3 3 -2 9 2 15 9 16 15 13 8 -4z m1107 -5 c-19 -13 -30
-13 -30 0 0 6 10 10 23 10 18 0 19 -2 7 -10z m216 -2 c4 -7 3 -8 -5 -4 -6 4
-18 2 -26 -4 -17 -14 -21 -35 -5 -25 6 3 10 1 10 -4 0 -6 -9 -16 -20 -23 -11
-7 -20 -19 -20 -26 0 -7 -13 -20 -30 -31 -16 -10 -27 -21 -22 -26 4 -5 1 -5
-6 -1 -7 4 -10 11 -7 16 3 4 -1 10 -9 13 -14 6 -16 -9 -4 -29 10 -15 -31 -57
-49 -50 -8 3 -11 1 -8 -4 7 -12 -39 -24 -57 -15 -7 3 -6 0 3 -7 15 -12 14 -15
-5 -29 -11 -9 -26 -14 -33 -12 -14 5 -6 33 9 33 6 0 7 -8 3 -17 -5 -14 -4 -15
6 -6 9 9 9 15 0 26 -9 11 -8 17 5 28 11 9 17 10 23 1 4 -7 12 -8 21 -2 13 8
12 10 -2 10 -10 0 -18 5 -18 10 0 6 20 10 44 10 44 0 44 0 41 34 -3 31 0 35
42 56 31 15 42 25 34 33 -7 7 -18 5 -36 -7 -14 -10 -34 -15 -43 -13 -13 4 -12
5 4 6 12 0 27 8 34 16 7 9 20 14 29 13 9 -2 30 7 45 20 32 25 42 27 52 10z
m-626 -32 c0 -3 -4 -8 -10 -11 -5 -3 -10 -1 -10 4 0 6 5 11 10 11 6 0 10 -2
10 -4z m325 -6 c-3 -5 -10 -10 -16 -10 -5 0 -9 5 -9 10 0 6 7 10 16 10 8 0 12
-4 9 -10z m-924 -27 c13 -16 12 -17 -3 -4 -10 7 -18 15 -18 17 0 8 8 3 21 -13z
m1015 -24 c-14 -11 -34 -19 -44 -16 -12 2 -8 8 18 19 49 23 57 22 26 -3z
m-1050 -11 l19 -23 -25 20 c-14 11 -27 21 -29 22 -2 2 0 3 6 3 5 0 18 -10 29
-22z m819 2 c-3 -5 -15 -10 -26 -10 -10 0 -19 5 -19 10 0 6 12 10 26 10 14 0
23 -4 19 -10z m-685 -40 c0 -6 -9 -2 -20 7 -11 10 -20 19 -20 21 0 1 9 -2 20
-8 11 -6 20 -15 20 -20z m930 21 c0 -5 -7 -12 -16 -15 -14 -5 -15 -4 -4 9 14
17 20 19 20 6z m-1008 -28 c-1 -4 7 -17 16 -28 17 -20 17 -20 -4 -2 -11 9 -21
24 -21 32 0 8 2 13 5 11 2 -2 4 -8 4 -13z m48 7 c8 -5 11 -10 5 -10 -5 0 -17
5 -25 10 -8 5 -10 10 -5 10 6 0 17 -5 25 -10z m910 -10 c0 -5 -7 -10 -15 -10
-8 0 -22 -8 -32 -18 -13 -13 -25 -17 -43 -12 l-25 7 30 12 c17 6 39 15 50 20
27 13 35 13 35 1z m-910 -31 c15 -28 5 -23 -15 7 -9 15 -12 23 -6 20 6 -4 16
-16 21 -27z m-2165 2 c-9 -8 -36 -10 -30 -2 2 4 11 8 20 8 8 0 13 -3 10 -6z
m2700 -1 c-3 -5 -10 -10 -16 -10 -5 0 -9 5 -9 10 0 6 7 10 16 10 8 0 12 -4 9
-10z m4109 -8 c3 -5 -1 -9 -9 -9 -8 0 -12 4 -9 9 3 4 7 8 9 8 2 0 6 -4 9 -8z
m-4545 -20 c10 -10 7 -12 -16 -7 -23 5 -25 4 -13 -5 13 -10 13 -11 -2 -6 -10
3 -25 9 -35 13 -12 5 -14 3 -8 -7 5 -9 4 -11 -4 -6 -18 12 -2 28 21 20 11 -3
18 -2 15 3 -9 14 28 10 42 -5z m596 9 c-12 -10 -75 -32 -75 -26 0 2 12 11 28
19 30 17 62 22 47 7z m90 -1 c-3 -5 -11 -10 -16 -10 -6 0 -7 5 -4 10 3 6 11
10 16 10 6 0 7 -4 4 -10z m77 -20 c-20 -36 -27 -38 -29 -8 -2 16 0 19 6 10 6
-10 10 -8 14 7 3 12 10 21 16 21 5 0 3 -13 -7 -30z m-112 3 c0 -10 -99 -53
-119 -53 -26 0 5 22 56 40 59 21 63 22 63 13z m-647 -28 c4 -8 3 -16 -1 -19
-4 -3 -9 4 -9 15 -2 23 3 25 10 4z m277 5 c-19 -13 -30 -13 -30 0 0 6 10 10
23 10 18 0 19 -2 7 -10z m213 3 c-12 -2 -27 -11 -33 -19 -7 -8 -18 -14 -24
-14 -6 1 0 10 13 20 13 11 33 19 45 19 l21 -2 -22 -4z m246 -22 c7 -5 10 -14
7 -20 -4 -6 -13 -8 -19 -4 -7 4 -25 8 -41 8 -16 0 -31 6 -34 13 -4 14 65 17
87 3z m-245 -24 c-2 -7 -21 -19 -42 -26 -65 -23 -102 -43 -96 -52 3 -5 1 -9
-5 -9 -5 0 -11 6 -14 13 -4 14 45 47 72 47 10 0 29 9 42 20 28 22 51 26 43 7z
m151 3 c18 -8 17 -9 -7 -9 -16 -1 -28 -6 -28 -11 0 -13 52 -1 62 14 4 6 10 7
14 4 9 -10 -17 -32 -41 -36 -11 -2 -24 -8 -29 -13 -17 -16 -29 -10 -23 11 3
11 2 20 -3 20 -4 0 -11 -11 -14 -25 -7 -26 -7 -26 -93 -30 -21 -1 -52 -5 -70
-9 -20 -5 -34 -3 -39 5 -5 9 -1 11 14 7 15 -4 22 -2 22 8 0 10 12 14 40 14 22
0 40 5 40 10 0 6 18 10 40 10 30 0 40 4 40 16 0 11 6 14 20 9 11 -4 20 -2 20
4 0 13 7 13 35 1z m2786 -23 c-10 -9 -11 -8 -5 6 3 10 9 15 12 12 3 -3 0 -11
-7 -18z m-3286 -7 c4 -6 -6 -10 -22 -9 -25 0 -26 1 -8 9 11 5 21 9 22 9 1 1 5
-3 8 -9z m147 -16 c-12 -8 -20 -19 -18 -23 3 -4 -1 -8 -9 -8 -23 0 -18 23 8
35 33 16 44 14 19 -4z m-2296 -66 c4 4 2 -1 -5 -11 -15 -19 -24 -16 -27 9 -2
11 1 12 10 5 7 -6 17 -7 22 -3z m6466 -100 c-7 -7 -12 -8 -12 -2 0 14 12 26
19 19 2 -3 -1 -11 -7 -17z m-6203 -62 c9 -11 9 -16 -1 -22 -7 -4 -10 -4 -6 1
4 4 3 14 -3 22 -6 7 -9 13 -6 13 2 0 10 -6 16 -14z m6181 -21 c-7 -8 -9 -15
-5 -15 4 0 2 -7 -5 -15 -6 -8 -9 -19 -5 -25 3 -5 1 -10 -5 -10 -7 0 -10 -7 -6
-15 4 -13 -2 -42 -21 -95 -3 -8 -7 -26 -9 -39 -2 -13 -7 -27 -13 -30 -5 -4 -9
-13 -9 -21 2 -32 -2 -51 -11 -46 -5 3 -11 -3 -14 -14 -3 -13 -1 -18 6 -13 7 4
8 0 3 -13 -4 -10 -9 -27 -11 -37 -6 -28 -14 -36 -35 -32 -14 3 -17 -1 -13 -13
4 -10 8 -12 11 -4 2 7 8 10 13 6 15 -9 10 -20 -11 -21 -11 -1 -20 3 -20 8 0 6
-4 7 -10 4 -5 -3 -10 -1 -10 6 0 7 -2 10 -5 7 -10 -9 7 -38 18 -31 6 4 8 0 4
-10 -3 -9 -2 -19 3 -22 15 -10 12 -25 -6 -25 -8 0 -12 5 -9 10 3 6 4 10 1 10
-17 0 -13 -22 6 -29 15 -7 17 -10 7 -10 -11 -1 -16 -10 -16 -26 0 -34 -43
-136 -55 -129 -5 3 -9 0 -7 -7 3 -28 -1 -40 -13 -33 -7 5 -9 2 -5 -8 5 -14 1
-15 -30 -6 -19 5 -36 8 -38 6 -7 -7 8 -88 16 -88 5 0 7 6 5 13 -13 40 -15 67
-6 67 5 0 10 -12 10 -26 0 -14 4 -23 10 -19 5 3 7 12 3 20 -3 8 -1 15 4 15 21
0 20 -14 -5 -55 -20 -33 -29 -41 -39 -33 -7 5 -11 14 -8 18 3 5 1 12 -5 15 -7
4 -10 -3 -7 -20 2 -15 10 -31 18 -36 10 -6 10 -9 2 -9 -7 0 -12 -6 -10 -12 1
-7 -7 -13 -18 -13 -11 0 -21 -8 -23 -18 -4 -21 -10 -21 -36 0 -16 13 -15 11 3
-9 13 -15 28 -25 32 -22 5 3 6 -2 3 -10 -3 -9 -10 -13 -15 -10 -5 3 -9 -1 -9
-8 0 -18 -50 -91 -58 -84 -3 3 5 18 19 33 13 15 16 21 6 13 -15 -11 -20 -11
-27 -1 -5 8 -10 9 -14 3 -3 -6 0 -12 6 -15 10 -3 10 -8 -1 -21 -11 -13 -12
-19 -3 -25 9 -5 6 -13 -9 -27 -13 -10 -19 -13 -15 -6 4 7 2 12 -5 12 -6 0 -9
-8 -6 -20 5 -21 -38 -65 -54 -54 -16 10 -9 22 10 17 10 -3 21 -1 24 5 4 5 -9
8 -27 8 -29 -1 -33 -4 -25 -18 6 -11 5 -18 -4 -22 -7 -3 -6 -5 3 -3 25 3 27
-17 3 -28 -13 -5 -23 -16 -23 -23 0 -7 -4 -10 -10 -7 -5 3 -10 1 -10 -5 0 -15
-26 -41 -33 -34 -10 10 5 34 17 27 6 -4 4 2 -4 13 -8 10 -15 21 -17 23 -2 3
-3 -14 -4 -59 0 -25 -15 -50 -30 -50 -5 0 -6 8 -3 18 5 14 4 14 -4 2 -6 -8 -9
-17 -6 -21 8 -13 -17 -22 -29 -10 -8 8 -8 11 1 11 17 0 15 17 -3 24 -16 6 -16
-18 0 -43 5 -10 4 -16 -3 -19 -7 -2 -10 -8 -7 -12 3 -5 -4 -7 -17 -5 -12 3
-25 -1 -30 -8 -4 -6 -13 -12 -19 -12 -7 0 -13 -8 -15 -18 -1 -9 2 -15 7 -11 5
3 6 10 3 16 -4 6 -2 8 3 5 6 -4 16 0 23 8 7 8 17 12 22 9 5 -4 -3 -15 -19 -25
-67 -46 -92 -67 -85 -74 4 -5 1 -5 -6 -1 -7 4 -15 1 -18 -8 -3 -8 -12 -17 -20
-20 -9 -3 -12 -1 -9 4 3 6 1 10 -4 10 -10 0 -15 -14 -12 -32 0 -4 -6 -5 -14
-1 -12 4 -13 9 -4 19 8 10 8 14 1 14 -14 0 -31 -31 -25 -47 3 -7 -3 -13 -12
-13 -9 0 -14 -4 -11 -8 2 -4 -4 -9 -15 -9 -11 -1 -19 5 -19 14 0 13 -3 13 -15
3 -12 -10 -13 -16 -3 -27 18 -22 -17 -47 -45 -32 -23 13 -39 -4 -29 -30 5 -14
3 -14 -11 -2 -9 7 -14 18 -11 23 4 6 -4 5 -16 -2 -12 -6 -31 -10 -41 -7 -26 7
-24 -2 4 -12 14 -5 25 -4 30 3 5 8 10 7 16 -4 7 -10 4 -18 -11 -28 -17 -12
-21 -13 -29 -1 -7 12 -10 12 -21 0 -10 -10 -10 -12 0 -7 6 4 12 3 12 -2 0 -5
-12 -15 -27 -23 -38 -18 -51 -23 -33 -10 11 8 8 10 -15 9 -50 -1 -66 2 -61 10
2 4 -4 8 -14 8 -10 0 -18 -3 -18 -6 0 -3 -1 -7 -2 -10 -1 -3 -3 -17 -4 -32 -2
-22 1 -25 12 -16 10 8 10 13 1 18 -6 4 -8 13 -5 19 11 18 26 13 19 -6 -5 -14
-4 -16 8 -7 20 15 61 16 56 1 -2 -7 -16 -11 -30 -10 -19 1 -27 -3 -27 -14 0
-9 -2 -14 -6 -11 -3 3 -31 -7 -62 -22 -53 -25 -103 -43 -127 -45 -5 0 -16 -4
-23 -9 -7 -4 -23 -10 -35 -12 -50 -8 -83 -17 -94 -26 -7 -5 -22 -7 -34 -3 -14
5 -19 4 -15 -4 5 -7 -3 -10 -23 -7 -17 2 -28 -1 -25 -5 3 -5 -2 -9 -10 -9 -9
0 -16 6 -16 13 0 8 -3 8 -9 -2 -5 -8 -18 -16 -28 -18 -73 -11 -114 -16 -155
-16 -27 0 -48 -4 -48 -9 0 -4 -5 -8 -11 -8 -5 0 -7 6 -3 13 6 9 4 9 -8 -1 -13
-10 -21 -10 -43 0 -17 7 -29 8 -33 2 -4 -5 -25 -11 -47 -12 -31 -1 -36 0 -20
7 16 8 17 10 3 10 -9 1 -20 -3 -23 -9 -3 -5 -13 -10 -21 -10 -8 0 -12 5 -9 10
3 6 2 10 -4 10 -5 0 -13 -4 -16 -10 -9 -15 -68 -13 -59 3 6 10 4 10 -7 0 -14
-14 -73 -18 -66 -5 3 4 -31 8 -76 9 -52 2 -83 7 -89 15 -4 7 -8 9 -8 5 0 -5
-5 -5 -12 -1 -8 5 -7 9 5 13 13 5 11 8 -9 18 -22 10 -24 10 -14 -3 16 -18 0
-18 -27 1 -12 8 -24 12 -27 7 -2 -4 9 -14 25 -21 17 -7 28 -15 25 -18 -2 -3
-10 -1 -17 3 -8 4 -29 9 -49 11 -19 2 -53 9 -75 15 -35 9 -37 12 -20 19 14 7
11 7 -12 3 -42 -7 -101 12 -105 34 -2 11 -14 17 -38 18 -19 1 -29 -1 -22 -3 6
-3 12 -9 12 -15 0 -7 -5 -6 -14 1 -8 7 -29 13 -46 13 -17 1 -28 4 -23 7 12 9
15 41 3 41 -5 0 -9 -6 -7 -12 1 -9 -11 -13 -35 -14 -43 -1 -50 11 -13 20 21 5
25 12 25 46 0 22 5 40 10 40 6 0 10 18 10 40 0 22 -4 40 -10 40 -5 0 -10 -18
-10 -40 0 -29 -4 -40 -15 -40 -11 0 -15 -11 -15 -38 0 -31 -5 -41 -26 -52 -15
-9 -28 -10 -32 -5 -4 6 -23 12 -42 13 -19 2 -36 8 -38 12 -2 5 -10 6 -18 3
-10 -4 -14 3 -14 22 0 22 4 26 20 22 11 -3 17 -1 14 4 -7 11 -73 1 -92 -14 -7
-5 -16 -7 -19 -3 -4 4 -1 11 7 16 9 6 10 10 3 10 -6 0 -18 -7 -27 -15 -14 -14
-17 -14 -28 4 -9 15 -15 17 -25 9 -8 -6 -13 -7 -13 -1 0 6 -10 9 -23 8 -21 -3
-23 1 -23 39 l1 41 -42 1 c-41 1 -51 -4 -36 -19 3 -4 12 -2 18 3 31 25 68 -23
38 -49 -16 -15 -16 -15 -4 2 8 9 10 21 6 25 -4 4 -10 2 -12 -5 -5 -13 -29 -4
-65 26 -18 14 -53 8 -43 -8 3 -6 13 -7 22 -4 9 4 19 -1 25 -11 5 -9 13 -14 17
-11 5 2 15 -3 22 -12 12 -14 12 -16 -1 -8 -8 5 -27 10 -44 12 -16 2 -34 8 -41
13 -7 5 -15 7 -18 3 -4 -3 -7 -1 -7 6 0 8 -6 11 -16 7 -14 -5 -74 18 -74 30 0
2 9 0 21 -6 11 -7 27 -9 35 -6 8 3 13 2 10 -3 -4 -5 3 -7 14 -4 29 8 25 19 -7
20 -16 0 -34 1 -40 2 -10 1 -13 40 -13 161 l0 160 40 0 40 0 0 160 0 160 41 0
41 0 -4 134 c-2 89 0 132 7 127 6 -5 24 -11 40 -14 29 -6 29 -6 5 5 -57 24
-92 44 -97 52 -4 5 2 6 13 2 10 -4 24 -8 29 -9 6 -1 13 -6 17 -12 4 -5 22 -10
40 -10 20 -1 32 -6 31 -13 -3 -13 1 -14 73 -16 34 -1 57 -8 69 -20 14 -14 20
-15 26 -5 6 10 10 9 15 -5 4 -10 20 -24 37 -31 l30 -12 -47 -1 c-25 -1 -46 3
-46 8 0 5 8 7 18 3 13 -4 14 -3 6 6 -13 14 -46 4 -41 -13 4 -13 69 -20 106
-11 19 5 22 8 11 15 -8 5 -11 12 -8 15 4 4 18 -1 32 -12 17 -13 26 -30 29 -58
3 -34 4 -33 3 9 0 33 4 51 14 54 9 3 11 -1 7 -12 -7 -17 8 -22 18 -6 3 6 11
10 16 10 6 0 7 -5 3 -12 -5 -8 -2 -9 10 -5 9 4 41 -2 71 -12 29 -11 56 -17 58
-15 2 3 16 0 31 -5 30 -12 36 -36 7 -28 -11 3 -22 -1 -24 -8 -4 -9 3 -10 26
-5 18 4 31 12 29 18 -1 7 2 12 8 12 13 0 13 -23 -1 -37 -6 -6 -9 -28 -6 -49
l4 -39 1 43 c2 31 6 42 18 42 10 0 14 6 10 15 -3 9 0 15 8 15 8 0 16 -7 20
-15 3 -8 10 -15 16 -15 6 0 8 5 5 11 -4 5 8 4 27 -4 18 -8 40 -12 48 -10 11 3
10 0 -3 -10 -16 -14 -16 -14 8 -14 13 0 22 3 19 8 -7 13 1 11 42 -6 20 -8 41
-12 47 -8 5 3 7 1 3 -5 -3 -6 -2 -13 3 -16 5 -4 12 -2 15 3 4 6 20 6 44 0 51
-13 214 -60 232 -67 8 -3 18 -6 23 -7 4 -2 10 -4 15 -5 4 -1 10 -2 15 -1 4 1
26 -4 50 -9 107 -27 238 -50 319 -56 48 -4 88 -10 88 -13 0 -11 275 7 410 26
19 3 47 6 62 7 14 0 24 4 22 7 -2 4 15 10 39 13 23 4 73 16 112 27 53 16 73
19 87 10 25 -16 35 -14 13 3 -18 13 -18 14 4 25 19 10 26 10 40 -3 10 -9 22
-16 27 -16 5 0 1 5 -9 11 -18 10 -18 12 2 26 13 8 31 12 44 8 16 -5 18 -4 8 3
-11 8 -6 14 24 26 20 9 44 16 52 16 8 0 12 4 9 9 -4 5 4 7 16 4 13 -3 20 -2
16 2 -5 5 6 17 22 27 39 23 57 24 39 1 -13 -16 -12 -17 4 -4 14 11 15 16 5 29
-11 13 -10 15 5 9 9 -3 17 -2 17 4 0 6 6 9 12 7 7 -3 19 2 27 9 7 8 20 12 29
8 12 -4 13 -3 2 10 -7 8 -11 15 -9 16 2 0 13 2 24 4 11 2 26 12 33 22 7 10 18
17 23 16 5 -2 9 2 9 8 0 6 9 8 23 4 17 -5 19 -4 7 4 -10 8 -12 13 -4 19 60 41
126 103 207 191 29 32 53 51 62 47 9 -3 12 0 8 11 -3 8 -2 18 3 22 23 16 94
111 94 125 0 9 7 16 15 16 8 0 15 7 15 15 0 8 4 15 9 15 5 0 14 14 20 31 7 20
16 29 24 26 9 -3 20 8 31 29 22 48 19 57 -5 14 -15 -27 -18 -29 -13 -10 8 34
33 72 43 66 4 -3 7 10 6 29 0 18 3 31 7 29 4 -3 8 2 8 11 0 19 31 68 38 61 3
-3 -1 -12 -8 -21z m-5485 -165 c3 -6 -1 -7 -9 -4 -18 7 -21 14 -7 14 6 0 13
-4 16 -10z m90 -30 c3 -6 -1 -7 -9 -4 -18 7 -21 14 -7 14 6 0 13 -4 16 -10z
m190 -50 c3 -5 1 -10 -4 -10 -6 0 -11 5 -11 10 0 6 2 10 4 10 3 0 8 -4 11 -10z
m457 -114 c3 2 10 -1 16 -9 9 -10 4 -12 -24 -12 -31 1 -64 15 -35 15 7 0 9 5
5 11 -5 8 -1 8 13 0 11 -6 23 -8 25 -5z m-2577 -5 c3 -5 0 -13 -6 -17 -7 -4
-9 -3 -5 4 3 5 0 13 -6 15 -9 4 -10 6 -1 6 6 1 14 -3 18 -8z m2568 -33 c9 8
17 8 27 0 12 -8 12 -9 -2 -4 -10 3 -20 1 -23 -3 -6 -10 -65 -9 -65 2 0 4 0 12
0 17 0 6 11 3 25 -6 18 -12 29 -13 38 -6z m287 -49 c0 -5 -4 -9 -8 -9 -5 0 -9
7 -9 15 0 8 4 12 9 9 4 -3 8 -9 8 -15z m50 -14 c0 -2 -7 -5 -15 -9 -9 -3 -15
0 -15 9 0 9 6 12 15 9 8 -4 15 -7 15 -9z m80 -15 c0 7 3 11 6 7 3 -3 3 -10 0
-16 -8 -12 -46 7 -46 23 0 5 9 1 20 -9 14 -13 20 -14 20 -5z m4210 6 c0 -3 -4
-8 -10 -11 -5 -3 -10 -1 -10 4 0 6 5 11 10 11 6 0 10 -2 10 -4z m-4280 -10 c0
-3 -4 -8 -10 -11 -5 -3 -10 -1 -10 4 0 6 5 11 10 11 6 0 10 -2 10 -4z m115 -6
c-3 -5 -11 -10 -16 -10 -6 0 -7 5 -4 10 3 6 11 10 16 10 6 0 7 -4 4 -10z m90
-20 c4 -6 10 -8 15 -5 4 3 11 -2 14 -11 4 -10 13 -13 27 -9 15 5 19 4 15 -4
-9 -14 -33 -14 -49 -1 -7 6 -21 17 -32 25 -11 8 -15 15 -8 15 6 0 15 -5 18
-10z m-35 -10 c0 -5 -2 -10 -4 -10 -3 0 -8 5 -11 10 -3 6 -1 10 4 10 6 0 11
-4 11 -10z m234 -60 c4 0 4 5 1 10 -3 6 -3 10 2 10 11 0 3 -174 -8 -178 -5 -2
-10 -40 -11 -85 -1 -46 -3 -63 -5 -39 -3 28 -9 42 -19 42 -11 0 -14 -17 -14
-80 0 -47 -4 -80 -10 -80 -6 0 -10 -33 -10 -80 0 -44 -4 -80 -9 -80 -6 0 -12
-19 -14 -42 -2 -24 -4 66 -5 200 l-2 242 40 0 40 0 0 80 c0 45 -4 80 -10 80
-5 0 -7 7 -3 16 6 16 7 16 18 0 7 -9 15 -16 19 -16z m-109 10 c3 -6 -1 -7 -9
-4 -18 7 -21 14 -7 14 6 0 13 -4 16 -10z m245 -31 c19 0 29 -3 23 -6 -7 -2
-13 -11 -13 -19 0 -9 -4 -12 -10 -9 -5 3 -10 -1 -10 -9 0 -22 17 -20 25 3 3
11 13 22 22 25 18 7 41 -9 29 -21 -4 -4 -11 -1 -16 7 -9 14 -12 11 -9 -6 0 -4
-5 -11 -13 -16 -9 -6 -5 -8 12 -4 14 3 19 3 13 0 -7 -3 -13 -23 -13 -45 0 -21
-4 -39 -10 -39 -6 0 -10 -33 -10 -80 0 -73 -2 -80 -20 -80 -17 0 -20 -7 -20
-40 0 -22 -4 -40 -10 -40 -5 0 -10 -18 -10 -40 0 -22 -4 -40 -10 -40 -6 0 -10
-33 -10 -80 0 -73 -2 -80 -20 -80 -18 0 -20 -7 -20 -80 0 -47 -4 -80 -10 -80
-5 0 -10 -18 -10 -40 0 -22 -4 -40 -9 -40 -6 0 -11 -19 -13 -42 -3 -43 -3 -43
-42 -43 -21 0 -45 5 -52 13 -8 7 -22 11 -31 8 -10 -3 -25 -1 -33 5 -12 8 -9 9
9 4 17 -5 21 -4 16 5 -5 9 -2 10 12 6 18 -6 19 -1 17 101 -1 60 0 89 3 66 3
-29 9 -43 19 -43 11 0 14 17 14 80 0 47 4 80 10 80 6 0 10 33 10 80 0 47 4 80
10 80 6 0 10 18 10 40 0 33 3 40 20 40 17 0 20 7 20 40 0 22 5 40 10 40 6 0
10 33 10 80 0 44 4 80 9 80 5 0 12 21 15 48 3 26 6 53 7 59 2 8 11 10 26 7 12
-4 31 -3 40 1 15 7 13 9 -11 14 -16 3 -31 13 -34 21 -4 12 -2 13 9 3 7 -7 29
-13 49 -14z m147 -43 c4 -5 1 -7 -7 -4 -8 3 -24 2 -36 -3 -13 -5 -21 -3 -21 4
0 14 51 16 64 3z m43 -12 c0 -2 -7 -4 -15 -4 -8 0 -15 4 -15 10 0 5 7 7 15 4
8 -4 15 -8 15 -10z m50 -16 c0 -5 5 -6 10 -3 6 3 10 -1 10 -10 0 -9 -5 -13
-10 -10 -6 4 -9 -2 -7 -14 4 -29 17 -38 17 -13 0 30 35 30 37 0 2 -18 0 -20
-7 -8 -9 13 -11 13 -20 0 -5 -8 -10 -32 -10 -52 0 -21 -4 -38 -10 -38 -5 0
-10 18 -10 40 0 22 -4 40 -10 40 -6 0 -10 -33 -10 -80 0 -47 -4 -80 -10 -80
-6 0 -10 -33 -10 -80 0 -47 -4 -80 -10 -80 -5 0 -10 -18 -10 -40 0 -33 -3 -40
-20 -40 -17 0 -20 -7 -20 -40 0 -22 -4 -40 -10 -40 -6 0 -10 -33 -10 -80 0
-47 -4 -80 -10 -80 -5 0 -10 -18 -10 -40 0 -33 -3 -40 -20 -40 -17 0 -20 -7
-20 -39 0 -22 5 -43 10 -46 17 -10 -7 -34 -28 -28 -10 2 -28 0 -42 -6 -21 -8
-16 -9 28 -7 28 1 52 0 52 -3 0 -13 -39 -30 -45 -21 -3 6 -19 10 -35 10 -35 0
-48 16 -20 25 11 3 20 11 20 16 0 6 -7 6 -19 -1 -25 -13 -34 -13 -26 0 3 6 -1
13 -9 16 -11 4 -16 19 -16 45 0 53 18 50 22 -3 3 -38 6 -43 25 -40 12 2 24 -2
28 -8 3 -5 21 -9 38 -9 24 1 26 3 10 6 -20 4 -23 11 -23 49 0 24 5 44 10 44 6
0 10 33 10 80 0 47 4 80 10 80 6 0 11 36 12 83 l2 82 3 -82 c3 -65 7 -83 18
-83 12 0 15 17 15 80 0 47 4 80 10 80 6 0 10 33 10 80 0 47 4 80 10 80 6 0 11
36 12 83 l2 82 3 -82 c3 -65 7 -83 18 -83 12 0 15 21 15 120 0 81 4 120 11
120 7 0 10 16 8 43 -4 38 -2 43 14 39 9 -2 17 -9 17 -14z m2157 -25 c0 -9 -4
-10 -14 -2 -7 6 -13 12 -13 14 0 1 6 2 13 2 8 0 14 -6 14 -14z m-1947 -23 c12
-8 11 -10 -7 -10 -13 0 -23 5 -23 10 0 13 11 13 30 0z m-1040 -60 c0 -22 -4
-40 -10 -40 -5 0 -10 18 -10 40 0 22 5 40 10 40 6 0 10 -18 10 -40z m700 0 c0
-22 -4 -40 -10 -40 -6 0 -11 -35 -12 -82 -1 -46 -3 -64 -5 -40 -3 28 -9 42
-19 42 -10 0 -14 12 -14 40 0 33 3 40 20 40 17 0 20 7 20 40 0 22 5 40 10 40
6 0 10 -18 10 -40z m520 5 c7 -8 8 -15 2 -15 -5 0 -15 7 -22 15 -7 8 -8 15 -2
15 5 0 15 -7 22 -15z m75 -15 c3 -5 1 -10 -4 -10 -6 0 -11 5 -11 10 0 6 2 10
4 10 3 0 8 -4 11 -10z m-1315 -150 c0 -29 -4 -40 -15 -40 -11 0 -15 11 -15 40
0 29 4 40 15 40 11 0 15 -11 15 -40z m4125 21 c3 -5 1 -12 -5 -16 -5 -3 -10 1
-10 9 0 18 6 21 15 7z m-4535 -181 c0 -22 -4 -40 -10 -40 -5 0 -10 18 -10 40
0 22 5 40 10 40 6 0 10 -18 10 -40z m1050 0 c0 -22 -4 -40 -10 -40 -5 0 -10
18 -10 40 0 22 5 40 10 40 6 0 10 -18 10 -40z m-1803 4 c-3 -3 -12 -4 -19 -1
-8 3 -5 6 6 6 11 1 17 -2 13 -5z m1220 -106 c-2 -13 -4 -3 -4 22 0 25 2 35 4
23 2 -13 2 -33 0 -45z m283 -18 c0 -47 -4 -80 -10 -80 -6 0 -10 -33 -10 -80 0
-64 -3 -80 -15 -80 -13 0 -15 24 -15 160 l0 160 25 0 c25 0 25 -1 25 -80z
m275 4 c4 -41 4 -78 1 -81 -3 -4 -6 12 -6 35 0 31 -4 42 -15 42 -11 0 -15 11
-15 40 0 27 4 40 14 40 10 0 16 -21 21 -76z m-1470 28 c-3 -3 -11 0 -18 7 -9
10 -8 11 6 5 10 -3 15 -9 12 -12z m775 -72 c0 -29 -4 -40 -15 -40 -11 0 -15
11 -15 40 0 29 4 40 15 40 11 0 15 -11 15 -40z m-635 20 c3 -5 2 -10 -4 -10
-5 0 -13 5 -16 10 -3 6 -2 10 4 10 5 0 13 -4 16 -10z m75 -4 c0 -3 -4 -8 -10
-11 -5 -3 -10 -1 -10 4 0 6 5 11 10 11 6 0 10 -2 10 -4z m55 -6 c-3 -5 -11
-10 -16 -10 -6 0 -7 5 -4 10 3 6 11 10 16 10 6 0 7 -4 4 -10z m72 -46 c-3 -3
-12 -4 -19 -1 -8 3 -5 6 6 6 11 1 17 -2 13 -5z m167 -29 c3 -8 1 -15 -4 -15
-6 0 -10 7 -10 15 0 8 2 15 4 15 2 0 6 -7 10 -15z m104 3 c-2 -6 -10 -13 -16
-14 -7 -1 -8 0 -2 3 5 2 8 9 4 14 -3 5 0 9 6 9 7 0 10 -5 8 -12z m8 -56 c-4
-3 -14 2 -24 12 -16 18 -16 18 6 6 13 -6 21 -14 18 -18z m35 10 c-7 -2 -18 1
-23 6 -8 8 -4 9 13 5 13 -4 18 -8 10 -11z m85 -24 c-10 -6 -22 -6 -26 -2 -5 5
3 10 18 11 22 1 24 0 8 -9z m134 -3 c0 -2 -6 -5 -13 -8 -8 -3 -14 1 -14 8 0 7
6 11 14 8 7 -3 13 -6 13 -8z m-35 -25 c3 -6 -1 -10 -10 -10 -9 0 -13 5 -10 10
3 6 -1 10 -10 10 -10 0 -13 -5 -9 -12 4 -7 3 -8 -4 -4 -6 4 -9 13 -6 21 5 11
11 12 24 5 11 -6 22 -15 25 -20z m228 -47 c-7 -2 -19 -2 -25 0 -7 3 -2 5 12 5
14 0 19 -2 13 -5z m126 -22 c-15 -5 -22 6 -14 19 6 9 10 9 16 -1 5 -8 4 -15
-2 -18z m-44 10 c3 -5 0 -13 -6 -17 -8 -5 -9 -3 -4 6 6 10 4 12 -9 7 -10 -4
-15 -3 -11 3 8 13 22 13 30 1z m-45 -17 c0 -2 -11 -3 -24 -2 -14 1 -23 5 -20
9 4 7 44 0 44 -7z m260 -59 c10 -13 9 -15 -11 -14 -13 0 -18 3 -10 6 11 5 11
7 0 14 -8 5 -9 9 -3 9 6 0 17 -7 24 -15z m2931 -42 c13 -16 12 -17 -3 -4 -10
7 -18 15 -18 17 0 8 8 3 21 -13z m-2730 -31 c-7 -2 -18 1 -23 6 -8 8 -4 9 13
5 13 -4 18 -8 10 -11z m2663 -23 c-3 -5 -10 -7 -15 -3 -5 3 -7 10 -3 15 3 5
10 7 15 3 5 -3 7 -10 3 -15z m-2177 -94 c0 -17 0 -17 -22 -9 -13 5 -14 8 -3
15 19 12 25 11 25 -6z m363 -95 c0 -5 -4 -10 -10 -10 -5 0 -10 5 -10 10 0 6 5
10 10 10 6 0 10 -4 10 -10z"/>
<path d="M7205 16260 c3 -5 8 -10 11 -10 2 0 4 5 4 10 0 6 -5 10 -11 10 -5 0
-7 -4 -4 -10z"/>
<path d="M7235 16260 c3 -5 11 -10 16 -10 6 0 7 5 4 10 -3 6 -11 10 -16 10 -6
0 -7 -4 -4 -10z"/>
<path d="M7280 15916 c0 -2 7 -7 16 -10 8 -3 12 -2 9 4 -6 10 -25 14 -25 6z"/>
<path d="M7070 16116 c0 -2 7 -7 16 -10 8 -3 12 -2 9 4 -6 10 -25 14 -25 6z"/>
<path d="M7020 15941 c0 -6 4 -13 10 -16 6 -3 7 1 4 9 -7 18 -14 21 -14 7z"/>
<path d="M7065 15749 c-11 -17 1 -21 15 -4 8 9 8 15 2 15 -6 0 -14 -5 -17 -11z"/>
<path d="M7043 15722 c0 -43 9 -47 37 -17 13 14 19 25 13 25 -6 0 -13 -7 -17
-15 -3 -8 -10 -15 -16 -15 -6 0 -9 3 -7 8 3 4 1 16 -3 27 -6 16 -8 13 -7 -13z"/>
<path d="M6965 15650 c-3 -6 1 -7 9 -4 18 7 21 14 7 14 -6 0 -13 -4 -16 -10z"/>
<path d="M6780 15620 c0 -5 5 -10 11 -10 5 0 7 5 4 10 -3 6 -8 10 -11 10 -2 0
-4 -4 -4 -10z"/>
<path d="M6893 15586 c-6 -8 -9 -17 -6 -20 11 -11 21 -6 26 14 6 23 -3 25 -20
6z"/>
<path d="M6850 15500 c0 -11 5 -20 10 -20 6 0 10 9 10 20 0 11 -4 20 -10 20
-5 0 -10 -9 -10 -20z"/>
<path d="M6810 15450 c0 -11 4 -20 9 -20 5 0 7 9 4 20 -3 11 -7 20 -9 20 -2 0
-4 -9 -4 -20z"/>
<path d="M6730 15452 c0 -5 7 -9 15 -9 8 0 12 4 9 9 -3 4 -9 8 -15 8 -5 0 -9
-4 -9 -8z"/>
<path d="M6736 15325 c-9 -26 -7 -32 5 -12 6 10 9 21 6 23 -2 3 -7 -2 -11 -11z"/>
<path d="M6661 15234 c0 -11 3 -14 6 -6 3 7 2 16 -1 19 -3 4 -6 -2 -5 -13z"/>
<path d="M16040 13100 c0 -5 5 -10 11 -10 5 0 7 5 4 10 -3 6 -8 10 -11 10 -2
0 -4 -4 -4 -10z"/>
<path d="M6040 12835 c0 -5 5 -17 10 -25 5 -8 10 -10 10 -5 0 6 -5 17 -10 25
-5 8 -10 11 -10 5z"/>
<path d="M6011 12814 c0 -11 3 -14 6 -6 3 7 2 16 -1 19 -3 4 -6 -2 -5 -13z"/>
<path d="M6160 12660 c0 -18 7 -20 80 -20 47 0 80 4 80 10 0 6 -18 10 -40 10
-22 0 -40 5 -40 10 0 6 -18 10 -40 10 -33 0 -40 -3 -40 -20z"/>
<path d="M6480 12580 c0 -17 7 -20 40 -20 33 0 40 3 40 20 0 17 -7 20 -40 20
-33 0 -40 -3 -40 -20z"/>
<path d="M5984 12545 c-3 -8 -4 -20 -2 -27 3 -7 7 -1 10 15 6 29 1 36 -8 12z"/>
<path d="M6963 12524 c1 -27 3 -30 18 -21 10 6 15 15 12 20 -3 5 1 13 8 18 11
7 10 9 -3 9 -12 0 -18 -8 -19 -22 -1 -22 -1 -22 -9 2 -8 24 -8 23 -7 -6z"/>
<path d="M6018 12523 c12 -2 32 -2 45 0 12 2 2 4 -23 4 -25 0 -35 -2 -22 -4z"/>
<path d="M6720 12500 c0 -18 7 -20 80 -20 47 0 80 4 80 10 0 6 -18 10 -40 10
-22 0 -40 5 -40 10 0 6 -18 10 -40 10 -33 0 -40 -3 -40 -20z"/>
<path d="M6178 12503 c12 -2 32 -2 45 0 12 2 2 4 -23 4 -25 0 -35 -2 -22 -4z"/>
<path d="M6258 12483 c12 -2 32 -2 45 0 12 2 2 4 -23 4 -25 0 -35 -2 -22 -4z"/>
<path d="M6960 12466 c0 -9 5 -16 10 -16 6 0 10 4 10 9 0 6 -4 13 -10 16 -5 3
-10 -1 -10 -9z"/>
<path d="M6338 12443 c12 -2 32 -2 45 0 12 2 2 4 -23 4 -25 0 -35 -2 -22 -4z"/>
<path d="M6080 12420 c0 -18 7 -20 80 -20 47 0 80 4 80 10 0 6 -18 10 -40 10
-22 0 -40 5 -40 10 0 6 -18 10 -40 10 -33 0 -40 -3 -40 -20z"/>
<path d="M6418 12423 c12 -2 32 -2 45 0 12 2 2 4 -23 4 -25 0 -35 -2 -22 -4z"/>
<path d="M6480 12395 c0 -11 11 -15 40 -15 22 0 40 4 40 9 0 6 19 12 43 14 23
2 5 4 -40 5 -68 2 -83 -1 -83 -13z"/>
<path d="M6040 12390 c0 -5 7 -7 15 -4 8 4 15 8 15 10 0 2 -7 4 -15 4 -8 0
-15 -4 -15 -10z"/>
<path d="M6883 12384 c-2 -7 1 -21 7 -31 11 -17 11 -17 6 1 -4 11 0 23 10 31
15 11 15 12 -1 12 -9 0 -19 -6 -22 -13z"/>
<path d="M6320 12340 c0 -18 7 -20 80 -20 47 0 80 4 80 10 0 6 -18 10 -40 10
-22 0 -40 5 -40 10 0 6 -18 10 -40 10 -33 0 -40 -3 -40 -20z"/>
<path d="M6738 12343 c12 -2 32 -2 45 0 12 2 2 4 -23 4 -25 0 -35 -2 -22 -4z"/>
<path d="M6800 12321 c0 -5 14 -8 30 -6 20 3 28 0 24 -7 -4 -6 1 -8 15 -3 14
4 21 2 21 -7 0 -10 3 -9 9 2 6 8 7 18 5 22 -7 11 -104 10 -104 -1z"/>
<path d="M6800 12288 c0 -4 6 -8 14 -8 8 0 17 4 20 8 2 4 -4 8 -15 8 -10 0
-19 -4 -19 -8z"/>
<path d="M6640 12260 c0 -17 7 -20 50 -20 43 0 49 -2 43 -17 -7 -17 -6 -17 10
-1 10 9 23 15 31 12 7 -3 19 2 26 11 11 13 7 15 -34 15 -25 0 -46 5 -46 10 0
6 -18 10 -40 10 -33 0 -40 -3 -40 -20z"/>
<path d="M6240 12230 c0 -5 18 -10 40 -10 22 0 40 5 40 10 0 6 -18 10 -40 10
-22 0 -40 -4 -40 -10z"/>
<path d="M6338 12203 c12 -2 32 -2 45 0 12 2 2 4 -23 4 -25 0 -35 -2 -22 -4z"/>
<path d="M6380 12150 c11 -7 6 -10 -22 -10 -20 0 -40 -5 -44 -12 -4 -7 -3 -8
5 -4 6 4 18 2 26 -4 11 -10 15 -10 15 -1 0 7 5 9 11 5 12 -7 31 15 23 28 -3 4
-11 8 -17 8 -7 0 -6 -4 3 -10z"/>
<path d="M6573 12148 c-7 -9 -4 -18 7 -29 16 -15 18 -14 29 3 11 18 10 19 -11
12 -20 -6 -21 -5 -9 10 7 9 9 16 3 16 -5 0 -14 -6 -19 -12z"/>
<path d="M6430 12126 c0 -2 7 -6 15 -10 8 -3 15 -1 15 4 0 6 -7 10 -15 10 -8
0 -15 -2 -15 -4z"/>
<path d="M7492 10835 c-138 -39 -230 -128 -273 -266 -56 -179 18 -296 198
-315 110 -12 227 32 311 117 109 111 141 298 67 395 -53 69 -191 100 -303 69z"/>
<path d="M4956 10738 c-15 -73 -30 -144 -33 -157 l-6 -24 124 5 c99 3 133 8
164 24 48 24 83 86 91 160 6 43 3 54 -17 78 -30 34 -78 45 -200 46 l-96 0 -27
-132z"/>
<path d="M6892 9163 c-5 -16 -24 -65 -41 -110 l-30 -83 88 0 89 0 -42 110
c-22 60 -44 110 -48 110 -3 0 -11 -12 -16 -27z"/>
<path d="M12360 9135 l0 -97 86 3 c79 4 87 6 110 32 30 35 32 94 5 128 -17 21
-29 24 -110 27 l-91 4 0 -97z"/>
<path d="M12774 7872 c3 -6 -2 -13 -11 -15 -16 -4 -16 -5 -1 -6 21 -1 32 15
17 25 -7 4 -9 3 -5 -4z"/>
<path d="M12482 7857 c-8 -10 -6 -13 11 -14 15 -2 18 0 8 6 -11 7 -11 9 0 14
8 3 9 6 3 6 -6 1 -16 -5 -22 -12z"/>
<path d="M12555 7859 c-4 -6 -4 -13 -1 -16 3 -4 6 -1 6 6 0 7 5 9 12 5 7 -4 8
-3 4 4 -9 15 -13 15 -21 1z"/>
<path d="M12617 7849 c7 -7 15 -10 18 -7 3 3 -2 9 -12 12 -14 6 -15 5 -6 -5z"/>
<path d="M12428 7822 c-7 -11 -20 -22 -28 -25 -11 -5 -10 -6 4 -4 10 1 25 12
34 25 17 26 9 30 -10 4z"/>
<path d="M12970 7800 c-9 -6 -10 -10 -3 -10 6 0 15 5 18 10 8 12 4 12 -15 0z"/>
<path d="M12990 7785 c-7 -8 -11 -15 -9 -16 31 -6 37 -5 35 7 -3 22 -12 25
-26 9z"/>
<path d="M12410 7769 c0 -5 5 -7 10 -4 6 3 10 8 10 11 0 2 -4 4 -10 4 -5 0
-10 -5 -10 -11z"/>
<path d="M12301 7674 c-1 -21 -24 -47 -51 -57 -10 -4 -9 -6 6 -6 29 -1 57 32
51 61 -4 21 -4 21 -6 2z"/>
<path d="M12320 7670 c0 -5 18 -10 40 -10 22 0 40 5 40 10 0 6 -18 10 -40 10
-22 0 -40 -4 -40 -10z"/>
<path d="M12305 7610 c-4 -6 -3 -10 2 -9 4 1 27 1 51 0 30 -1 42 -5 42 -16 0
-11 11 -15 40 -15 29 0 40 4 40 15 0 11 -11 15 -40 15 -22 0 -40 5 -40 10 0
13 -87 13 -95 0z"/>
<path d="M12560 7590 c0 -5 18 -10 40 -10 22 0 40 5 40 10 0 6 -18 10 -40 10
-22 0 -40 -4 -40 -10z"/>
<path d="M12206 7553 c-6 -14 -5 -15 5 -6 7 7 10 15 7 18 -3 3 -9 -2 -12 -12z"/>
<path d="M12498 7553 c12 -2 32 -2 45 0 12 2 2 4 -23 4 -25 0 -35 -2 -22 -4z"/>
<path d="M13157 7543 c-12 -11 -7 -19 12 -19 11 0 17 5 14 13 -6 14 -16 17
-26 6z"/>
<path d="M12215 7530 c-3 -6 1 -7 9 -4 18 7 21 14 7 14 -6 0 -13 -4 -16 -10z"/>
<path d="M12560 7530 c0 -5 18 -10 40 -10 22 0 40 5 40 10 0 6 -18 10 -40 10
-22 0 -40 -4 -40 -10z"/>
<path d="M12240 7500 c0 -17 7 -20 40 -20 33 0 40 3 40 20 0 17 -7 20 -40 20
-33 0 -40 -3 -40 -20z"/>
<path d="M12880 7510 c0 -5 18 -10 40 -10 22 0 40 5 40 10 0 6 -18 10 -40 10
-22 0 -40 -4 -40 -10z"/>
<path d="M12658 7503 c12 -2 32 -2 45 0 12 2 2 4 -23 4 -25 0 -35 -2 -22 -4z"/>
<path d="M12765 7480 c28 -5 66 -8 85 -8 28 1 25 2 -15 8 -27 5 -66 8 -85 8
-28 -1 -25 -2 15 -8z"/>
<path d="M12215 7450 c-3 -5 -1 -10 4 -10 6 0 11 5 11 10 0 6 -2 10 -4 10 -3
0 -8 -4 -11 -10z"/>
<path d="M12880 7450 c0 -5 18 -10 40 -10 22 0 40 5 40 10 0 6 -18 10 -40 10
-22 0 -40 -4 -40 -10z"/>
<path d="M12400 7430 c0 -5 18 -10 40 -10 22 0 40 -4 40 -10 0 -5 18 -10 40
-10 33 0 40 3 40 20 0 18 -7 20 -80 20 -47 0 -80 -4 -80 -10z"/>
<path d="M12920 7430 c-25 -4 -36 -8 -24 -8 12 -1 49 -5 83 -8 52 -6 61 -5 61
10 0 17 -34 19 -120 6z"/>
<path d="M12178 7413 c12 -2 32 -2 45 0 12 2 2 4 -23 4 -25 0 -35 -2 -22 -4z"/>
<path d="M13058 7393 c12 -2 32 -2 45 0 12 2 2 4 -23 4 -25 0 -35 -2 -22 -4z"/>
<path d="M12358 7353 c23 -2 61 -2 85 0 23 2 4 4 -43 4 -47 0 -66 -2 -42 -4z"/>
<path d="M12720 7350 c0 -5 18 -10 40 -10 22 0 40 -4 40 -10 0 -5 18 -10 40
-10 33 0 40 3 40 20 0 18 -7 20 -80 20 -47 0 -80 -4 -80 -10z"/>
<path d="M12498 7333 c12 -2 32 -2 45 0 12 2 2 4 -23 4 -25 0 -35 -2 -22 -4z"/>
<path d="M12578 7313 c12 -2 32 -2 45 0 12 2 2 4 -23 4 -25 0 -35 -2 -22 -4z"/>
<path d="M12640 7285 c0 -11 11 -15 40 -15 29 0 40 4 40 15 0 11 -11 15 -40
15 -29 0 -40 -4 -40 -15z"/>
<path d="M12154 7264 c3 -9 6 -18 6 -20 0 -2 18 -4 40 -4 33 0 40 3 40 20 0
17 -7 20 -46 20 -38 0 -45 -3 -40 -16z"/>
<path d="M12960 7270 c0 -5 18 -10 40 -10 22 0 40 -4 40 -10 0 -5 18 -10 40
-10 33 0 40 3 40 20 0 18 -7 20 -80 20 -47 0 -80 -4 -80 -10z"/>
<path d="M12738 7253 c12 -2 32 -2 45 0 12 2 2 4 -23 4 -25 0 -35 -2 -22 -4z"/>
<path d="M13171 7231 c-7 -5 -12 -14 -10 -20 2 -6 10 -2 17 9 14 22 13 23 -7
11z"/>
<path d="M13121 7212 c-1 -13 3 -20 9 -17 6 3 10 -1 10 -10 0 -9 4 -14 9 -11
5 3 7 15 4 26 -3 11 -9 18 -13 15 -5 -3 -11 1 -13 7 -3 7 -6 3 -6 -10z"/>
<path d="M12400 7190 c0 -5 18 -10 40 -10 22 0 40 5 40 10 0 6 -18 10 -40 10
-22 0 -40 -4 -40 -10z"/>
<path d="M12918 7193 c23 -2 61 -2 85 0 23 2 4 4 -43 4 -47 0 -66 -2 -42 -4z"/>
<path d="M13058 7173 c12 -2 32 -2 45 0 12 2 2 4 -23 4 -25 0 -35 -2 -22 -4z"/>
<path d="M13120 7145 c0 -8 2 -15 4 -15 2 0 6 7 10 15 3 8 1 15 -4 15 -6 0
-10 -7 -10 -15z"/>
<path d="M12640 7110 c0 -5 18 -10 40 -10 22 0 40 -4 40 -10 0 -5 18 -10 40
-10 33 0 40 3 40 20 0 18 -7 20 -80 20 -47 0 -80 -4 -80 -10z"/>
<path d="M12960 7020 c0 -17 7 -20 40 -20 33 0 40 3 40 20 0 17 -7 20 -40 20
-33 0 -40 -3 -40 -20z"/>
<path d="M13045 6950 c-3 -5 -2 -10 4 -10 5 0 13 5 16 10 3 6 2 10 -4 10 -5 0
-13 -4 -16 -10z"/>
<path d="M13071 6924 c0 -11 3 -14 6 -6 3 7 2 16 -1 19 -3 4 -6 -2 -5 -13z"/>
<path d="M9227 5630 c-10 -16 -13 -31 -9 -34 13 -8 22 4 22 26 0 11 5 16 10
13 6 -3 10 -2 10 4 0 23 -17 18 -33 -9z"/>
<path d="M9139 5517 c-6 -33 -21 -57 -34 -57 -15 0 -30 -18 -22 -26 9 -9 47
16 47 31 0 8 8 18 18 24 14 8 15 12 5 22 -7 7 -14 10 -14 6z"/>
<path d="M12474 4719 c-4 -7 -3 -9 4 -5 6 3 15 -2 21 -11 6 -10 11 -13 11 -7
0 20 -27 37 -36 23z"/>
<path d="M12476 4685 c-9 -26 -7 -32 5 -12 6 10 9 21 6 23 -2 3 -7 -2 -11 -11z"/>
<path d="M12435 4669 c-4 -6 -5 -12 -2 -15 2 -3 7 2 10 11 7 17 1 20 -8 4z"/>
<path d="M12213 4415 c0 -8 4 -12 9 -9 5 3 6 10 3 15 -9 13 -12 11 -12 -6z"/>
<path d="M12330 4395 c0 -5 5 -17 10 -25 5 -8 10 -10 10 -5 0 6 -5 17 -10 25
-5 8 -10 11 -10 5z"/>
<path d="M12180 4364 c0 -14 3 -14 15 -4 8 7 15 14 15 16 0 2 -7 4 -15 4 -8 0
-15 -7 -15 -16z"/>
<path d="M12325 4332 c3 -55 9 -60 25 -22 7 17 10 33 6 37 -3 3 -6 -2 -6 -13
-1 -14 -5 -11 -14 11 l-13 30 2 -43z"/>
<path d="M12140 4330 c0 -5 5 -10 11 -10 5 0 7 5 4 10 -3 6 -8 10 -11 10 -2 0
-4 -4 -4 -10z"/>
<path d="M12060 4275 c-10 -12 -10 -18 -2 -26 7 -5 10 -6 7 -3 -3 4 0 13 7 21
6 7 9 16 6 18 -3 3 -11 -2 -18 -10z"/>
<path d="M9220 4210 c0 -5 7 -10 15 -10 8 0 15 5 15 10 0 6 -7 10 -15 10 -8 0
-15 -4 -15 -10z"/>
<path d="M11976 4201 c-4 -5 -2 -12 3 -15 5 -4 12 -2 15 3 4 5 2 12 -3 15 -5
4 -12 2 -15 -3z"/>
<path d="M9215 4170 c-3 -5 3 -10 15 -10 12 0 18 5 15 10 -3 6 -10 10 -15 10
-5 0 -12 -4 -15 -10z"/>
<path d="M9535 4120 c11 -5 29 -8 40 -8 16 0 15 2 -5 8 -34 11 -60 11 -35 0z"/>
<path d="M9597 4109 c-3 -10 0 -22 5 -26 7 -3 8 -1 4 5 -3 6 1 15 10 20 14 8
14 10 1 15 -9 3 -17 -1 -20 -14z"/>
<path d="M9518 4086 c-14 -11 -18 -29 -18 -90 0 -44 -4 -76 -10 -76 -5 0 -10
-18 -10 -40 0 -33 3 -40 20 -40 19 0 20 7 20 120 0 116 1 121 23 130 12 5 15
9 7 9 -8 0 -23 -6 -32 -13z"/>
<path d="M11848 4083 c6 -2 18 -2 25 0 6 3 1 5 -13 5 -14 0 -19 -2 -12 -5z"/>
<path d="M9413 4040 c0 -25 2 -35 4 -22 2 12 2 32 0 45 -2 12 -4 2 -4 -23z"/>
<path d="M9915 4041 c-3 -5 4 -13 16 -16 17 -6 19 -9 8 -16 -8 -5 -9 -9 -4 -9
6 0 17 5 25 10 9 6 10 10 3 10 -6 0 -18 7 -27 15 -8 8 -17 11 -21 6z"/>
<path d="M9880 4025 c14 -8 30 -14 35 -14 6 0 -1 6 -15 14 -14 8 -29 14 -35
14 -5 0 1 -6 15 -14z"/>
<path d="M12166 4027 c3 -10 9 -15 12 -12 3 3 0 11 -7 18 -10 9 -11 8 -5 -6z"/>
<path d="M9850 4009 c0 -5 5 -7 10 -4 6 3 10 8 10 11 0 2 -4 4 -10 4 -5 0 -10
-5 -10 -11z"/>
<path d="M10058 4003 c7 -3 16 -2 19 1 4 3 -2 6 -13 5 -11 0 -14 -3 -6 -6z"/>
<path d="M9180 3960 c0 -22 -4 -40 -10 -40 -5 0 -10 -18 -10 -40 0 -33 3 -40
20 -40 18 0 20 7 20 80 0 47 -4 80 -10 80 -5 0 -10 -18 -10 -40z"/>
<path d="M9670 3960 c0 -22 -4 -40 -10 -40 -5 0 -10 -18 -10 -40 0 -29 4 -40
15 -40 12 0 15 16 15 80 0 44 -2 80 -5 80 -3 0 -5 -18 -5 -40z"/>
<path d="M12130 3996 c0 -7 40 -14 44 -7 3 4 -6 8 -20 9 -13 1 -24 0 -24 -2z"/>
<path d="M10210 3959 c0 -5 9 -9 20 -9 11 0 20 2 20 4 0 2 -9 6 -20 9 -11 3
-20 1 -20 -4z"/>
<path d="M11580 3950 c-13 -8 -12 -10 3 -10 9 0 17 5 17 10 0 12 -1 12 -20 0z"/>
<path d="M12081 3934 c0 -11 3 -14 6 -6 3 7 2 16 -1 19 -3 4 -6 -2 -5 -13z"/>
<path d="M11448 3933 c7 -3 16 -2 19 1 4 3 -2 6 -13 5 -11 0 -14 -3 -6 -6z"/>
<path d="M9352 3864 c-3 -79 8 -184 19 -184 5 0 9 18 9 40 0 22 -4 40 -10 40
-5 0 -11 37 -13 83 -2 70 -3 73 -5 21z"/>
<path d="M9393 3880 c0 -25 2 -35 4 -22 2 12 2 32 0 45 -2 12 -4 2 -4 -23z"/>
<path d="M10518 3883 c7 -3 16 -2 19 1 4 3 -2 6 -13 5 -11 0 -14 -3 -6 -6z"/>
<path d="M11230 3880 c0 -5 7 -10 16 -10 8 0 12 5 9 10 -3 6 -10 10 -16 10 -5
0 -9 -4 -9 -10z"/>
<path d="M10556 3861 c-3 -4 6 -6 19 -3 14 2 25 6 25 8 0 8 -39 4 -44 -5z"/>
<path d="M11138 3863 c12 -2 30 -2 40 0 9 3 -1 5 -23 4 -22 0 -30 -2 -17 -4z"/>
<path d="M9625 3761 c-5 -59 -11 -81 -21 -81 -10 0 -14 -12 -14 -40 0 -22 -4
-40 -10 -40 -5 0 -10 -18 -10 -40 0 -22 -4 -40 -10 -40 -6 0 -9 -33 -8 -82 1
-46 3 -64 5 -40 3 26 9 42 18 42 9 0 15 23 20 80 4 44 10 80 14 80 9 0 36 228
28 236 -2 3 -8 -31 -12 -75z"/>
<path d="M9333 3680 c0 -47 2 -66 4 -42 2 23 2 61 0 85 -2 23 -4 4 -4 -43z"/>
<path d="M9100 3640 c0 -22 -4 -40 -10 -40 -5 0 -10 -18 -10 -40 0 -33 3 -40
20 -40 18 0 20 7 20 80 0 47 -4 80 -10 80 -5 0 -10 -18 -10 -40z"/>
<path d="M9420 3640 c0 -22 -4 -40 -10 -40 -6 0 -10 -33 -10 -80 0 -73 2 -80
20 -80 19 0 20 7 20 120 0 73 -4 120 -10 120 -5 0 -10 -18 -10 -40z"/>
<path d="M9660 3640 c0 -22 5 -40 10 -40 6 0 10 18 10 40 0 22 -4 40 -10 40
-5 0 -10 -18 -10 -40z"/>
<path d="M9272 3544 c-3 -79 8 -184 19 -184 5 0 9 18 9 40 0 22 -4 40 -10 40
-5 0 -11 37 -13 83 -2 70 -3 73 -5 21z"/>
<path d="M9313 3560 c0 -25 2 -35 4 -22 2 12 2 32 0 45 -2 12 -4 2 -4 -23z"/>
<path d="M11609 3516 c0 0 -2 -11 -3 -24 -2 -20 -1 -21 14 -7 9 8 22 15 28 15
24 0 11 15 -13 16 -14 1 -25 1 -26 0z"/>
<path d="M11674 3513 c3 -4 -4 -13 -16 -20 l-23 -12 23 -1 c12 0 22 2 22 4 0
2 3 11 6 20 4 10 1 16 -7 16 -7 0 -9 -3 -5 -7z"/>
<path d="M11558 3433 c6 -3 10 -9 7 -14 -4 -5 1 -6 9 -3 23 9 19 20 -6 21 -13
0 -17 -1 -10 -4z"/>
<path d="M9253 3320 c0 -25 2 -35 4 -22 2 12 2 32 0 45 -2 12 -4 2 -4 -23z"/>
<path d="M9340 3320 c0 -22 5 -40 10 -40 6 0 10 18 10 40 0 22 -4 40 -10 40
-5 0 -10 -18 -10 -40z"/>
<path d="M9580 3320 c0 -22 5 -40 10 -40 6 0 10 18 10 40 0 22 -4 40 -10 40
-5 0 -10 -18 -10 -40z"/>
<path d="M11398 3353 c7 -3 16 -2 19 1 4 3 -2 6 -13 5 -11 0 -14 -3 -6 -6z"/>
<path d="M9060 3330 c0 -5 5 -10 10 -10 6 0 10 5 10 10 0 6 -4 10 -10 10 -5 0
-10 -4 -10 -10z"/>
<path d="M9278 3273 c7 -3 16 -2 19 1 4 3 -2 6 -13 5 -11 0 -14 -3 -6 -6z"/>
<path d="M9610 3185 c0 -8 8 -15 18 -15 13 0 14 2 3 9 -11 7 -11 9 0 14 10 4
9 6 -3 6 -10 1 -18 -6 -18 -14z"/>
<path d="M11060 3190 c-8 -5 -10 -10 -5 -10 6 0 17 5 25 10 8 5 11 10 5 10 -5
0 -17 -5 -25 -10z"/>
<path d="M11106 3191 c-4 -5 3 -7 14 -4 23 6 26 13 6 13 -8 0 -17 -4 -20 -9z"/>
<path d="M9570 3176 c0 -2 7 -7 16 -10 8 -3 12 -2 9 4 -6 10 -25 14 -25 6z"/>
<path d="M11066 3161 c-4 -5 3 -7 14 -4 23 6 26 13 6 13 -8 0 -17 -4 -20 -9z"/>
<path d="M11005 3149 c-11 -17 1 -21 15 -4 8 9 8 15 2 15 -6 0 -14 -5 -17 -11z"/>
<path d="M9928 3113 c6 -2 18 -2 25 0 6 3 1 5 -13 5 -14 0 -19 -2 -12 -5z"/>
<path d="M10735 3110 c-3 -5 -2 -10 4 -10 5 0 13 5 16 10 3 6 2 10 -4 10 -5 0
-13 -4 -16 -10z"/>
<path d="M10852 3111 c-11 -6 -10 -10 4 -15 9 -4 22 -2 28 4 8 8 6 9 -8 4 -13
-5 -17 -4 -12 4 8 14 6 15 -12 3z"/>
<path d="M9826 3101 c-3 -5 1 -11 9 -14 9 -4 12 -1 8 9 -6 16 -10 17 -17 5z"/>
<path d="M9970 3106 c0 -2 7 -7 16 -10 8 -3 12 -2 9 4 -6 10 -25 14 -25 6z"/>
<path d="M10777 3103 c-3 -5 6 -9 20 -10 19 -1 22 1 12 8 -17 11 -26 11 -32 2z"/>
<path d="M10712 3083 c-13 -5 -7 -23 9 -23 6 0 8 4 5 9 -4 5 0 12 6 14 7 3 9
5 3 5 -5 0 -16 -2 -23 -5z"/>
<path d="M10645 3070 c-3 -6 1 -7 9 -4 18 7 21 14 7 14 -6 0 -13 -4 -16 -10z"/>
<path d="M8650 4330 c0 -5 5 -10 11 -10 5 0 7 5 4 10 -3 6 -8 10 -11 10 -2 0
-4 -4 -4 -10z"/>
<path d="M8685 4330 c3 -5 8 -10 11 -10 2 0 4 5 4 10 0 6 -5 10 -11 10 -5 0
-7 -4 -4 -10z"/>
<path d="M8563 3640 c0 -25 2 -35 4 -22 2 12 2 32 0 45 -2 12 -4 2 -4 -23z"/>
</g>
</svg>
