<?xml version="1.0" standalone="no"?>
<!DOCTYPE svg PUBLIC "-//W3C//DTD SVG 20010904//EN"
 "http://www.w3.org/TR/2001/REC-SVG-20010904/DTD/svg10.dtd">
<svg version="1.0" xmlns="http://www.w3.org/2000/svg"
 width="2000.000000pt" height="2000.000000pt" viewBox="0 0 2000.000000 2000.000000"
 preserveAspectRatio="xMidYMid meet">

<g transform="translate(0.000000,2000.000000) scale(0.100000,-0.100000)"
fill="#000000" stroke="none">
<path d="M9745 15589 c-592 -55 -1162 -230 -1658 -510 -226 -127 -512 -334
-710 -512 l-78 -70 -468 -83 c-257 -46 -492 -92 -523 -104 -113 -42 -223 -127
-294 -225 -79 -111 -124 -248 -124 -377 0 -36 49 -341 114 -711 l115 -648 -14
-72 c-23 -120 -44 -303 -56 -482 -49 -732 143 -1553 515 -2209 31 -54 56 -100
56 -103 0 -24 286 -423 372 -517 l45 -50 -394 2230 c-216 1226 -393 2238 -393
2249 0 19 117 41 1921 359 1090 192 1924 335 1928 330 4 -5 78 -409 164 -899
l157 -890 -36 -95 c-39 -102 -70 -243 -135 -603 -34 -192 -38 -234 -29 -262
13 -40 58 -81 99 -90 38 -8 95 16 117 50 10 16 33 118 59 266 23 132 44 242
47 244 2 2 53 -5 113 -16 61 -11 133 -22 160 -25 55 -5 1418 -244 1424 -249 1
-2 -15 -107 -38 -234 -23 -127 -41 -245 -41 -262 0 -62 59 -119 123 -119 32 0
89 39 105 73 8 15 32 132 54 260 23 128 42 234 44 236 7 8 769 -131 820 -150
201 -75 344 -280 344 -493 0 -49 -41 -306 -125 -782 -69 -390 -128 -722 -131
-739 -13 -68 194 272 306 502 543 1113 541 2418 -5 3538 -278 569 -698 1074
-1208 1454 -562 419 -1198 676 -1907 772 -178 23 -661 34 -835 18z m1063 -560
c50 -70 111 -112 205 -140 37 -12 67 -22 67 -23 0 -2 -25 -20 -54 -40 -80 -55
-128 -125 -156 -228 -7 -27 -15 -48 -19 -48 -3 0 -19 20 -34 45 -51 80 -145
143 -239 160 -21 4 -38 11 -38 15 0 4 18 20 40 35 84 58 149 155 165 248 4 20
10 37 14 36 3 0 25 -27 49 -60z m-2096 -678 c54 -60 30 -156 -45 -180 -17 -5
-277 -53 -576 -106 -601 -105 -593 -105 -632 -41 -33 54 -21 121 28 153 35 23
1088 214 1153 208 35 -2 50 -10 72 -34z m2948 -30 c0 -73 27 -215 54 -281 32
-79 76 -141 165 -232 41 -43 73 -79 70 -81 -2 -2 -51 -8 -109 -15 -194 -21
-301 -70 -446 -205 -53 -50 -86 -74 -88 -65 -2 7 -7 50 -10 95 -8 105 -43 225
-87 299 -19 31 -71 96 -116 144 l-83 88 31 6 c17 3 47 6 66 6 68 0 190 32 268
70 80 39 217 146 249 194 25 39 36 32 36 -23z m1198 -405 c42 -23 820 -807
832 -839 15 -43 12 -86 -10 -131 -13 -27 -169 -190 -452 -473 -465 -463 -452
-453 -556 -453 -26 0 -41 -4 -37 -10 4 -6 -11 -10 -37 -11 -44 -1 -64 -2 -278
-18 -124 -9 -279 -15 -417 -16 -80 0 -109 15 -150 75 -28 40 -29 96 -8 350 8
96 15 183 15 193 0 25 18 21 90 -20 83 -49 188 -147 206 -193 21 -53 93 -110
139 -110 109 0 179 101 145 206 -7 22 -12 41 -11 42 8 11 -58 64 -91 74 -20 6
-63 33 -95 61 -81 69 -180 132 -279 178 l-85 39 7 63 c4 36 16 79 29 102 29
49 860 880 895 894 37 15 117 13 148 -3z"/>
<path d="M11140 8223 c1 -33 87 -503 94 -510 10 -10 191 51 366 124 186 78
474 223 463 233 -4 4 -147 33 -318 64 -170 30 -368 67 -440 81 -156 30 -165
30 -165 8z"/>
<path d="M7900 4985 l0 -35 100 0 100 0 0 -265 0 -265 40 0 40 0 0 265 0 265
105 0 105 0 0 35 0 35 -245 0 -245 0 0 -35z"/>
<path d="M8676 4968 c-13 -29 -72 -159 -131 -288 -59 -129 -109 -241 -112
-248 -4 -10 5 -13 37 -10 l42 3 30 73 31 72 164 0 164 0 34 -75 34 -75 40 0
40 0 -33 73 c-18 39 -79 174 -136 300 l-103 227 -39 0 c-38 0 -40 -2 -62 -52z
m132 -184 c35 -80 61 -148 59 -150 -2 -3 -63 -3 -134 -2 l-131 3 66 148 c36
81 68 147 71 147 3 0 34 -66 69 -146z"/>
<path d="M9350 5004 c-125 -43 -200 -152 -200 -288 0 -84 23 -146 76 -205 65
-72 125 -96 244 -96 86 0 101 3 155 30 l60 30 3 123 3 122 -36 0 -35 0 0 -100
0 -99 -32 -18 c-45 -24 -190 -25 -233 -1 -97 52 -147 160 -124 266 33 157 213
231 365 152 l58 -31 20 20 20 21 -24 25 c-55 59 -218 84 -320 49z"/>
<path d="M9920 4720 l0 -300 205 0 205 0 0 30 0 30 -165 0 -165 0 0 270 0 270
-40 0 -40 0 0 -300z"/>
<path d="M10490 4720 l0 -300 35 0 35 0 0 300 0 300 -35 0 -35 0 0 -300z"/>
<path d="M10810 4720 l0 -300 40 0 40 0 2 223 3 222 179 -222 c169 -209 182
-223 213 -223 l33 0 0 300 0 300 -40 0 -40 0 -2 -226 -3 -227 -183 227 c-164
203 -186 226 -212 226 l-30 0 0 -300z"/>
<path d="M11570 4720 l0 -300 215 0 215 0 0 30 0 30 -177 2 -178 3 0 100 0
100 153 3 152 3 0 29 0 29 -152 3 -153 3 -3 98 -3 97 176 0 175 0 0 35 0 35
-210 0 -210 0 0 -300z"/>
</g>
</svg>
