<?xml version="1.0" standalone="no"?>
<!DOCTYPE svg PUBLIC "-//W3C//DTD SVG 20010904//EN"
 "http://www.w3.org/TR/2001/REC-SVG-20010904/DTD/svg10.dtd">
<svg version="1.0" xmlns="http://www.w3.org/2000/svg"
 width="2000.000000pt" height="2000.000000pt" viewBox="0 0 2000.000000 2000.000000"
 preserveAspectRatio="xMidYMid meet">

<g transform="translate(0.000000,2000.000000) scale(0.100000,-0.100000)"
fill="#000000" stroke="none">
<path d="M8491 15424 c-187 -50 -344 -200 -409 -391 l-27 -78 -3 -1790 -4
-1790 -109 485 c-59 267 -109 486 -109 488 0 1 -123 2 -272 2 l-273 -1 -435
-480 c-239 -264 -436 -483 -438 -488 -1 -5 195 -868 438 -1919 242 -1051 440
-1913 440 -1916 0 -3 1220 -6 2710 -6 1491 0 2710 3 2710 6 0 3 198 865 440
1916 243 1051 439 1914 438 1919 -2 5 -199 224 -438 488 l-435 480 -272 1
c-150 0 -273 -1 -273 -2 0 -2 -50 -221 -109 -488 l-109 -485 -4 1790 -3 1790
-27 81 c-50 146 -153 267 -289 339 -132 69 -28 65 -1634 64 -1232 0 -1458 -2
-1504 -15z m2050 -302 c40 -45 39 -84 -5 -128 l-34 -34 -502 0 -502 0 -34 34
c-23 23 -34 43 -34 64 0 33 32 79 64 92 11 5 245 8 519 7 l499 -2 29 -33z
m1149 -2092 l0 -1660 -1685 0 -1685 0 0 1660 0 1660 1685 0 1685 0 0 -1660z"/>
<path d="M6120 6636 c-191 -41 -339 -151 -414 -310 -42 -88 -56 -153 -56 -263
0 -257 143 -454 397 -544 41 -15 93 -23 179 -26 145 -7 238 10 343 63 69 34
177 124 170 141 -2 5 -47 48 -99 95 l-95 86 -45 -41 c-60 -53 -121 -79 -201
-85 -102 -7 -170 18 -239 87 -66 66 -90 128 -90 232 0 190 125 314 315 313 85
0 144 -24 209 -84 l46 -42 32 26 c18 14 65 55 103 91 l70 65 -55 53 c-65 61
-150 109 -235 131 -84 23 -254 29 -335 12z"/>
<path d="M7280 6636 c-221 -47 -383 -186 -449 -383 -30 -89 -37 -211 -17 -303
60 -282 295 -460 611 -460 191 0 329 54 450 175 77 76 126 158 150 250 19 76
19 224 0 300 -51 199 -207 354 -415 411 -79 21 -251 26 -330 10z m277 -282
c102 -49 154 -136 161 -265 6 -114 -13 -171 -79 -244 -102 -110 -258 -128
-386 -42 -60 41 -98 98 -119 178 -69 269 182 491 423 373z"/>
<path d="M8210 6070 l0 -560 145 0 145 0 0 281 c0 154 4 278 9 275 4 -3 68
-105 142 -226 l134 -220 74 2 74 3 141 235 141 235 3 -292 2 -293 145 0 145 0
-2 558 -3 557 -130 0 -130 0 -187 -315 c-103 -173 -191 -315 -195 -314 -4 1
-94 142 -199 315 l-192 314 -131 3 -131 3 0 -561z"/>
<path d="M9738 6624 c-5 -4 -8 -256 -8 -561 l0 -553 160 0 160 0 0 144 0 143
163 6 c99 3 183 11 216 21 132 37 228 114 279 224 24 51 27 69 27 167 0 98 -3
116 -27 167 -35 75 -95 138 -166 176 -112 60 -147 65 -487 69 -170 3 -313 1
-317 -3z m596 -269 c57 -28 79 -64 84 -132 3 -48 0 -64 -20 -92 -42 -63 -77
-76 -220 -80 l-128 -3 0 167 0 167 123 -4 c97 -3 130 -7 161 -23z"/>
<path d="M11196 6622 c-9 -15 -478 -1077 -483 -1094 -5 -17 7 -18 155 -18
l159 0 44 108 44 107 231 3 c178 2 234 -1 241 -10 6 -7 27 -57 48 -110 l38
-98 164 0 c90 0 163 2 163 5 0 3 -110 254 -245 558 l-244 552 -155 3 c-85 1
-157 -1 -160 -6z m222 -474 c34 -84 64 -161 68 -170 6 -17 -5 -18 -136 -18
-78 0 -140 4 -138 8 68 173 134 332 138 332 3 0 34 -69 68 -152z"/>
<path d="M12097 6623 c-4 -3 -7 -255 -7 -560 l0 -553 155 0 155 0 2 296 3 296
244 -296 245 -296 133 0 133 0 -2 558 -3 557 -152 3 -153 3 -2 -298 -3 -297
-245 297 -245 297 -126 0 c-69 0 -129 -3 -132 -7z"/>
<path d="M13240 6626 c0 -3 95 -162 210 -354 l210 -350 0 -206 0 -206 160 0
160 0 0 199 0 200 210 352 c116 193 210 355 210 360 0 5 -67 9 -149 9 l-148 0
-133 -221 c-72 -121 -135 -218 -138 -214 -3 3 -63 101 -132 218 l-126 212
-167 3 c-92 1 -167 0 -167 -2z"/>
<path d="M7900 4985 l0 -35 100 0 100 0 0 -265 0 -265 40 0 40 0 0 265 0 265
105 0 105 0 0 35 0 35 -245 0 -245 0 0 -35z"/>
<path d="M8676 4968 c-13 -29 -72 -159 -131 -288 -59 -129 -109 -241 -112
-248 -4 -10 5 -13 37 -10 l42 3 30 73 31 72 164 0 164 0 34 -75 34 -75 40 0
40 0 -33 73 c-18 39 -79 174 -136 300 l-103 227 -39 0 c-38 0 -40 -2 -62 -52z
m132 -184 c35 -80 61 -148 59 -150 -2 -3 -63 -3 -134 -2 l-131 3 66 148 c36
81 68 147 71 147 3 0 34 -66 69 -146z"/>
<path d="M9350 5004 c-125 -43 -200 -152 -200 -288 0 -84 23 -146 76 -205 65
-72 125 -96 244 -96 86 0 101 3 155 30 l60 30 3 123 3 122 -36 0 -35 0 0 -100
0 -99 -32 -18 c-45 -24 -190 -25 -233 -1 -97 52 -147 160 -124 266 33 157 213
231 365 152 l58 -31 20 20 20 21 -24 25 c-55 59 -218 84 -320 49z"/>
<path d="M9920 4720 l0 -300 205 0 205 0 0 30 0 30 -165 0 -165 0 0 270 0 270
-40 0 -40 0 0 -300z"/>
<path d="M10490 4720 l0 -300 35 0 35 0 0 300 0 300 -35 0 -35 0 0 -300z"/>
<path d="M10810 4720 l0 -300 40 0 40 0 2 223 3 222 179 -222 c169 -209 182
-223 213 -223 l33 0 0 300 0 300 -40 0 -40 0 -2 -226 -3 -227 -183 227 c-164
203 -186 226 -212 226 l-30 0 0 -300z"/>
<path d="M11570 4720 l0 -300 215 0 215 0 0 30 0 30 -177 2 -178 3 0 100 0
100 153 3 152 3 0 29 0 29 -152 3 -153 3 -3 98 -3 97 176 0 175 0 0 35 0 35
-210 0 -210 0 0 -300z"/>
</g>
</svg>
