<?xml version="1.0" standalone="no"?>
<!DOCTYPE svg PUBLIC "-//W3C//DTD SVG 20010904//EN"
 "http://www.w3.org/TR/2001/REC-SVG-20010904/DTD/svg10.dtd">
<svg version="1.0" xmlns="http://www.w3.org/2000/svg"
 width="2000.000000pt" height="2000.000000pt" viewBox="0 0 2000.000000 2000.000000"
 preserveAspectRatio="xMidYMid meet">

<g transform="translate(0.000000,2000.000000) scale(0.100000,-0.100000)"
fill="#000000" stroke="none">
<path d="M10 10000 l0 -10000 9995 0 9995 0 0 10000 0 10000 -9995 0 -9995 0
0 -10000z m10070 4920 c0 -5 8 -10 18 -11 13 0 12 -2 -5 -9 -32 -13 -29 -17
10 -13 17 2 26 0 20 -3 -9 -4 -13 -39 -13 -124 0 -104 -2 -119 -17 -123 -11
-3 -6 -6 12 -7 l30 -2 -30 -8 c-16 -4 -316 -8 -665 -9 -712 -2 -677 2 -753
-76 -65 -67 -67 -81 -67 -532 0 -222 2 -403 4 -403 2 0 36 14 77 31 172 72
482 188 490 183 5 -3 9 0 9 7 0 6 8 9 20 6 11 -3 18 -1 14 4 -3 5 2 10 10 10
21 2 25 3 61 18 45 19 115 42 139 46 21 4 21 4 2 -10 -11 -8 -14 -15 -8 -15 9
0 10 -5 2 -19 -7 -14 -6 -21 3 -24 7 -3 4 -6 -6 -6 -28 -1 -9 -21 19 -21 14 0
53 11 87 24 282 112 1053 342 1407 419 160 36 185 38 207 21 16 -13 14 -14
-22 -9 -22 3 -33 2 -25 -2 8 -5 15 -18 14 -29 -1 -17 3 -20 19 -16 20 5 20 6
2 12 -14 5 -16 9 -6 15 7 4 16 3 20 -2 3 -6 13 -13 21 -16 11 -4 10 -6 -5 -6
-17 -1 -17 -3 -5 -11 8 -5 24 -7 35 -4 15 5 14 1 -7 -15 -20 -16 -35 -20 -50
-15 -13 3 -20 3 -16 -1 5 -5 -103 -36 -240 -71 -777 -195 -1557 -475 -2278
-817 -930 -441 -1651 -967 -1841 -1341 -69 -136 -83 -259 -39 -351 63 -135
228 -225 501 -276 l100 -19 -245 4 c-344 6 -522 37 -695 121 -185 89 -264 218
-235 383 65 375 642 873 1604 1385 98 53 259 133 357 179 l179 83 0 486 c0
451 1 491 20 563 36 141 111 252 220 325 66 44 151 79 220 91 69 12 1320 12
1320 0z m-52 -485 c2 -27 1 -65 -3 -82 l-6 -33 -169 0 -169 0 -20 26 c-32 40
-28 87 10 118 31 26 31 26 193 24 l161 -3 3 -50z m-538 -539 c0 -2 -8 -10 -17
-17 -16 -13 -17 -12 -4 4 13 16 21 21 21 13z m20 -30 c0 -3 -4 -8 -10 -11 -5
-3 -10 -1 -10 4 0 6 5 11 10 11 6 0 10 -2 10 -4z m-510 -722 l25 -15 -25 7
c-23 6 -24 6 -10 -11 9 -11 10 -16 3 -11 -8 4 -13 2 -13 -8 0 -8 -40 -36 -92
-64 -51 -27 -132 -73 -180 -101 l-88 -52 0 -602 c0 -408 -4 -607 -11 -617 -8
-11 -12 -12 -16 -2 -6 14 -33 16 -33 2 0 -8 -245 -16 -252 -7 -2 1 -5 231 -8
510 l-5 509 -110 -83 c-377 -282 -591 -535 -624 -736 -10 -64 -1 -134 23 -182
44 -83 159 -161 306 -205 l85 -26 -105 6 c-294 15 -511 79 -617 182 -127 123
-119 279 24 495 64 97 270 301 418 415 117 91 366 261 435 298 19 10 42 24 50
31 8 6 22 13 30 15 8 2 22 10 31 18 10 8 31 23 47 32 l29 18 42 -42 c29 -30
37 -44 28 -50 -6 -4 -9 -8 -4 -8 4 0 25 11 47 25 22 14 42 25 44 25 2 0 36 18
76 41 152 86 391 201 406 195 8 -3 12 -2 9 4 -9 14 6 12 35 -6z m4260 -809
c386 -57 584 -190 598 -401 5 -87 -7 -144 -54 -240 -186 -390 -902 -923 -1859
-1384 -110 -53 -208 -100 -217 -103 -16 -6 -18 -46 -20 -529 -3 -514 -3 -524
-25 -583 -48 -126 -146 -238 -262 -299 -125 -66 -125 -66 -831 -66 -635 0
-636 0 -650 21 -8 12 -24 25 -35 29 -17 7 -17 9 -2 9 15 1 17 14 17 131 l0
130 645 0 c712 0 685 -2 753 63 73 69 71 58 72 518 0 228 1 417 0 421 0 4 -36
-8 -80 -27 -165 -71 -552 -215 -561 -210 -5 4 -9 2 -9 -4 0 -5 -15 -13 -32
-17 -18 -4 -36 -9 -40 -10 -5 -1 -10 -3 -13 -4 -3 -1 -8 -3 -12 -4 -5 -1 -14
-5 -20 -9 -7 -5 -13 -4 -13 2 0 5 8 15 18 20 14 9 15 10 1 11 -9 0 -21 -11
-27 -25 -12 -26 -35 -36 -26 -10 4 8 1 15 -5 15 -6 0 -11 -5 -11 -11 0 -5 -5
-7 -12 -3 -7 4 2 13 23 23 18 9 35 25 37 36 3 18 2 18 -13 -2 -9 -13 -24 -23
-33 -23 -14 0 -12 4 7 19 21 16 21 19 6 24 -27 11 -45 8 -45 -7 0 -8 -4 -18
-10 -21 -6 -3 -7 1 -4 9 6 16 -7 22 -20 9 -6 -6 -64 -29 -91 -37 -5 -1 -127
-41 -270 -88 -471 -156 -1105 -328 -1205 -328 -14 0 -31 -5 -38 -12 -9 -9 -12
-9 -12 0 0 7 7 15 16 19 15 6 15 8 -2 21 -18 13 -17 14 6 7 43 -12 9 10 -38
25 -23 7 -40 15 -38 18 3 2 19 0 35 -6 18 -6 31 -7 31 -2 0 15 -37 30 -57 24
-17 -5 -17 -5 0 6 9 6 22 8 28 4 6 -3 14 -2 18 5 4 6 25 12 47 14 23 2 45 6
50 9 5 3 83 25 174 48 1428 361 2910 1038 3669 1675 47 40 139 127 204 194
207 213 298 387 284 541 -17 189 -197 309 -567 379 -93 17 397 4 520 -14z
m-958 -146 c345 -38 548 -173 548 -366 0 -227 -234 -510 -690 -833 -116 -82
-336 -221 -355 -224 -7 -1 -20 -10 -30 -19 -10 -10 -24 -16 -32 -13 -8 3 -11
2 -8 -4 3 -5 -3 -14 -14 -19 -18 -10 -19 -9 -10 21 7 25 6 29 -4 19 -12 -12
-13 -16 -16 -46 0 -8 -6 -15 -13 -15 -6 0 -9 3 -5 6 3 3 -3 16 -14 27 -13 14
-16 24 -9 31 15 15 12 26 -5 20 -18 -7 -20 7 -3 24 16 16 3 16 -14 0 -7 -7
-36 -24 -63 -38 -27 -14 -72 -38 -100 -54 -65 -37 -352 -182 -389 -196 -21 -8
-32 -7 -42 1 -12 10 -11 14 3 25 17 13 17 14 1 8 -10 -3 -18 -2 -18 3 0 4 48
35 107 67 59 32 145 81 190 108 l83 49 0 609 c0 449 3 611 12 616 6 4 8 3 5
-3 -4 -6 0 -13 8 -17 8 -3 15 -1 15 4 0 16 237 13 243 -2 3 -8 6 -6 6 5 1 9 6
17 11 17 6 0 10 -150 11 -427 1 -236 4 -465 7 -511 l7 -83 115 87 c161 121
265 211 364 315 105 110 164 192 213 295 35 73 38 86 38 169 0 80 -3 95 -27
136 -54 92 -152 156 -310 204 l-83 25 90 -6 c50 -3 129 -9 177 -15z m-657
-1508 c3 -6 -5 -15 -17 -21 -21 -10 -21 -10 -6 3 10 8 15 17 11 20 -3 4 -4 7
0 7 3 0 8 -4 12 -9z m-635 -151 c-9 -5 -9 -9 -1 -14 14 -9 14 -26 0 -26 -5 0
-7 5 -4 10 3 6 2 10 -3 10 -6 0 -13 7 -16 16 -3 8 -2 12 4 9 6 -3 10 -1 10 5
0 6 5 8 11 4 8 -5 8 -9 -1 -14z m-1075 -1798 c-3 -3 -11 0 -18 7 -9 10 -8 11
6 5 10 -3 15 -9 12 -12z m3840 -1043 c314 -56 518 -352 461 -669 -40 -225
-200 -395 -428 -457 -78 -21 -260 -24 -338 -4 -146 36 -276 123 -353 238 -64
94 -89 175 -95 299 -7 177 42 310 162 430 150 151 349 206 591 163z m-8885
-454 l0 -455 283 -2 282 -3 3 -90 c1 -49 3 -94 5 -98 1 -4 113 241 249 545
l246 553 126 3 125 3 19 -38 c35 -69 482 -1074 482 -1084 0 -5 -56 -9 -134 -9
l-134 0 -48 120 -49 120 -260 0 -260 0 -49 -120 -48 -120 -549 0 -549 0 0 565
0 565 130 0 130 0 0 -455z m2162 442 c7 -8 132 -158 278 -336 l265 -322 5 333
5 333 128 3 127 3 0 -566 0 -566 -107 3 -108 3 -275 333 -275 334 -3 -336 -2
-336 -130 0 -130 0 0 558 c0 307 3 562 7 565 13 13 201 8 215 -6z m5006 -214
l2 -223 250 0 250 0 2 223 3 222 130 0 130 0 0 -560 0 -560 -132 -3 -133 -3 0
231 0 230 -250 0 -250 0 0 -230 0 -231 -132 3 -133 3 -3 550 c-1 303 0 556 3
563 3 9 36 12 132 10 l128 -3 3 -222z m2872 -114 l280 -340 0 341 0 341 128
-3 127 -3 3 -562 2 -563 -107 0 -108 0 -275 334 -275 333 -5 -331 -5 -331
-127 -3 -128 -3 0 566 0 565 105 0 104 0 281 -341z m-10802 316 c161 -38 270
-136 308 -277 43 -162 -18 -344 -143 -427 -102 -68 -208 -91 -415 -91 l-138 0
0 -155 0 -156 -132 3 -133 3 -3 558 -2 557 297 0 c228 0 313 -4 361 -15z
m4842 -90 l0 -105 -290 0 -290 0 0 -120 0 -120 260 0 260 0 0 -100 0 -100
-260 0 -260 0 0 -130 0 -130 305 0 306 0 -3 -102 -3 -103 -435 0 -435 0 -3
558 -2 557 425 0 425 0 0 -105z m1080 0 l0 -105 -180 0 -180 0 0 -455 0 -455
-130 0 -130 0 0 455 0 455 -180 0 -180 0 0 105 0 105 490 0 490 0 0 -105z
m1245 90 c87 -23 158 -60 210 -111 149 -145 145 -422 -8 -559 -101 -91 -223
-125 -452 -125 l-145 0 0 -155 0 -155 -130 0 -130 0 0 560 0 560 298 0 c235 0
310 -3 357 -15z m5285 -90 l0 -105 -295 0 -295 0 0 -120 0 -120 260 0 260 0 0
-100 0 -100 -260 0 -260 0 0 -130 0 -130 305 0 305 0 0 -105 0 -105 -435 0
-435 0 0 560 0 560 425 0 425 0 0 -105z m-9462 -1580 c53 -16 61 -29 42 -65
-10 -18 -11 -18 -56 2 -68 30 -158 22 -191 -16 -50 -59 -15 -102 110 -135 104
-27 144 -51 163 -98 35 -82 -18 -162 -120 -183 -80 -16 -184 1 -235 39 -20 15
-21 20 -10 44 l12 26 50 -26 c92 -46 219 -33 233 24 16 61 -8 81 -154 123 -94
27 -132 60 -139 120 -12 127 126 195 295 145z m540 -22 l3 -33 -140 0 -141 0
0 -75 0 -74 123 -3 122 -3 0 -30 0 -30 -122 -3 -123 -3 0 -79 0 -80 145 0 145
0 0 -30 0 -30 -185 0 -185 0 0 248 c0 137 3 252 7 256 4 3 84 5 177 4 l171 -3
3 -32z m438 6 c65 -32 87 -65 91 -136 5 -70 -16 -118 -64 -148 -18 -11 -32
-24 -33 -28 0 -5 25 -45 56 -88 l55 -79 -40 0 c-38 0 -42 3 -93 77 -29 42 -56
76 -60 75 -5 -1 -39 -2 -78 -2 l-70 0 0 -75 0 -75 -40 0 -40 0 0 248 c0 137 3
252 8 256 4 5 64 6 133 4 108 -4 133 -8 175 -29z m300 -169 c47 -107 89 -198
93 -202 4 -5 47 83 97 195 88 199 90 202 122 205 19 2 32 -1 32 -8 0 -6 -48
-121 -107 -256 l-107 -244 -36 0 -36 0 -107 244 c-59 135 -107 250 -107 256 0
7 14 10 36 8 l35 -3 85 -195z m484 -55 l0 -255 -35 0 -35 0 0 255 0 255 35 0
35 0 0 -255z m471 244 c19 -7 49 -23 67 -36 l33 -25 -21 -23 -22 -23 -35 24
c-43 29 -90 39 -146 30 -96 -16 -157 -90 -157 -192 0 -71 21 -116 73 -158 33
-27 48 -31 110 -34 64 -3 76 -1 110 22 46 31 49 32 73 5 18 -20 18 -21 -1 -36
-58 -43 -100 -57 -175 -57 -91 0 -154 27 -205 87 -36 41 -65 117 -65 167 0 40
26 117 51 154 25 37 76 75 123 93 40 15 144 16 187 2z m559 -24 l0 -35 -140 0
-140 0 0 -75 0 -75 125 0 125 0 0 -35 0 -35 -125 0 -125 0 0 -80 0 -80 145 0
145 0 0 -30 0 -30 -185 0 -185 0 0 248 c0 137 3 252 7 255 3 4 84 7 180 7
l173 0 0 -35z m572 -4 c48 -53 33 -125 -36 -172 -20 -13 -36 -26 -36 -29 0 -3
27 -32 60 -65 58 -58 59 -58 68 -34 5 13 11 33 14 44 2 13 10 19 23 17 36 -6
39 -19 18 -76 l-20 -55 34 -32 c33 -33 33 -33 14 -53 -20 -19 -20 -19 -55 7
l-34 27 -49 -25 c-96 -49 -198 -42 -260 20 -27 27 -33 41 -33 74 0 56 21 93
75 132 45 32 45 33 26 53 -43 48 -52 96 -27 145 22 42 71 62 135 58 46 -3 59
-9 83 -36z m736 15 c152 -64 138 -274 -22 -321 -27 -8 -85 -15 -128 -15 l-78
0 0 -75 0 -75 -35 0 -35 0 0 256 0 256 128 -4 c90 -3 139 -10 170 -22z m412
21 c0 -2 51 -117 114 -256 l115 -252 -41 3 c-38 3 -41 5 -63 58 l-23 55 -137
3 -136 3 -27 -61 c-26 -58 -28 -60 -64 -60 l-38 0 24 53 c105 236 199 443 203
450 4 7 73 11 73 4z m617 -28 c113 -57 125 -217 22 -287 -19 -13 -34 -25 -34
-26 0 -2 26 -40 57 -85 l57 -81 -39 0 c-38 0 -42 3 -96 81 -38 54 -61 78 -71
75 -8 -3 -41 -6 -74 -6 l-59 0 0 -75 0 -75 -40 0 -40 0 0 248 c0 137 3 252 8
256 4 5 64 6 134 4 109 -4 133 -8 175 -29z m543 -4 l0 -35 -85 0 -85 0 0 -220
0 -220 -35 0 -35 0 0 220 0 219 -87 3 c-75 3 -88 6 -91 21 -9 46 -5 47 213 47
l205 0 0 -35z m338 20 c53 -16 61 -29 42 -65 -10 -18 -11 -18 -56 2 -68 30
-158 22 -191 -16 -50 -59 -15 -102 110 -135 104 -27 144 -51 163 -98 35 -82
-18 -162 -120 -183 -80 -16 -184 1 -235 39 -20 15 -21 20 -10 44 l12 26 51
-26 c39 -20 66 -26 116 -26 74 -1 107 13 116 48 16 63 -7 82 -154 125 -94 27
-132 60 -139 120 -12 127 126 195 295 145z m-6838 -123 c40 -41 49 -105 22
-166 -13 -27 -30 -50 -44 -55 -13 -4 -114 -6 -225 -3 l-203 5 0 123 0 124 211
0 211 0 28 -28z m8441 18 c34 -19 52 -68 47 -133 -4 -53 -9 -64 -38 -90 -32
-29 -35 -29 -108 -23 -41 3 -138 6 -214 6 -77 0 -137 3 -134 8 2 4 5 57 7 117
1 61 4 113 6 118 6 11 411 9 434 -3z"/>
<path d="M11140 14200 c0 -5 7 -10 16 -10 8 0 12 5 9 10 -3 6 -10 10 -16 10
-5 0 -9 -4 -9 -10z"/>
<path d="M9376 13871 c-19 -7 -19 -8 3 -14 30 -8 58 2 39 14 -15 10 -17 10
-42 0z"/>
<path d="M9400 13800 c0 -5 7 -10 15 -10 8 0 15 5 15 10 0 6 -7 10 -15 10 -8
0 -15 -4 -15 -10z"/>
<path d="M8302 12941 c-11 -7 -11 -9 0 -14 9 -3 15 1 15 9 0 8 -1 14 -1 14 -1
0 -7 -4 -14 -9z"/>
<path d="M10594 9865 c-10 -8 -14 -15 -8 -15 6 0 17 7 24 15 16 19 9 19 -16 0z"/>
<path d="M10670 9826 c7 -7 13 -7 20 0 6 6 3 10 -10 10 -13 0 -16 -4 -10 -10z"/>
<path d="M11674 10749 c-3 -6 -2 -15 3 -20 5 -5 9 -1 9 11 0 23 -2 24 -12 9z"/>
<path d="M13525 7467 c-58 -19 -82 -34 -132 -80 -56 -52 -89 -116 -103 -201
-41 -256 152 -455 402 -415 117 19 205 87 257 198 23 49 26 69 26 156 0 82 -4
109 -23 149 -36 80 -85 131 -160 168 -56 28 -79 33 -147 35 -45 2 -97 -3 -120
-10z"/>
<path d="M5998 7212 l-86 -207 90 -3 c49 -1 127 -1 173 0 l83 3 -84 204 c-46
113 -86 206 -87 208 -2 1 -42 -91 -89 -205z"/>
<path d="M3740 7281 l0 -191 98 -1 c173 -2 195 0 250 27 68 33 92 77 92 167 0
78 -24 120 -90 157 -42 23 -57 25 -197 28 l-153 4 0 -191z"/>
<path d="M10900 7281 l0 -191 153 0 c126 0 159 4 193 19 73 33 111 106 101
193 -8 68 -38 112 -95 140 -42 20 -64 23 -199 26 l-153 4 0 -191z"/>
<path d="M7860 5830 l0 -110 96 0 c96 0 96 0 130 34 27 27 34 42 34 73 0 81
-50 113 -175 113 l-85 0 0 -110z"/>
<path d="M10342 5944 c-28 -20 -29 -66 -1 -105 21 -29 22 -30 48 -13 14 9 34
25 44 36 51 59 -25 129 -91 82z"/>
<path d="M10309 5715 c-47 -31 -61 -71 -43 -120 18 -45 110 -58 183 -24 l45
20 -74 74 c-41 41 -75 75 -75 75 0 0 -17 -11 -36 -25z"/>
<path d="M10990 5830 l0 -110 91 0 c124 0 168 27 169 102 0 89 -43 118 -174
118 l-86 0 0 -110z"/>
<path d="M11541 5812 c-28 -64 -51 -120 -51 -125 0 -4 47 -7 105 -7 58 0 105
2 105 3 0 2 -24 59 -54 125 l-53 122 -52 -118z"/>
<path d="M12010 5830 l0 -110 94 0 c86 0 97 2 124 25 37 31 48 81 28 129 -21
50 -59 66 -161 66 l-85 0 0 -110z"/>
</g>
</svg>
