<?xml version="1.0" standalone="no"?>
<!DOCTYPE svg PUBLIC "-//W3C//DTD SVG 20010904//EN"
 "http://www.w3.org/TR/2001/REC-SVG-20010904/DTD/svg10.dtd">
<svg version="1.0" xmlns="http://www.w3.org/2000/svg"
 width="2000.000000pt" height="2000.000000pt" viewBox="0 0 2000.000000 2000.000000"
 preserveAspectRatio="xMidYMid meet">

<g transform="translate(0.000000,2000.000000) scale(0.100000,-0.100000)"
fill="#000000" stroke="none">
<path d="M8900 17479 c-1020 -137 -2033 -272 -2250 -301 l-395 -53 5 -120 c10
-238 2 -797 -14 -970 -8 -93 -14 -170 -12 -172 1 -1 150 16 332 38 181 21 406
48 499 59 94 11 203 25 243 30 40 6 75 10 78 10 2 0 5 -12 5 -27 1 -17 3 -21
6 -10 2 9 8 17 13 17 5 0 6 -7 3 -17 -4 -11 -3 -14 5 -9 7 4 12 2 12 -3 0 -6
-7 -11 -15 -11 -8 0 -15 -5 -15 -11 0 -5 3 -8 8 -6 4 3 7 -17 7 -43 0 -26 -3
-46 -6 -44 -7 4 -10 -185 -3 -209 3 -9 10 -15 15 -12 5 4 9 1 9 -4 0 -6 -4
-11 -9 -11 -5 0 -9 -16 -9 -35 0 -19 5 -35 11 -35 7 0 7 -4 -1 -12 -14 -14
-16 -54 -4 -62 5 -3 7 -34 5 -69 -3 -36 -1 -67 4 -70 6 -4 10 127 11 334 0
187 2 343 5 345 3 3 24 5 48 6 24 0 52 4 62 9 11 6 17 6 17 0 0 -16 150 -3
178 15 13 9 21 11 18 5 -5 -7 3 -11 21 -12 26 -2 25 -2 -7 -9 -19 -3 40 -6
132 -6 92 0 162 4 155 8 -9 6 -9 8 1 8 6 0 12 6 12 14 0 17 -33 30 -57 22 -10
-3 -24 -2 -32 3 -14 9 151 28 190 23 9 -2 28 2 43 8 15 5 25 6 22 2 -2 -4 13
-8 35 -8 26 -1 36 2 32 10 -4 6 0 5 9 -2 13 -10 26 -11 52 -3 20 5 34 6 31 1
-3 -5 24 -8 60 -8 36 0 65 4 65 9 0 5 7 9 16 9 9 0 12 5 8 12 -4 7 -3 8 5 4 6
-4 9 -11 6 -16 -7 -11 39 -22 60 -13 14 5 12 8 -11 19 -17 7 -22 13 -13 13 9
1 29 -9 45 -21 15 -13 25 -17 20 -10 -4 8 -1 12 9 12 9 0 13 -4 10 -10 -3 -5
3 -10 14 -10 14 0 21 6 21 19 0 15 -8 21 -37 24 l-38 4 38 1 c20 1 37 6 37 12
0 5 -8 7 -17 3 -14 -4 -15 -3 -7 6 7 8 43 12 98 12 65 0 85 3 79 12 -4 8 -1 7
10 -1 10 -9 27 -11 47 -7 l30 7 0 -87 c0 -47 4 -84 8 -81 4 3 24 1 44 -3 36
-8 70 0 50 13 -6 3 -12 3 -15 -1 -2 -5 -2 -2 -1 4 2 7 -7 34 -21 60 -13 27
-27 61 -30 76 -5 18 -12 26 -21 23 -7 -3 -16 -1 -19 3 -7 12 -13 11 750 105
380 47 722 90 760 95 245 36 356 43 448 32 336 -43 601 -272 661 -571 8 -41
63 -408 121 -815 l107 -740 -31 -90 c-60 -178 -84 -377 -62 -512 12 -67 58
-184 78 -196 5 -4 17 60 26 146 17 153 42 287 73 392 l16 57 34 -7 c68 -12
130 36 169 130 l23 57 42 -81 c73 -140 151 -202 265 -208 47 -3 67 0 93 16 43
27 72 77 72 124 l0 38 57 -61 c139 -151 357 -270 494 -270 l47 0 11 -46 c23
-91 97 -205 166 -254 43 -31 46 -69 8 -114 -33 -39 -83 -144 -83 -174 0 -26
17 -63 34 -74 19 -13 59 -9 77 8 17 15 18 14 24 -20 11 -55 40 -86 80 -86 59
0 85 18 85 59 0 121 58 285 128 362 137 153 348 135 397 -34 27 -92 232 -344
500 -613 208 -208 226 -225 400 -365 168 -136 207 -162 320 -215 355 -168 822
-123 1040 101 85 88 135 207 137 331 2 74 2 74 29 74 114 0 256 66 353 164
187 187 219 462 85 736 -35 70 -59 102 -138 181 -53 53 -123 111 -156 131 -74
43 -193 92 -261 107 l-51 12 1 87 c0 144 -55 273 -164 382 -209 209 -547 233
-840 60 -167 -99 -245 -132 -318 -138 -72 -5 -153 13 -223 49 -49 24 -165 112
-231 174 -224 212 -333 268 -513 268 -143 -1 -244 -40 -344 -134 l-44 -41
-101 21 c-208 43 -447 51 -632 20 -65 -10 -73 -10 -111 10 -73 37 -213 72
-315 78 -160 10 -309 -24 -428 -98 l-45 -28 -7 22 c-3 12 -71 448 -150 969
-79 521 -146 944 -150 940 -16 -16 -49 -170 -55 -252 -3 -47 -9 -92 -14 -100
-7 -12 -8 -10 -9 6 0 56 -56 229 -105 330 -141 287 -365 439 -680 463 l-90 6
70 24 c88 30 212 92 289 144 71 48 206 174 206 193 0 18 -122 89 -214 125 -93
36 -225 59 -330 58 -44 0 -916 -113 -1936 -250z m100 -1385 c0 -8 -8 -14 -17
-13 -11 0 -13 3 -5 6 6 2 12 11 12 19 0 9 -4 12 -10 9 -6 -4 -10 7 -10 27 l1
33 14 -34 c8 -18 15 -40 15 -47z m-360 46 c0 -5 -5 -10 -11 -10 -5 0 -7 5 -4
10 3 6 8 10 11 10 2 0 4 -4 4 -10z m-130 -34 c8 -3 4 -4 -9 -2 -14 3 -31 0
-39 -6 -10 -9 -16 -8 -22 3 -7 10 -3 16 13 20 12 3 27 3 32 -1 6 -4 17 -10 25
-14z m17 18 c-3 -3 -12 -4 -19 -1 -8 3 -5 6 6 6 11 1 17 -2 13 -5z m491 -79
c-3 -3 -9 2 -12 12 -6 14 -5 15 5 6 7 -7 10 -15 7 -18z m-1053 4 c10 -15 4
-17 -34 -12 -23 4 -29 8 -20 14 19 12 47 11 54 -2z m-115 -27 c-7 -3 -19 3
-28 13 -16 15 -15 16 12 4 15 -7 23 -15 16 -17z m172 11 c-12 -2 -20 -9 -17
-14 3 -5 -1 -6 -10 -2 -13 5 -14 7 -3 14 7 5 22 8 33 7 17 -1 17 -1 -3 -5z
m983 -3 c3 -6 -1 -7 -9 -4 -18 7 -21 14 -7 14 6 0 13 -4 16 -10z m-1068 -6
c-3 -3 -12 -4 -19 -1 -8 3 -5 6 6 6 11 1 17 -2 13 -5z m-508 -286 c-1 -42 -1
-42 -10 -13 -5 17 -7 36 -4 43 9 24 15 11 14 -30z m-6 -78 c-3 -11 -7 -20 -9
-20 -2 0 -4 9 -4 20 0 11 4 20 9 20 5 0 7 -9 4 -20z m4 -182 c-3 -8 -6 -5 -6
6 -1 11 2 17 5 13 3 -3 4 -12 1 -19z m6700 -726 c22 -12 53 -36 68 -54 57 -67
103 -212 89 -283 -7 -38 -48 -95 -67 -95 -7 1 -33 44 -59 98 -52 107 -131 204
-221 268 -28 21 -54 39 -56 41 -8 6 20 28 52 40 45 18 144 10 194 -15z"/>
<path d="M9060 15979 c0 -5 -4 -7 -10 -4 -6 3 -10 -5 -10 -18 0 -27 18 -38 49
-32 29 5 35 -10 36 -89 0 -64 2 -69 23 -72 27 -5 28 1 2 28 -14 16 -17 24 -8
29 9 6 9 11 -1 23 -8 9 -10 16 -6 16 9 0 34 -31 35 -43 0 -5 -4 -5 -10 -2 -17
10 -11 -12 7 -26 15 -12 16 -12 10 4 -3 9 -2 17 2 17 5 0 11 -7 15 -15 3 -8 1
-15 -4 -15 -6 0 -10 -5 -10 -11 0 -5 4 -8 8 -5 4 2 14 1 22 -5 9 -5 10 -9 3
-9 -7 0 -11 -13 -10 -33 2 -29 5 -33 29 -33 38 1 41 10 14 39 -14 15 -22 27
-18 27 4 0 0 6 -8 13 -8 7 -16 18 -18 25 -1 8 -11 26 -21 40 -11 15 -31 46
-45 70 -16 26 -31 40 -38 36 -8 -5 -9 -1 -5 12 7 19 7 19 -8 0 -18 -24 -30
-15 -16 12 14 26 14 32 1 32 -5 0 -10 -5 -10 -11z m179 -268 c7 -13 6 -18 -4
-18 -8 0 -12 4 -9 8 2 4 0 10 -6 14 -5 3 -10 11 -10 16 0 14 18 2 29 -20z"/>
<path d="M9284 15599 c1 -55 5 -73 16 -76 13 -4 13 -3 0 6 -9 7 -10 11 -3 11
6 0 15 -4 18 -10 3 -5 14 -10 24 -10 10 0 26 -9 36 -20 22 -25 31 -19 15 9 -6
12 -16 18 -22 15 -8 -5 -9 -1 -5 9 4 11 -4 29 -24 51 -17 19 -30 39 -31 43 0
4 -6 16 -13 26 -10 15 -12 6 -11 -54z m22 23 c-2 -4 9 -23 25 -41 34 -39 33
-37 13 -45 -9 -3 -12 -2 -9 5 10 15 -15 41 -29 30 -9 -7 -11 -1 -10 22 2 37 2
37 10 37 3 0 3 -4 0 -8z"/>
<path d="M9360 15474 c0 -8 5 -12 10 -9 6 3 10 2 10 -4 0 -5 -6 -12 -12 -14
-9 -4 -8 -6 3 -6 8 -1 20 4 27 11 7 7 12 8 12 2 0 -6 7 -11 16 -11 15 0 15 1
0 12 -8 7 -12 16 -8 21 4 4 -1 2 -10 -5 -15 -11 -19 -11 -24 3 -8 20 -24 21
-24 0z"/>
<path d="M9443 15354 c-1 -50 2 -73 8 -63 7 11 9 11 9 0 0 -9 8 -11 24 -7 28
7 49 -13 40 -38 -3 -9 -1 -16 5 -16 6 0 11 -7 11 -15 0 -11 7 -14 25 -11 33 6
41 -13 40 -95 0 -51 3 -65 13 -62 8 3 10 13 6 25 -4 14 -2 18 5 14 6 -4 11
-16 11 -27 0 -10 5 -19 10 -19 6 0 10 9 10 20 0 11 5 20 10 20 6 0 10 -8 8
-17 -2 -13 5 -17 29 -19 23 -1 30 3 26 13 -5 12 -7 12 -14 2 -9 -14 -37 14
-65 64 -8 15 -19 25 -24 22 -5 -3 -12 0 -16 6 -4 8 -3 9 4 5 18 -11 14 3 -9
35 -11 16 -25 26 -30 23 -6 -3 -9 0 -7 7 3 15 -36 83 -64 111 -10 10 -18 23
-18 28 0 6 -5 10 -10 10 -15 0 7 -41 34 -63 l21 -17 -25 8 c-13 5 -27 15 -30
23 -4 8 -12 24 -18 36 -15 28 -16 55 -2 33 5 -8 11 -12 14 -10 2 3 -3 16 -13
28 -17 23 -17 22 -18 -54z"/>
<path d="M7431 15214 c0 -11 3 -14 6 -6 3 7 2 16 -1 19 -3 4 -6 -2 -5 -13z"/>
<path d="M7446 15088 c4 -18 7 -42 6 -53 -3 -35 8 -65 23 -65 9 0 15 -10 15
-25 0 -16 -6 -25 -15 -25 -13 0 -15 -9 -9 -52 4 -29 11 -57 17 -63 6 -7 7 4 3
33 -4 26 -2 42 4 42 14 0 13 -83 -2 -98 -9 -9 -7 -13 5 -18 9 -3 17 -14 16
-23 0 -10 -2 -11 -6 -3 -9 22 -25 13 -17 -10 7 -22 11 -49 13 -90 1 -10 9 -18
19 -19 15 0 15 -1 -2 -8 -18 -7 -18 -8 -2 -14 25 -10 26 -9 27 11 0 10 4 6 11
-11 10 -27 12 -28 56 -21 26 4 51 9 57 12 5 4 22 5 38 3 17 -1 29 3 33 13 3 9
10 16 16 16 5 0 6 -4 3 -10 -3 -5 -1 -10 4 -10 6 0 11 7 11 15 0 8 8 15 18 14
10 0 12 -3 5 -6 -7 -2 -13 -9 -13 -15 0 -6 6 -6 15 2 8 7 22 10 30 6 8 -3 22
-3 30 0 32 13 12 20 -55 20 -38 0 -70 -3 -70 -8 0 -4 -7 -8 -15 -8 -8 0 -15 4
-15 9 0 5 -12 9 -27 9 -26 0 -26 -1 -4 -12 l22 -12 -26 -12 c-37 -17 -56 -14
-20 4 21 10 23 13 8 10 -15 -3 -20 0 -16 10 3 8 0 14 -5 14 -6 0 -13 -8 -16
-18 -3 -9 -15 -23 -26 -29 -16 -11 -18 -10 -13 4 5 11 3 14 -6 8 -10 -5 -11
-2 -7 13 6 17 3 20 -13 17 -28 -5 -39 20 -34 79 3 33 0 52 -9 58 -8 5 -9 11
-3 16 15 11 18 58 5 81 -7 14 -7 21 0 21 5 0 10 14 10 31 0 17 -4 28 -10 24
-6 -3 -10 5 -10 19 0 13 3 26 8 29 4 2 1 2 -5 1 -7 -2 -13 3 -13 11 0 8 8 15
18 16 12 0 13 2 3 6 -11 5 -11 7 0 14 11 7 10 9 -3 9 -10 0 -18 4 -18 10 0 5
7 7 15 4 8 -4 15 -2 15 4 0 5 -9 12 -20 15 -11 3 -20 12 -20 21 0 10 -8 16
-21 16 -18 0 -20 -4 -13 -32z m36 -75 c-5 -28 -22 -30 -22 -3 0 11 4 20 9 20
4 0 7 12 5 28 -4 26 -3 26 4 2 5 -14 6 -35 4 -47z m8 -117 c0 -3 -4 -8 -10
-11 -5 -3 -10 -1 -10 4 0 6 5 11 10 11 6 0 10 -2 10 -4z m237 -292 c-3 -3 -12
-4 -19 -1 -8 3 -5 6 6 6 11 1 17 -2 13 -5z"/>
<path d="M7496 15111 c-3 -5 1 -11 9 -15 8 -3 15 -1 15 4 0 13 -18 22 -24 11z"/>
<path d="M9750 15063 c5 -2 8 -9 5 -13 -3 -5 0 -12 6 -15 7 -5 10 -1 7 10 -1
10 -9 20 -16 21 -7 1 -8 0 -2 -3z"/>
<path d="M3800 15005 c0 -16 17 -109 1010 -5735 341 -1933 711 -4028 822
-4655 110 -627 204 -1144 209 -1149 11 -13 98 126 130 209 35 89 59 206 60
292 l1 68 15 -65 c87 -395 272 -644 546 -732 34 -11 70 -23 80 -27 13 -4 1
-14 -50 -35 -187 -81 -333 -225 -416 -411 l-27 -60 28 -23 c47 -40 159 -103
234 -132 112 -44 234 -63 358 -57 74 3 783 119 2365 386 2472 417 3500 590
3529 594 15 2 29 -31 90 -208 198 -574 392 -971 551 -1126 30 -30 55 -58 55
-62 0 -5 -21 -42 -46 -84 -25 -41 -44 -76 -42 -76 125 -60 149 -77 224 -153
l81 -82 49 28 c296 165 566 325 574 340 28 53 -9 152 -89 235 -43 45 -49 56
-55 107 -7 68 -47 196 -201 643 -113 329 -206 624 -279 886 l-35 125 24 76
c32 100 49 235 42 328 -4 41 -47 345 -98 675 -50 330 -133 875 -184 1210 l-92
610 29 120 c35 146 97 357 107 368 4 4 36 -61 71 -145 201 -489 432 -860 697
-1121 200 -197 369 -300 608 -369 70 -20 102 -23 255 -23 192 0 252 11 403 76
399 169 817 649 1136 1304 180 368 332 803 319 913 -4 33 1 44 54 109 32 39
58 74 58 76 0 3 -28 26 -63 50 -35 25 -104 81 -153 125 l-90 79 -55 -20 c-213
-78 -568 -223 -586 -240 -52 -47 -10 -189 82 -278 l48 -47 -20 -28 c-34 -48
-76 -139 -173 -369 -182 -436 -291 -626 -442 -771 -145 -139 -289 -191 -461
-166 -221 32 -391 191 -507 477 -71 174 -122 365 -205 780 -88 438 -156 702
-215 841 l-19 43 -73 -34 c-294 -136 -773 -204 -1341 -192 -268 6 -421 21
-557 56 -41 10 -76 18 -77 17 -1 -1 -11 -93 -22 -206 -104 -1044 -61 -2089
124 -3005 25 -121 49 -235 55 -254 5 -19 8 -36 7 -37 -2 -2 -340 -55 -752
-119 -413 -64 -892 -138 -1065 -165 -173 -27 -621 -97 -995 -154 -374 -58
-1044 -162 -1490 -231 -867 -135 -941 -143 -1076 -111 -265 61 -461 222 -555
455 -18 43 -56 246 -135 703 -225 1317 -787 4603 -1025 5993 -74 435 -175
1024 -224 1310 -202 1181 -369 2163 -375 2213 l-7 52 -379 0 c-330 0 -379 -2
-379 -15z"/>
<path d="M9764 14972 c5 -9 -7 -12 -39 -12 l-46 0 3 -40 c2 -43 11 -50 27 -22
6 10 11 12 11 4 0 -13 43 -12 57 2 4 4 4 7 -2 6 -22 -5 -45 1 -45 11 0 5 10 9
22 7 18 -2 23 2 24 20 1 12 -3 25 -9 29 -6 3 -7 1 -3 -5z m-24 -26 c0 -2 -11
-6 -25 -8 -14 -3 -25 -1 -25 3 0 5 11 9 25 9 14 0 25 -2 25 -4z m30 -6 c0 -5
-2 -10 -4 -10 -3 0 -8 5 -11 10 -3 6 -1 10 4 10 6 0 11 -4 11 -10z"/>
<path d="M7463 14945 c0 -8 4 -15 9 -15 4 0 8 7 8 15 0 8 -4 15 -8 15 -5 0 -9
-7 -9 -15z"/>
<path d="M9132 14871 c-18 -11 -11 -63 8 -68 13 -4 13 -3 0 6 -11 8 -4 9 29 6
48 -4 71 3 50 16 -7 4 -10 11 -6 15 4 4 15 0 25 -9 19 -18 44 -22 56 -10 3 4
20 7 37 8 17 1 34 7 39 14 5 9 9 10 11 2 2 -6 9 -3 16 7 10 17 7 19 -40 18
-28 0 -45 -2 -39 -4 7 -2 12 -8 12 -14 0 -6 -6 -8 -14 -5 -8 3 -17 -1 -20 -9
-7 -18 -21 -18 -40 1 -8 8 -24 15 -35 15 -11 0 -23 5 -26 10 -7 12 -45 13 -63
1z m71 -40 c5 -5 -7 -4 -27 3 -46 16 -59 28 -16 16 19 -5 38 -14 43 -19z"/>
<path d="M9220 14873 c14 -3 32 -11 42 -20 11 -9 18 -11 23 -4 3 6 1 11 -5 11
-6 0 -8 5 -5 10 4 6 -10 9 -37 9 -27 -1 -34 -3 -18 -6z"/>
<path d="M9411 14862 c-7 -7 -10 -16 -6 -20 3 -3 10 0 15 7 4 8 17 12 29 8 12
-3 21 -1 21 4 0 5 5 9 11 9 5 0 7 -5 3 -11 -4 -8 -1 -8 12 -1 11 5 25 7 32 5
6 -3 12 0 12 5 0 15 -115 10 -129 -6z"/>
<path d="M8560 14791 c0 -5 9 -7 20 -4 11 3 20 7 20 9 0 2 -9 4 -20 4 -11 0
-20 -4 -20 -9z"/>
<path d="M8593 14781 c-36 -16 -40 -25 -19 -47 20 -19 27 -18 51 9 11 12 17
18 13 13 -13 -17 -9 -29 6 -17 8 7 16 8 18 4 3 -4 3 -2 2 5 -2 6 1 12 6 12 6
0 10 -4 10 -10 0 -11 39 -13 64 -4 13 5 14 9 5 20 -9 10 -8 15 2 18 40 13 42
14 19 15 -15 1 -32 -5 -39 -11 -11 -10 -13 -10 -7 0 4 6 2 12 -3 12 -6 0 -11
-8 -12 -17 0 -15 -2 -15 -9 2 l-9 20 -1 -20 -1 -20 -9 20 -9 20 -1 -20 c-1
-15 -3 -17 -8 -5 -9 19 -29 19 -69 1z m12 -21 c-3 -5 -14 -10 -23 -9 -14 0
-13 2 3 9 27 11 27 11 20 0z"/>
<path d="M8820 14785 c6 -8 -1 -10 -28 -8 -20 2 -31 0 -24 -3 6 -3 10 -10 6
-15 -3 -5 -1 -9 5 -9 5 0 12 6 14 13 3 7 6 8 6 1 1 -8 15 -9 49 -2 26 5 58 10
71 10 17 0 19 3 10 9 -9 5 6 7 35 4 27 -3 46 -2 42 2 -4 5 -50 8 -102 9 -69 1
-91 -2 -84 -11z"/>
<path d="M8002 14682 c-1 -20 -7 -39 -14 -44 -10 -6 -10 -8 -1 -8 7 0 17 9 23
20 12 23 32 27 24 5 -4 -9 0 -15 9 -15 8 0 18 8 21 17 6 15 8 15 16 3 8 -13
10 -13 10 0 0 11 3 11 12 2 16 -16 28 -15 28 3 0 18 21 20 37 4 8 -8 21 -8 47
1 20 6 40 9 45 6 5 -4 12 -2 16 4 3 5 20 7 37 3 22 -4 29 -3 24 6 -5 8 4 10
33 6 22 -2 43 0 46 5 3 5 13 6 23 3 9 -3 14 -3 10 1 -11 13 -63 14 -70 2 -6
-8 -10 -8 -16 1 -10 15 -54 13 -48 -3 3 -8 -3 -10 -16 -6 -14 3 -16 7 -7 12 7
5 -27 7 -74 7 -81 -2 -105 -8 -74 -20 7 -3 5 -6 -5 -6 -10 -1 -18 6 -18 14 0
12 -12 15 -58 14 l-59 -2 -1 -35z m78 19 c0 -5 -7 -11 -15 -15 -15 -5 -20 5
-8 17 9 10 23 9 23 -2z m145 0 c14 -6 8 -8 -23 -8 -28 0 -39 3 -30 8 16 10 26
10 53 0z"/>
<path d="M8460 14709 c0 -5 5 -7 10 -4 6 3 10 8 10 11 0 2 -4 4 -10 4 -5 0
-10 -5 -10 -11z"/>
<path d="M8498 14713 c7 -3 16 -2 19 1 4 3 -2 6 -13 5 -11 0 -14 -3 -6 -6z"/>
<path d="M7580 14625 c0 -9 5 -15 11 -13 6 2 11 8 11 13 0 5 -5 11 -11 13 -6
2 -11 -4 -11 -13z"/>
<path d="M7900 14628 c0 -4 6 -8 14 -8 8 0 17 4 20 8 2 4 -4 8 -15 8 -10 0
-19 -4 -19 -8z"/>
<path d="M7500 14586 c0 -2 7 -7 16 -10 8 -3 12 -2 9 4 -6 10 -25 14 -25 6z"/>
<path d="M11965 13814 c-60 -31 -115 -105 -115 -154 0 -17 10 -11 53 33 34 35
64 57 85 61 18 3 46 9 63 12 60 12 44 64 -20 64 -20 0 -49 -7 -66 -16z"/>
<path d="M12741 13806 c-20 -24 -4 -35 70 -47 82 -13 136 -37 188 -84 23 -21
44 -35 47 -32 24 23 -48 112 -119 149 -57 29 -167 37 -186 14z"/>
<path d="M12436 12974 c-69 -36 -71 -37 -150 -29 -45 4 -92 7 -105 7 -35 0
-55 -26 -54 -69 2 -51 51 -97 122 -112 80 -17 85 -15 127 42 47 63 125 107
191 107 35 0 43 3 43 18 0 25 -40 61 -75 67 -22 4 -48 -4 -99 -31z"/>
<path d="M12065 12458 c3 -18 23 -156 45 -307 22 -151 41 -275 42 -276 5 -3
271 100 306 119 38 20 38 10 4 225 l-17 105 -71 17 c-95 23 -185 62 -257 111
l-58 40 6 -34z"/>
<path d="M8413 11840 c-75 -38 -123 -135 -123 -249 0 -73 26 -131 58 -131 16
0 18 7 14 59 -6 89 27 189 82 246 24 26 52 45 64 45 48 0 32 38 -19 46 -23 3
-47 -2 -76 -16z"/>
<path d="M8924 11095 c-4 -8 -10 -15 -16 -15 -5 0 -6 5 -3 10 3 6 -1 10 -9 10
-8 0 -18 -4 -21 -10 -3 -5 -1 -10 6 -10 7 0 10 -3 6 -6 -11 -11 21 -34 48 -34
21 0 26 4 23 22 -2 12 3 23 12 25 13 4 13 3 0 -6 -12 -9 -11 -11 10 -12 17 -1
19 -3 8 -6 -51 -13 1 -19 171 -19 104 0 188 3 185 7 -4 8 -150 46 -179 47 -11
1 -44 4 -72 7 -35 3 -53 2 -53 -5 0 -7 9 -9 23 -5 14 5 19 4 12 -3 -14 -14
-65 -24 -65 -13 0 5 6 11 13 14 6 2 9 8 5 12 -4 4 -15 2 -25 -6 -13 -11 -15
-11 -9 -1 12 19 -35 12 -52 -8 -10 -13 -11 -13 -6 3 7 21 -4 23 -12 2z m216
-25 c12 0 13 2 1 9 -10 7 -7 9 12 8 31 -2 35 -12 10 -22 -28 -12 -53 -13 -46
-2 4 6 -3 8 -15 5 -12 -4 -22 -2 -22 2 0 13 24 19 35 9 5 -5 16 -9 25 -9z m55
-9 c-3 -6 -11 -11 -16 -11 -5 0 -4 6 3 14 14 16 24 13 13 -3z m35 9 c0 -5 -5
-10 -11 -10 -5 0 -7 5 -4 10 3 6 8 10 11 10 2 0 4 -4 4 -10z m-286 -8 c2 -4
-5 -9 -17 -9 -17 -2 -19 0 -7 7 18 12 18 12 24 2z m116 -2 c0 -5 -10 -10 -22
-9 -22 0 -22 1 -3 9 11 5 21 9 23 9 1 1 2 -3 2 -9z"/>
<path d="M8840 11082 c-8 -2 -22 -10 -30 -18 -8 -7 -19 -13 -25 -13 -5 0 -11
-5 -13 -13 -3 -10 -1 -10 6 1 7 10 9 6 8 -15 -1 -16 -5 -34 -9 -41 -8 -12 10
-29 20 -19 4 3 1 6 -7 6 -9 0 -10 3 -1 14 6 8 11 18 10 22 -6 33 2 39 47 38
26 -1 42 1 37 5 -5 3 -14 13 -19 22 -5 9 -16 14 -24 11z m16 -19 c-3 -4 -17
-8 -29 -10 -17 -2 -19 -1 -7 7 17 11 47 14 36 3z"/>
<path d="M9361 11032 c-1 -20 1 -22 22 -11 22 11 22 11 -2 -15 -14 -14 -21
-29 -17 -33 4 -4 38 -8 76 -8 39 -1 73 -5 77 -9 5 -4 8 -22 8 -39 l0 -32 74
-1 c48 0 76 -5 79 -12 2 -7 10 -12 17 -12 8 0 16 -4 19 -9 4 -5 -2 -7 -12 -4
-13 3 -18 -2 -20 -21 -2 -24 1 -26 33 -22 40 5 49 -4 47 -49 -1 -27 2 -31 26
-32 47 -1 52 -3 52 -17 0 -9 8 -13 23 -9 21 4 21 4 2 -9 -11 -7 -21 -20 -23
-29 -2 -13 6 -16 37 -15 22 1 43 4 46 7 3 4 -8 21 -25 39 -17 18 -36 42 -42
53 -10 20 -11 20 -25 1 -13 -18 -14 -17 -8 7 7 29 -11 43 -42 33 -15 -5 -15
-4 -3 5 12 8 11 14 -10 35 -13 15 -29 26 -35 26 -6 0 -22 11 -35 25 -12 13
-27 22 -31 19 -5 -3 -9 1 -9 8 0 10 -2 10 -9 -1 -5 -8 -16 -11 -26 -8 -9 4
-14 10 -11 15 8 13 -6 26 -59 54 -40 21 -54 24 -70 16 -18 -10 -19 -10 -6 5
14 18 7 22 -28 18 -7 -2 -10 3 -6 9 3 6 3 9 -2 8 -4 -1 -18 3 -31 10 -12 7
-26 10 -31 7 -5 -3 -12 1 -14 7 -3 7 -6 3 -6 -10z m74 -33 c4 -6 14 -8 22 -5
8 3 12 2 9 -3 -3 -5 -17 -8 -32 -8 -19 0 -23 2 -13 9 11 7 9 8 -6 5 -11 -2
-19 -9 -17 -16 1 -7 -2 -10 -8 -6 -8 5 -7 11 1 21 14 17 35 18 44 3z m128 -65
c-1 -5 7 -12 18 -16 10 -4 19 -13 19 -20 0 -9 -3 -9 -12 0 -7 7 -20 12 -31 12
-10 0 -15 5 -12 11 4 5 -1 20 -12 32 l-18 21 25 -16 c14 -8 24 -19 23 -24z
m186 -107 c8 -10 7 -14 -4 -14 -8 0 -16 6 -19 14 -3 7 -2 13 3 13 5 0 14 -6
20 -13z m-39 -7 c0 -5 -5 -10 -11 -10 -5 0 -7 5 -4 10 3 6 8 10 11 10 2 0 4
-4 4 -10z m93 -82 c-2 -4 -10 -2 -17 5 -8 6 -12 15 -9 19 2 4 10 2 17 -5 8 -6
12 -15 9 -19z m51 -4 c3 -8 2 -12 -4 -9 -6 3 -10 10 -10 16 0 14 7 11 14 -7z
m49 -58 c4 -10 -1 -12 -16 -9 -18 4 -19 3 -7 -7 12 -9 12 -11 1 -8 -22 6 -24
26 -4 31 10 3 19 5 19 6 1 0 4 -5 7 -13z"/>
<path d="M8741 11026 c-8 -9 -27 -16 -43 -16 -18 0 -27 -4 -22 -11 3 -6 16 -8
28 -5 11 3 28 1 36 -5 11 -8 9 -9 -10 -4 -17 4 -21 3 -11 -3 11 -8 11 -10 0
-15 -8 -2 -2 -4 13 -3 14 0 24 3 22 5 -2 2 3 12 11 21 12 14 13 19 2 34 -12
16 -14 16 -26 2z"/>
<path d="M8581 10991 c-8 -5 -20 -7 -28 -4 -7 3 -19 0 -27 -6 -7 -6 -22 -8
-31 -4 -13 4 -16 3 -11 -5 9 -15 43 -16 51 -2 3 6 11 10 16 10 6 0 7 -4 4 -10
-4 -6 11 -10 37 -10 37 0 44 3 45 20 2 22 -29 28 -56 11z m24 -11 c-3 -5 -14
-10 -23 -9 -14 0 -13 2 3 9 27 11 27 11 20 0z"/>
<path d="M8647 10985 c-7 -16 1 -25 24 -25 28 0 31 16 5 28 -19 8 -25 8 -29
-3z"/>
<path d="M8365 10939 c-3 -3 3 -9 13 -11 11 -3 19 0 19 7 0 13 -25 16 -32 4z"/>
<path d="M8336 10932 c-4 -6 -14 -8 -24 -5 -13 4 -13 2 3 -10 22 -18 39 -22
30 -7 -4 6 1 7 11 3 15 -6 15 -7 0 -15 -11 -6 -22 -5 -32 2 -11 10 -14 10 -14
-1 0 -9 -3 -8 -12 3 -11 13 -17 14 -43 2 -16 -7 -25 -13 -18 -14 6 0 20 -3 30
-6 15 -5 15 -4 3 5 -9 7 -10 11 -3 11 6 0 14 -4 17 -8 7 -11 100 -9 106 2 3 5
-4 14 -15 20 -11 6 -23 15 -26 20 -4 4 -9 3 -13 -2z"/>
<path d="M9623 10915 c0 -8 4 -15 9 -15 4 0 8 4 8 9 0 6 -4 12 -8 15 -5 3 -9
-1 -9 -9z"/>
<path d="M7746 10903 c-2 -2 -19 -6 -37 -8 -19 -3 -35 -9 -37 -15 -2 -5 -8
-10 -14 -10 -6 0 -17 -8 -25 -17 -8 -10 -12 -12 -8 -6 4 8 1 11 -9 7 -8 -3
-18 -14 -21 -25 -4 -11 -10 -17 -14 -15 -4 3 -20 -8 -35 -23 -31 -32 -18 -55
14 -26 21 19 41 2 21 -18 -14 -14 -62 -17 -54 -4 3 5 0 8 -8 5 -16 -5 -53 -68
-40 -68 5 0 12 6 15 13 3 6 3 1 0 -12 -4 -15 -2 -21 4 -17 6 4 8 -2 4 -16 l-5
-22 -10 22 c-10 23 -26 29 -28 12 -1 -5 -2 -14 -3 -19 0 -5 -4 -13 -8 -17 -5
-4 -8 -12 -8 -18 1 -6 10 0 20 13 11 13 20 19 20 15 0 -5 -11 -22 -25 -38 -14
-16 -25 -31 -25 -33 0 -3 19 -3 43 -1 l42 4 0 69 c0 39 4 75 8 82 5 7 22 10
42 8 35 -5 35 -5 30 31 -5 38 1 43 51 47 21 2 29 8 29 22 0 11 -6 19 -12 18
-7 -2 -13 2 -13 7 0 6 6 10 14 10 8 0 16 5 18 12 3 7 31 11 81 11 49 -1 75 3
71 9 -4 6 1 8 12 4 11 -3 25 -2 32 3 8 5 -15 8 -57 8 -39 0 -72 -2 -75 -4z
m51 -9 c-3 -3 -12 -4 -19 -1 -8 3 -5 6 6 6 11 1 17 -2 13 -5z m-131 -76 c2 -3
-9 -5 -26 -6 -16 0 -32 3 -35 9 -6 9 51 6 61 -3z m-72 -20 c-4 -5 -9 -7 -12
-4 -3 3 -12 0 -21 -7 -14 -10 -14 -10 -4 4 13 16 46 23 37 7z m-118 -216 c-17
-16 -18 -16 -5 5 7 12 15 20 18 17 3 -2 -3 -12 -13 -22z"/>
<path d="M7872 10885 c-28 -12 -32 -18 -30 -49 l3 -35 33 20 c20 11 42 17 56
13 32 -8 44 24 13 35 -12 5 -21 12 -19 17 5 15 -21 14 -56 -1z m48 -5 c-8 -5
-22 -9 -30 -9 -10 0 -8 3 5 9 27 12 43 12 25 0z m5 -20 c-3 -5 -14 -10 -23
-10 -15 0 -15 2 -2 10 20 13 33 13 25 0z m-48 -26 c-3 -3 -12 -4 -19 -1 -8 3
-5 6 6 6 11 1 17 -2 13 -5z"/>
<path d="M7951 10887 c2 -1 13 -9 24 -17 19 -14 19 -14 6 3 -7 9 -18 17 -24
17 -6 0 -8 -1 -6 -3z"/>
<path d="M8183 10873 c-18 -9 -33 -20 -33 -25 0 -5 10 -2 23 6 16 11 26 12 37
5 13 -9 12 -10 -2 -5 -17 5 -35 -9 -21 -17 5 -2 3 -3 -3 -1 -6 1 -17 -2 -25
-7 -9 -5 -16 -3 -20 8 -5 14 -6 15 -11 1 -4 -8 -2 -21 3 -29 7 -11 12 -12 29
-1 11 6 25 12 32 11 7 0 4 -4 -7 -8 -16 -7 -12 -9 17 -9 37 0 37 0 35 38 -1
28 -6 36 -16 32 -9 -3 -12 -1 -7 6 9 15 9 15 -31 -5z m47 -53 c0 -5 -4 -10
-10 -10 -5 0 -10 5 -10 10 0 6 5 10 10 10 6 0 10 -4 10 -10z"/>
<path d="M8012 10841 c7 -11 15 -18 19 -15 4 2 9 -5 12 -15 3 -13 -10 -34 -45
-68 -78 -74 -157 -203 -149 -242 1 -7 -2 -10 -8 -6 -6 3 -11 2 -11 -2 0 -5 18
-9 40 -10 31 -2 40 2 42 15 5 56 4 71 -3 66 -5 -3 -9 -1 -9 5 0 5 5 13 11 16
6 4 8 13 5 21 -11 29 4 42 46 38 23 -3 40 -3 37 -2 -2 2 -15 12 -28 23 -24 20
-24 20 -17 0 5 -15 4 -17 -5 -8 -19 19 0 37 20 19 10 -9 21 -13 24 -10 4 4 -1
13 -11 21 -9 8 -11 12 -4 8 7 -4 12 1 12 13 0 15 6 19 25 17 16 -2 25 2 25 11
0 9 -6 11 -17 7 -16 -6 -16 -5 -4 10 19 24 31 21 31 -9 0 -16 5 -24 13 -21 6
2 12 19 12 37 0 23 6 35 19 40 11 3 20 14 22 24 2 16 1 16 -23 1 -24 -16 -26
-16 -52 9 -32 31 -46 34 -29 7z m53 -61 c1 -10 -2 -17 -6 -14 -4 2 -7 13 -6
24 2 23 10 17 12 -10z m-165 -195 c-10 -12 -10 -18 0 -30 7 -9 10 -18 6 -22
-3 -3 -6 -1 -6 5 0 7 -5 12 -11 12 -7 0 -9 -10 -5 -25 7 -27 0 -31 -24 -15
-10 6 -11 10 -2 10 6 0 12 5 12 10 0 20 30 83 37 77 3 -4 0 -13 -7 -22z"/>
<path d="M7995 10830 c-3 -5 -1 -10 4 -10 6 0 11 5 11 10 0 6 -2 10 -4 10 -3
0 -8 -4 -11 -10z"/>
<path d="M7762 10772 c1 -59 1 -59 -44 -56 -24 2 -37 1 -30 -2 6 -3 12 -10 12
-15 0 -6 -5 -7 -11 -4 -7 5 -9 -36 -7 -133 2 -77 6 -138 11 -135 4 2 7 0 7 -6
0 -5 -6 -11 -12 -13 -7 -3 4 -5 24 -6 38 -1 57 11 37 24 -8 4 -9 3 -5 -4 4 -7
2 -12 -4 -12 -8 0 -10 9 -6 24 3 14 2 28 -4 31 -6 4 -7 -1 -3 -11 5 -12 3 -15
-6 -9 -10 6 -11 2 -7 -16 5 -18 5 -20 -3 -8 -6 10 -6 28 0 55 22 83 22 87 11
80 -6 -4 -15 1 -21 11 -10 20 -4 70 10 79 5 3 9 15 10 27 1 20 2 20 9 -3 8
-25 14 -12 11 25 -1 14 1 16 7 7 6 -9 14 -1 27 28 10 22 21 40 25 40 5 0 10 6
13 13 3 7 -6 13 -24 14 -24 2 -27 -1 -27 -25z m28 11 c0 -5 -5 -15 -10 -23 -7
-12 -9 -10 -7 8 1 19 17 33 17 15z m-84 -129 c-4 -9 -9 -15 -11 -12 -3 3 -3
13 1 22 4 9 9 15 11 12 3 -3 3 -13 -1 -22z m1 -136 c-3 -8 -6 -5 -6 6 -1 11 2
17 5 13 3 -3 4 -12 1 -19z"/>
<path d="M7560 10755 c-7 -9 -8 -15 -2 -15 5 0 12 7 16 15 3 8 4 15 2 15 -2 0
-9 -7 -16 -15z"/>
<path d="M7716 10614 c-4 -15 -3 -31 2 -36 6 -6 11 4 14 26 5 42 -7 48 -16 10z"/>
<path d="M9927 10633 c-11 -10 -8 -63 4 -63 5 0 7 5 4 10 -4 6 -2 16 4 23 11
13 -1 42 -12 30z"/>
<path d="M9941 10588 c3 -24 -1 -39 -9 -34 -4 2 -8 -33 -7 -80 0 -46 -4 -84
-8 -84 -5 0 -5 -4 -2 -10 3 -5 1 -18 -4 -28 -12 -23 -3 -71 10 -50 12 18 11
31 -1 23 -6 -3 -7 1 -4 9 5 14 8 14 21 0 12 -11 12 -18 3 -29 -6 -8 -9 -19 -5
-25 3 -5 1 -10 -5 -10 -6 0 -8 -5 -3 -12 4 -7 8 -17 9 -23 5 -24 25 -67 30
-62 8 8 -7 77 -17 77 -5 0 -9 5 -9 10 0 6 7 10 15 10 8 0 15 8 15 18 0 14 2
15 10 2 7 -11 8 -6 5 15 -2 17 -4 37 -4 46 -1 8 -8 24 -17 35 -15 18 -15 18
-5 -3 6 -12 11 -34 10 -50 l-1 -28 -9 30 c-5 17 -10 40 -11 53 -1 12 -6 22
-10 22 -4 0 -8 4 -8 8 0 5 7 9 15 9 8 0 15 -4 15 -9 0 -5 4 -7 9 -4 5 3 7 16
3 28 -3 14 -1 19 6 14 19 -12 10 38 -12 62 -17 19 -18 22 -3 16 22 -8 22 5 0
23 -10 8 -12 12 -5 8 6 -3 12 -1 12 4 0 6 -5 11 -11 11 -5 0 -7 5 -4 10 3 6 1
10 -5 10 -6 0 -10 -6 -9 -12z m5 -114 c-5 -17 -3 -23 4 -19 5 3 10 15 10 26 0
11 4 18 10 14 12 -8 -10 -57 -24 -52 -14 5 -18 57 -4 57 6 0 8 -10 4 -26z"/>
<path d="M9525 10550 c-3 -5 3 -10 14 -10 12 0 21 -5 21 -11 0 -6 -9 -9 -20
-6 -28 7 -25 -9 3 -18 l22 -7 -25 -8 c-21 -7 -20 -8 13 -7 39 0 59 -15 51 -38
-3 -6 2 -18 11 -25 17 -14 20 -48 4 -70 -8 -11 -9 -8 -5 15 5 25 4 27 -5 12
-6 -10 -9 -45 -6 -81 l5 -63 -70 4 c-50 4 -68 2 -64 -6 5 -8 0 -8 -17 -2 -28
11 -89 12 -82 1 2 -4 -2 -7 -9 -7 -9 0 -12 15 -12 46 l1 46 -37 -1 c-21 0 -39
4 -39 10 -1 6 -2 20 -3 30 -1 10 -9 20 -19 22 -14 2 -16 -2 -12 -19 5 -18 4
-19 -5 -7 -8 12 -9 8 -5 -15 3 -16 2 -24 -1 -17 -3 6 -10 10 -15 6 -12 -7 -11
1 5 39 12 29 11 33 -3 34 -14 1 -16 -11 -16 -78 l0 -79 -41 0 c-45 0 -55 11
-47 52 5 24 3 25 -36 24 -44 -2 -49 3 -46 51 2 36 -10 38 -37 8 -9 -11 -17
-15 -18 -9 0 5 5 15 11 21 9 9 7 12 -7 11 -26 -2 -31 -67 -7 -85 9 -7 12 -13
6 -13 -7 0 -15 5 -18 10 -3 6 -13 10 -22 10 -12 0 -13 -3 -4 -14 10 -12 8 -19
-9 -36 -21 -21 -22 -21 -41 -4 -11 10 -17 24 -15 31 3 7 0 15 -6 19 -7 5 -8 2
-3 -6 6 -10 4 -12 -8 -7 -9 3 -18 1 -21 -6 -2 -7 -5 -4 -5 6 -1 10 -5 16 -10
13 -15 -10 -29 17 -26 52 2 34 -9 43 -19 16 -10 -26 -7 -41 5 -24 7 10 9 11 7
2 -5 -21 -23 -10 -23 14 1 17 -5 21 -22 19 -15 -1 -23 3 -24 14 -6 70 -12 82
-32 61 -8 -9 -9 -11 0 -6 7 4 11 0 11 -11 -1 -10 6 -34 16 -53 21 -43 80 -114
71 -85 -5 15 -4 17 3 6 6 -8 8 -20 5 -28 -3 -7 0 -14 6 -14 26 -3 30 -4 38
-13 5 -5 2 -6 -7 -2 -8 4 -4 -2 9 -14 19 -16 26 -18 32 -8 7 10 9 10 9 1 0
-17 51 -12 57 4 3 7 11 13 19 13 8 0 11 6 7 18 -3 9 -3 14 2 10 15 -14 33 13
28 42 -6 39 12 39 32 0 8 -16 15 -32 15 -35 0 -3 0 -9 0 -13 0 -10 74 -92 84
-92 4 0 4 4 1 10 -3 6 1 7 9 4 9 -3 14 -10 11 -14 -3 -5 5 -6 16 -3 21 6 21 6
-4 19 -14 8 -36 15 -48 17 -13 2 -25 10 -27 18 -3 11 -1 11 7 -1 6 -8 11 -12
11 -8 0 3 23 -2 52 -12 49 -17 52 -17 70 0 12 11 16 23 12 35 -5 11 -4 16 3
12 6 -4 10 8 11 30 2 46 8 52 23 19 7 -14 16 -26 21 -26 5 0 7 4 4 8 -3 5 1 9
9 9 12 0 12 -4 -2 -20 -10 -11 -13 -17 -6 -14 7 4 14 -1 18 -13 4 -11 11 -18
16 -15 5 4 9 0 9 -8 0 -8 11 -22 24 -30 22 -15 24 -15 29 4 5 19 38 22 54 5 5
-5 -5 -6 -22 -2 -28 7 -29 6 -10 -7 13 -10 26 -12 42 -6 13 5 32 5 45 -1 19
-7 16 -9 -19 -9 -24 -1 -43 -5 -43 -9 0 -10 71 -9 88 2 7 4 16 6 19 2 3 -3 12
2 20 10 9 8 22 13 29 10 8 -3 14 1 14 9 0 7 5 17 12 21 7 4 8 3 4 -4 -4 -7 -3
-12 2 -12 5 0 14 11 20 25 7 15 8 25 2 25 -6 0 -10 -6 -10 -12 -1 -7 -8 -1
-16 15 -13 24 -13 30 1 55 9 15 14 19 11 10 -3 -10 -1 -20 4 -23 6 -4 10 -11
10 -17 0 -7 -6 -6 -15 2 -16 13 -20 3 -7 -17 11 -18 30 -2 36 30 3 18 1 25 -6
21 -7 -5 -9 1 -5 16 4 14 -2 41 -14 66 -10 24 -19 46 -19 50 0 4 -12 17 -26
29 -31 26 -16 43 18 22 13 -8 30 -14 39 -12 9 1 16 -3 16 -10 0 -8 -7 -11 -16
-7 -9 3 -5 -4 9 -15 13 -11 31 -18 39 -15 8 3 12 1 8 -5 -4 -5 5 -15 19 -22
32 -14 29 -15 31 9 1 11 -2 18 -7 15 -5 -3 -12 0 -16 6 -4 7 -3 9 4 5 6 -3 14
-1 17 5 5 7 -4 9 -29 5 -32 -5 -38 -3 -46 18 -5 14 -7 33 -5 44 3 16 -2 19
-28 17 -18 -1 -39 -6 -48 -9 -10 -4 -20 -3 -24 3 -8 14 -42 14 -50 1z m135
-21 c0 -4 -7 -5 -17 -2 -11 5 -14 3 -8 -6 6 -10 3 -11 -14 -2 -24 13 -29 26
-6 17 8 -3 15 -1 15 4 0 5 7 7 15 4 8 -4 15 -10 15 -15z m-598 -228 c-10 -6
-10 -10 3 -21 8 -7 15 -18 15 -24 -1 -6 -9 0 -20 13 -20 23 -19 41 3 41 8 0 8
-3 -1 -9z m31 -8 c-4 -9 -2 -14 3 -10 5 3 10 -3 10 -14 0 -23 -5 -24 -21 -2
-13 18 -10 43 6 43 4 0 5 -7 2 -17z m252 -4 c-10 -15 -25 -10 -19 6 4 8 10 12
15 9 5 -3 7 -10 4 -15z m-121 -14 c-4 -8 -8 -15 -10 -15 -2 0 -4 7 -4 15 0 8
4 15 10 15 5 0 7 -7 4 -15z m-27 -51 c-3 -3 -12 -4 -19 -1 -8 3 -5 6 6 6 11 1
17 -2 13 -5z m373 -4 c11 -7 4 -10 -25 -9 -31 0 -36 2 -20 9 26 11 28 11 45 0z"/>
<path d="M7429 10508 c-6 -20 -5 -38 1 -48 5 -7 7 0 6 19 -1 26 -4 39 -7 29z"/>
<path d="M8643 10366 c1 -63 4 -113 9 -110 4 3 4 -5 -1 -18 -13 -35 -11 -220
2 -237 8 -10 9 -13 1 -8 -8 4 -10 -7 -8 -36 l4 -42 -47 2 c-34 1 -43 -1 -34
-10 14 -14 15 -30 1 -22 -5 3 -10 2 -10 -4 0 -5 6 -12 13 -14 10 -4 10 -6 0
-6 -18 -1 -16 -19 5 -41 17 -19 18 -19 31 3 13 20 13 21 -2 9 -14 -12 -14 -10
-5 22 7 23 18 36 29 36 18 0 43 55 33 72 -4 6 0 14 7 19 15 9 19 202 5 254 -4
17 -9 41 -10 55 0 14 -5 28 -11 32 -6 5 -5 8 4 8 9 0 10 4 4 13 -5 6 -9 40 -8
75 0 34 -2 62 -6 62 -3 0 -6 -51 -6 -114z m35 -241 c2 -21 -1 -42 -6 -47 -6
-6 -11 8 -13 41 -3 31 0 50 6 48 6 -2 11 -21 13 -42z m-21 -87 c-3 -8 -6 -5
-6 6 -1 11 2 17 5 13 3 -3 4 -12 1 -19z m-60 -170 c-3 -8 -6 -5 -6 6 -1 11 2
17 5 13 3 -3 4 -12 1 -19z"/>
<path d="M7820 10460 c0 -5 5 -10 10 -10 6 0 10 5 10 10 0 6 -4 10 -10 10 -5
0 -10 -4 -10 -10z"/>
<path d="M7830 10429 c0 -5 -5 -7 -10 -4 -7 4 -9 -5 -5 -25 6 -36 -1 -70 -16
-70 -5 0 -9 6 -9 14 0 8 -6 16 -14 19 -9 4 -13 -2 -13 -17 0 -19 6 -23 37 -24
l37 -3 -1 61 c-1 33 -2 60 -3 60 -2 0 -3 -5 -3 -11z"/>
<path d="M9600 10410 c0 -5 5 -10 11 -10 5 0 7 5 4 10 -3 6 -8 10 -11 10 -2 0
-4 -4 -4 -10z"/>
<path d="M9804 10383 c23 -12 30 -12 44 -1 13 11 15 11 9 -4 -4 -13 -1 -16 14
-13 10 2 19 -1 19 -8 0 -7 4 -7 13 2 10 11 9 14 -2 18 -11 5 -11 7 0 14 8 5 1
7 -19 7 -18 -1 -35 -5 -38 -10 -3 -4 -10 -8 -15 -8 -6 0 -8 4 -5 9 3 5 -6 9
-21 9 l-27 0 28 -15z"/>
<path d="M7760 10386 c0 -2 7 -7 16 -10 8 -3 12 -2 9 4 -6 10 -25 14 -25 6z"/>
<path d="M7801 10364 c0 -11 3 -14 6 -6 3 7 2 16 -1 19 -3 4 -6 -2 -5 -13z"/>
<path d="M7445 10313 c6 -5 11 -26 13 -48 4 -46 21 -84 22 -47 0 13 -5 32 -11
43 -14 27 -4 56 15 40 7 -6 16 -8 19 -4 4 3 7 1 7 -5 0 -16 -18 -24 -23 -10
-2 7 -8 10 -12 6 -4 -4 -3 -13 2 -20 6 -7 13 -30 16 -50 4 -29 3 -36 -9 -31
-16 6 -20 -22 -4 -32 6 -3 8 -18 5 -33 -5 -23 -4 -24 5 -7 8 15 9 10 4 -22 -4
-30 -2 -43 6 -43 10 0 10 -3 0 -15 -7 -9 -10 -30 -6 -54 3 -22 1 -43 -4 -46
-5 -3 -8 -20 -8 -38 1 -17 3 -26 5 -19 5 13 23 17 23 4 0 -5 -12 -14 -26 -21
-15 -6 -24 -14 -21 -18 3 -3 -9 -26 -28 -51 -19 -25 -35 -48 -35 -51 0 -4 -14
-15 -30 -24 -24 -14 -29 -23 -24 -41 4 -16 0 -25 -10 -29 -9 -4 -16 -2 -16 2
0 5 6 11 13 14 10 4 10 7 0 18 -10 9 -13 10 -13 1 0 -7 -3 -11 -7 -10 -8 2
-44 -16 -123 -61 -19 -10 -34 -25 -32 -31 1 -7 -3 -10 -10 -8 -14 5 -17 4 -81
-53 -53 -46 -67 -68 -77 -114 -4 -21 -11 -29 -23 -27 -9 2 -17 -1 -17 -5 0 -5
20 -8 45 -9 l46 0 -5 41 -5 41 42 -1 c40 0 42 1 43 31 1 40 11 55 31 47 11 -4
14 -3 9 5 -9 16 7 15 22 0 7 -7 12 -8 13 -2 0 5 2 17 4 27 2 9 -1 17 -7 17 -6
0 -8 -7 -4 -15 3 -8 1 -15 -4 -15 -14 0 -21 18 -10 25 6 4 8 11 5 16 -3 5 1 6
10 3 11 -4 14 -2 10 9 -5 12 2 14 37 11 67 -5 138 36 124 72 -5 12 -1 14 17 9
17 -5 19 -4 7 4 -12 8 -12 13 -2 23 9 9 12 9 12 -1 0 -7 4 -10 9 -6 5 3 13 0
17 -6 4 -8 3 -9 -4 -5 -7 4 -12 2 -12 -3 0 -6 9 -11 20 -11 14 0 20 7 20 21 0
11 -4 17 -10 14 -14 -9 -12 8 3 29 8 11 27 18 50 19 l37 1 0 64 c0 50 -4 68
-17 79 -10 8 -12 12 -5 8 7 -4 12 1 13 12 1 10 2 25 3 33 1 8 -3 21 -9 29 -7
10 -7 13 0 9 7 -4 11 26 12 85 1 60 -1 85 -7 72 -8 -18 -9 -18 -9 -2 -1 10 4
27 9 38 8 14 7 19 -2 19 -9 0 -9 3 0 12 16 16 15 31 0 22 -10 -6 -10 -4 0 7 6
7 12 24 12 39 0 22 -4 25 -43 28 -23 1 -37 -1 -32 -5z m15 -516 c-24 -23 -37
-33 -28 -22 40 52 62 74 67 70 3 -3 -15 -25 -39 -48z m48 -3 c0 -16 -3 -21 -8
-14 -5 9 -9 9 -14 1 -4 -6 -12 -11 -18 -11 -6 0 -1 11 12 25 13 14 24 25 25
25 2 0 3 -12 3 -26z m-97 -67 c-10 -9 -11 -8 -5 6 3 10 9 15 12 12 3 -3 0 -11
-7 -18z m-131 -88 c-21 -12 -26 -17 -12 -14 12 4 22 2 22 -3 0 -4 -16 -8 -35
-8 -19 1 -35 2 -35 3 0 5 75 42 85 42 6 0 -6 -9 -25 -20z m-130 -88 c0 -13
-28 -22 -35 -11 -3 4 1 11 7 13 20 8 28 8 28 -2z m-48 -43 c-9 -9 -12 -9 -12
0 0 6 -10 1 -23 -11 -12 -12 -18 -25 -14 -28 5 -4 4 -10 -2 -13 -6 -4 -11 -1
-11 6 0 8 -5 6 -11 -5 -5 -9 -8 -21 -4 -26 6 -10 -13 -26 -21 -18 -9 9 17 50
55 89 22 23 40 33 46 27 5 -6 5 -13 -3 -21z m-7 -28 c-3 -5 -11 -10 -16 -10
-6 0 -7 5 -4 10 3 6 11 10 16 10 6 0 7 -4 4 -10z m-68 -95 c0 -11 -4 -12 -14
-4 -7 6 -13 13 -13 15 0 2 6 4 13 4 8 0 14 -7 14 -15z"/>
<path d="M8896 10302 c-3 -6 -1 -14 5 -17 15 -10 25 3 12 16 -7 7 -13 7 -17 1z"/>
<path d="M9973 10251 c0 -11 4 -18 8 -15 5 2 5 -11 2 -31 -4 -22 -1 -41 8 -52
13 -16 12 -17 -3 -5 -25 20 -27 0 -2 -27 l23 -23 -4 77 c-3 42 -8 81 -11 86
-9 16 -23 10 -21 -10z"/>
<path d="M9405 10190 c3 -5 11 -10 16 -10 6 0 7 5 4 10 -3 6 -11 10 -16 10 -6
0 -7 -4 -4 -10z"/>
<path d="M9690 10186 c-13 -13 -13 -29 0 -21 6 3 10 1 10 -6 0 -7 11 -2 25 11
14 13 25 19 25 14 0 -5 9 -10 20 -10 14 0 16 4 9 11 -13 13 -76 14 -89 1z"/>
<path d="M9803 10183 c9 -14 -15 -23 -47 -17 -13 2 -27 0 -30 -4 -3 -5 11 -9
31 -10 20 -1 41 -6 47 -12 5 -5 18 -10 29 -10 10 0 16 -3 14 -7 -2 -5 10 -21
27 -38 16 -16 24 -22 17 -12 -8 9 -10 17 -6 17 5 0 0 9 -10 20 -10 11 -14 20
-10 20 4 0 0 9 -11 21 -17 19 -19 19 -25 2 -7 -16 -8 -15 -8 4 -1 12 -6 25
-13 29 -6 4 -8 3 -5 -3z"/>
<path d="M8987 10129 c-15 -6 -25 -15 -21 -20 3 -5 0 -9 -5 -9 -6 0 -11 6 -11
13 0 8 -3 7 -9 -3 -6 -8 -7 -19 -3 -25 3 -5 -1 -4 -9 2 -13 10 -23 5 -60 -34
-24 -25 -38 -43 -31 -39 6 4 12 2 12 -3 0 -6 -7 -11 -15 -11 -8 0 -15 -4 -15
-10 0 -17 16 -11 39 15 12 15 18 31 14 38 -5 9 -3 9 8 0 11 -9 20 -6 43 12 18
14 26 28 22 36 -4 8 -2 7 6 -2 9 -10 21 -13 38 -8 14 4 18 8 10 9 -8 1 0 7 17
13 18 7 34 17 35 22 4 14 -32 16 -65 4z m-85 -66 c-6 -2 -9 -10 -6 -15 4 -7 2
-8 -5 -4 -13 9 -5 26 12 25 9 0 8 -2 -1 -6z"/>
<path d="M9067 10121 c-3 -13 -1 -18 9 -14 7 2 10 11 7 19 -7 19 -10 18 -16
-5z"/>
<path d="M9970 10113 c0 -6 5 -15 10 -18 6 -4 9 -9 6 -13 -2 -4 0 -16 5 -27 7
-18 8 -17 8 6 1 14 -6 34 -14 45 -8 10 -15 14 -15 7z"/>
<path d="M8620 9869 c0 -5 5 -7 10 -4 6 3 10 8 10 11 0 2 -4 4 -10 4 -5 0 -10
-5 -10 -11z"/>
<path d="M8560 9801 c0 -12 5 -21 10 -21 6 0 10 6 10 14 0 8 -4 18 -10 21 -5
3 -10 -3 -10 -14z"/>
<path d="M9792 9789 c-42 -21 -92 -74 -92 -97 0 -21 14 -13 58 33 24 25 55 48
68 51 37 10 74 -3 74 -26 0 -11 5 -20 10 -20 19 0 10 49 -12 64 -30 21 -55 20
-106 -5z"/>
<path d="M8093 9745 c-11 -9 -25 -10 -40 -4 -31 12 -52 2 -48 -22 7 -35 -4
-45 -44 -43 l-39 1 -1 -118 c-1 -82 2 -119 10 -119 7 0 9 10 4 27 -8 33 0 27
24 -18 10 -18 24 -35 31 -37 9 -3 10 0 4 9 -9 14 -10 19 -13 40 0 5 -5 7 -11
4 -5 -3 -10 -1 -10 4 0 6 5 11 10 11 7 0 7 6 1 18 -5 9 -7 31 -5 47 4 30 4 30
-6 -2 -6 -18 -15 -33 -20 -33 -6 0 -6 10 0 26 13 33 13 47 0 39 -5 -3 -10 3
-10 14 0 15 5 19 21 16 17 -4 20 0 15 18 -3 12 -1 29 5 37 8 11 9 9 4 -10 l-6
-25 18 25 c52 72 64 78 150 82 24 1 37 6 30 10 -7 4 -8 8 -4 8 4 0 19 -7 32
-16 16 -11 25 -12 25 -5 0 7 12 0 27 -14 15 -14 31 -25 35 -25 18 0 24 -4 36
-22 7 -10 18 -16 23 -13 5 4 9 -1 9 -9 0 -8 6 -21 14 -28 7 -8 17 -25 21 -38
4 -14 15 -33 24 -44 9 -10 15 -19 13 -20 -2 0 1 -14 7 -29 6 -16 9 -32 6 -37
-3 -5 -1 -11 5 -15 6 -4 8 -11 5 -16 -4 -5 0 -9 7 -9 9 0 9 -3 -2 -10 -13 -8
-13 -10 1 -10 10 0 19 -12 23 -32 7 -35 15 -33 22 7 3 19 1 24 -7 19 -8 -5
-10 -2 -6 9 3 9 0 18 -9 21 -8 3 -14 11 -14 18 0 9 3 8 10 -2 5 -8 10 -10 10
-5 0 6 7 -1 15 -15 17 -29 19 -22 5 15 -8 20 -7 26 2 22 8 -2 13 -19 12 -40
-1 -24 3 -34 10 -30 6 3 5 0 -1 -8 -7 -7 -13 -18 -13 -23 1 -6 10 0 21 14 12
14 16 26 10 28 -6 2 -11 11 -11 20 0 13 2 14 9 4 6 -10 10 -9 14 7 3 12 1 19
-4 15 -5 -3 -9 -1 -9 5 0 5 -9 13 -20 16 -22 7 -28 25 -8 25 6 0 19 7 29 16
17 15 19 14 25 -11 9 -34 41 -47 71 -27 28 18 30 32 4 32 -15 0 -19 6 -18 25
1 14 8 29 15 34 12 7 -15 49 -67 103 -4 4 -8 -4 -9 -18 -1 -14 2 -23 7 -20 14
9 22 -24 10 -42 -9 -14 -10 -14 -6 6 3 12 1 22 -4 22 -5 0 -8 -14 -7 -30 1
-19 7 -29 14 -26 7 3 15 0 18 -7 2 -7 5 -4 5 6 1 9 6 17 12 17 8 0 7 5 -1 15
-7 9 -11 18 -8 20 3 3 11 -1 18 -10 10 -12 10 -21 -3 -46 -8 -19 -17 -27 -21
-20 -9 14 -58 3 -69 -16 -4 -7 -16 -13 -26 -13 -11 0 -18 -7 -17 -16 0 -9 -6
-19 -14 -22 -12 -4 -13 -2 -3 9 9 11 8 18 -2 33 -8 10 -11 24 -8 32 7 18 -26
56 -43 50 -15 -6 -27 21 -17 37 3 7 3 9 -2 5 -14 -13 -34 12 -29 37 3 20 0 23
-20 21 -14 -2 -27 3 -30 11 -3 8 -12 11 -18 8 -7 -4 -5 0 4 8 17 13 16 15 -5
26 -20 10 -20 11 -1 6 13 -3 21 0 21 7 0 18 -200 20 -224 3z m175 -16 c19 -30
11 -32 -11 -3 -10 13 -14 24 -10 24 5 0 14 -9 21 -21z m-312 -75 c-3 -9 -6
-23 -6 -32 -1 -15 -2 -15 -11 1 -12 21 -5 47 12 47 6 0 8 -7 5 -16z m482 -122
c2 -12 -2 -22 -8 -22 -6 0 -8 5 -4 12 4 6 -2 18 -12 25 -19 14 -19 15 1 11 12
-2 21 -13 23 -26z m164 -50 c-7 -2 -10 -8 -6 -13 3 -5 0 -9 -5 -9 -13 0 -13 3
-5 24 3 9 11 13 17 9 8 -5 7 -8 -1 -11z m48 -6 c0 -2 -9 -6 -20 -9 -11 -3 -18
-1 -14 4 5 9 34 13 34 5z"/>
<path d="M8483 9746 c0 -15 14 -16 35 -3 6 5 12 4 12 -2 0 -6 -11 -13 -25 -17
-25 -6 -37 -44 -14 -44 6 0 9 6 6 14 -6 15 17 16 30 1 4 -4 2 -5 -4 -1 -7 4
-13 2 -13 -3 0 -13 27 -14 35 -2 3 5 1 12 -4 16 -7 3 -7 15 -1 29 9 25 -1 29
-27 13 -8 -5 -13 -4 -13 2 0 6 -4 11 -8 11 -5 0 -9 -6 -9 -14z"/>
<path d="M9014 9721 c-44 -20 -109 -73 -125 -102 -17 -33 18 -22 64 20 80 73
160 94 191 49 l16 -22 0 21 c0 53 -69 69 -146 34z"/>
<path d="M8376 9645 c4 -8 10 -12 15 -9 11 6 2 24 -11 24 -5 0 -7 -7 -4 -15z"/>
<path d="M7330 9614 l-25 -15 25 7 c28 7 35 12 29 18 -2 2 -15 -2 -29 -10z"/>
<path d="M8430 9587 c13 -7 30 -24 37 -37 13 -24 13 -24 10 10 -2 32 -5 35
-37 37 -34 3 -34 3 -10 -10z"/>
<path d="M8639 9538 c-7 -24 -5 -38 6 -38 8 0 11 7 8 20 -5 17 -11 26 -14 18z"/>
<path d="M8467 9503 c3 -7 9 -10 14 -7 14 8 11 21 -5 21 -8 0 -12 -6 -9 -14z"/>
<path d="M8500 9510 c0 -5 5 -10 10 -10 6 0 10 5 10 10 0 6 -4 10 -10 10 -5 0
-10 -4 -10 -10z"/>
<path d="M8535 9470 c-3 -5 -2 -10 4 -10 5 0 13 5 16 10 3 6 2 10 -4 10 -5 0
-13 -4 -16 -10z"/>
<path d="M7940 9427 c0 -19 34 -49 51 -45 10 2 13 -10 12 -49 -1 -31 2 -53 8
-53 6 0 8 10 5 23 -3 12 -3 16 0 9 3 -6 11 -9 17 -5 6 4 8 1 5 -8 -4 -11 1
-15 19 -15 21 0 22 2 9 12 -9 6 -16 17 -16 23 0 7 -5 9 -11 6 -6 -4 -9 -1 -8
6 4 25 -24 69 -44 69 -10 0 -21 9 -24 20 -6 22 -23 27 -23 7z"/>
<path d="M7923 9400 c2 -32 5 -35 37 -37 34 -3 34 -3 10 10 -13 7 -30 24 -37
37 -13 24 -13 24 -10 -10z"/>
<path d="M6965 9400 c-3 -5 -1 -10 4 -10 6 0 11 5 11 10 0 6 -2 10 -4 10 -3 0
-8 -4 -11 -10z"/>
<path d="M8444 9363 c2 -9 8 -19 14 -21 6 -2 8 5 5 17 -6 25 -22 28 -19 4z"/>
<path d="M6937 9344 c-4 -4 -2 -13 5 -21 6 -7 8 -16 4 -20 -3 -3 -6 -1 -6 5 0
7 -4 12 -10 12 -5 0 -6 -7 -3 -17 5 -12 3 -14 -7 -8 -9 5 -11 4 -6 -3 4 -7 0
-22 -8 -34 -20 -28 -20 -38 -2 -38 8 0 17 10 19 23 4 19 4 19 6 -5 1 -18 -5
-28 -16 -31 -10 -3 -4 -5 12 -6 l31 -1 2 63 c2 60 -7 95 -21 81z m13 -69 c0
-8 -2 -15 -4 -15 -2 0 -6 7 -10 15 -3 8 -1 15 4 15 6 0 10 -7 10 -15z"/>
<path d="M8089 9279 c-7 -36 -6 -79 2 -79 6 0 8 3 6 8 -3 4 6 8 19 8 13 1 24
-1 24 -5 0 -3 26 -7 58 -7 56 -2 56 -2 17 7 -42 10 -75 17 -88 18 -5 1 -6 5
-3 10 3 4 -3 16 -14 26 -11 10 -20 16 -21 14z m27 -36 c-10 -11 -19 -7 -22 10
-2 15 0 16 12 6 8 -6 12 -14 10 -16z"/>
<path d="M8395 9240 c-8 -13 3 -50 15 -50 5 0 6 7 3 17 -4 11 -3 14 6 9 7 -5
10 -15 7 -23 -3 -8 -2 -11 3 -8 5 3 13 0 17 -6 4 -7 3 -9 -3 -6 -6 4 -13 0
-17 -8 -7 -18 6 -26 24 -15 13 8 12 14 -4 45 -24 44 -42 60 -51 45z"/>
<path d="M8341 9211 c-9 -6 -5 -8 13 -8 14 0 26 3 26 8 0 11 -21 11 -39 0z"/>
<path d="M8405 9170 c3 -5 8 -10 11 -10 2 0 4 5 4 10 0 6 -5 10 -11 10 -5 0
-7 -4 -4 -10z"/>
<path d="M8452 9143 c-18 -13 -25 -13 -37 -3 -11 9 -15 9 -15 1 0 -18 30 -26
50 -13 15 9 20 8 25 -6 3 -9 6 -19 6 -22 0 -3 10 -11 22 -18 13 -8 15 -11 5
-8 -10 3 -20 1 -23 -4 -6 -9 12 -23 34 -27 39 -5 61 -14 61 -24 0 -6 -3 -8 -8
-6 -4 3 -7 -7 -7 -22 -1 -24 2 -26 37 -25 21 0 38 -3 38 -8 0 -5 6 -6 13 -2 9
6 9 5 -1 -8 -6 -8 -11 -27 -10 -42 2 -23 6 -26 35 -24 25 2 30 5 21 15 -8 10
-7 12 6 7 9 -3 16 -10 16 -14 0 -5 14 -8 31 -8 24 1 27 3 15 10 -9 5 -21 6
-26 3 -6 -4 -9 -1 -8 7 2 9 -9 13 -34 13 -20 0 -40 4 -44 8 -5 4 0 5 10 1 13
-5 17 -4 12 4 -5 8 -1 10 11 5 10 -3 -2 9 -26 28 -55 43 -156 139 -146 139 4
0 2 7 -5 15 -7 8 -16 13 -20 10 -5 -3 -10 3 -12 14 -3 17 -5 17 -26 4z m93
-91 c-3 -3 -11 0 -18 7 -9 10 -8 11 6 5 10 -3 15 -9 12 -12z m85 -76 c0 -11
-30 1 -39 16 -11 18 -11 18 14 2 14 -9 25 -17 25 -18z"/>
<path d="M6885 9030 c-3 -5 -1 -10 4 -10 6 0 11 5 11 10 0 6 -2 10 -4 10 -3 0
-8 -4 -11 -10z"/>
<path d="M6901 9016 c-10 -17 -10 -29 -2 -43 5 -11 8 -23 5 -26 -3 -3 3 -3 14
-1 24 7 38 -22 15 -30 -11 -5 -13 -10 -4 -20 6 -7 8 -16 4 -19 -3 -4 -1 -7 6
-7 7 0 10 -4 6 -9 -3 -5 0 -13 6 -17 8 -5 9 -3 4 6 -6 9 -4 11 4 6 7 -5 10
-14 8 -21 -3 -6 6 -25 19 -40 13 -15 24 -23 24 -17 0 6 -4 13 -10 17 -5 3 -7
12 -3 21 8 20 13 12 20 -27 3 -19 15 -43 28 -55 25 -23 60 -40 50 -24 -3 6 1
7 9 4 9 -3 16 -1 16 5 0 6 -8 11 -17 12 -16 0 -15 1 1 8 19 7 19 8 -2 13 -12
4 -26 17 -31 30 -9 21 -10 21 -11 3 -1 -18 -3 -17 -12 5 -6 14 -10 32 -9 40 1
12 0 12 -7 2 -7 -11 -11 -8 -15 9 -4 13 -4 25 -2 28 3 2 5 -1 5 -8 0 -7 5 -9
10 -6 22 14 8 23 -34 20 l-43 -2 2 80 c1 44 -1 72 -5 62 -6 -18 -7 -17 -12 3
-8 29 -21 28 -37 -2z m26 -8 c-3 -8 -6 -5 -6 6 -1 11 2 17 5 13 3 -3 4 -12 1
-19z m6 -35 c-3 -7 -6 -13 -8 -13 -2 0 -5 6 -8 13 -3 8 1 14 8 14 7 0 11 -6 8
-14z m145 -239 c2 -13 0 -15 -6 -6 -4 6 -17 19 -28 27 -18 14 -18 15 6 6 14
-4 26 -17 28 -27z"/>
<path d="M8800 8850 c0 -14 5 -18 17 -13 10 4 14 2 10 -4 -4 -6 3 -10 18 -10
14 0 25 3 25 8 0 5 -3 8 -7 7 -16 -4 -53 14 -48 23 4 5 1 9 -4 9 -6 0 -11 -9
-11 -20z"/>
<path d="M8801 8771 l2 -48 41 -1 c32 -1 37 1 24 9 -22 12 -24 31 -3 23 17 -7
21 11 4 21 -6 4 -8 13 -5 21 3 8 2 14 -2 15 -4 0 -19 2 -35 4 -27 4 -27 3 -26
-44z m35 1 c-9 -8 -26 10 -26 26 1 15 2 15 15 -2 8 -11 13 -21 11 -24z"/>
<path d="M7080 8793 c0 -13 29 -38 35 -31 3 3 -4 13 -15 23 -11 10 -20 13 -20
8z"/>
<path d="M7122 8704 c-8 -9 -5 -16 13 -28 15 -10 25 -12 25 -6 0 6 4 9 9 6 5
-3 -2 -27 -16 -53 -13 -26 -21 -54 -18 -61 3 -8 0 -22 -7 -30 -10 -12 -10 -14
0 -8 6 4 12 2 12 -3 0 -6 -4 -11 -10 -11 -5 0 -10 -7 -10 -16 0 -11 8 -15 33
-12 17 1 35 7 39 13 12 16 9 104 -3 127 -6 11 -7 18 -1 14 6 -3 9 7 8 24 0 20
-5 29 -13 25 -7 -2 -13 1 -13 8 0 9 -2 9 -8 0 -5 -7 -13 -9 -21 -4 -19 12 19
24 44 15 13 -5 16 -4 11 4 -9 15 -59 12 -74 -4z m44 -89 c-3 -8 -1 -27 4 -41
6 -14 6 -23 1 -20 -5 4 -11 0 -14 -6 -3 -7 -4 5 -2 27 4 54 4 55 11 55 3 0 4
-7 0 -15z"/>
<path d="M8803 8600 c0 -19 2 -29 4 -22 3 6 9 12 14 12 6 0 7 -4 4 -10 -3 -5
1 -10 9 -10 14 0 38 31 42 55 1 6 -15 10 -35 10 -35 0 -37 -1 -38 -35z m55 0
c-7 -10 -14 -18 -15 -16 -6 6 9 36 18 36 5 0 4 -9 -3 -20z"/>
<path d="M8562 8514 c-1 -26 3 -42 8 -39 6 3 10 1 10 -5 0 -6 5 -8 10 -5 6 3
10 15 10 26 0 10 4 19 10 19 5 0 7 -7 4 -15 -4 -10 10 -6 48 12 54 27 59 29
79 32 5 0 8 5 5 9 -3 5 -45 10 -94 10 l-89 2 -1 -46z m145 30 c-3 -3 -12 -4
-19 -1 -8 3 -5 6 6 6 11 1 17 -2 13 -5z m-39 -17 c9 3 14 3 11 -1 -4 -4 -16
-8 -27 -11 -16 -3 -19 0 -15 13 4 9 8 11 10 5 3 -7 12 -9 21 -6z m-78 -17 c0
-5 -5 -10 -11 -10 -5 0 -7 5 -4 10 3 6 8 10 11 10 2 0 4 -4 4 -10z"/>
<path d="M8403 8464 c0 -7 7 -10 16 -6 12 4 12 0 -3 -17 -15 -16 -16 -20 -5
-16 10 4 16 0 16 -9 0 -8 -4 -13 -8 -10 -4 2 -10 0 -14 -5 -3 -5 -13 -8 -23
-7 -9 2 -28 -10 -41 -26 l-24 -30 24 4 c13 1 24 10 24 18 0 8 6 16 13 16 23 3
27 4 62 26 19 12 37 23 40 23 36 8 77 18 83 22 10 6 -11 33 -25 33 -6 0 -6 -6
1 -14 10 -12 8 -13 -8 -9 -12 3 -19 8 -16 12 5 10 -27 7 -43 -3 -6 -4 -12 -4
-12 1 0 4 -13 8 -28 9 -17 1 -29 -4 -29 -12z m84 -19 c0 -8 -3 -13 -5 -10 -3
3 -13 -2 -23 -11 -17 -15 -18 -15 -16 4 0 11 6 18 13 15 7 -2 15 0 19 6 9 15
12 14 12 -4z"/>
<path d="M7112 8425 c0 -16 2 -22 5 -12 2 9 2 23 0 30 -3 6 -5 -1 -5 -18z"/>
<path d="M8323 8378 c-2 -16 1 -17 13 -8 18 15 18 27 1 27 -7 0 -14 -9 -14
-19z"/>
<path d="M7112 8335 c0 -16 2 -22 5 -12 2 9 2 23 0 30 -3 6 -5 -1 -5 -18z"/>
<path d="M8250 8302 c-13 -14 -12 -15 5 -8 19 7 19 6 0 -14 -19 -20 -19 -21 1
-14 17 7 17 5 -4 -18 -12 -13 -20 -27 -17 -30 3 -2 -2 -5 -10 -5 -10 0 -14 6
-10 16 4 11 0 10 -16 -5 -17 -15 -21 -15 -17 -3 4 9 1 16 -6 16 -8 0 -13 -12
-12 -29 1 -15 5 -28 10 -28 5 0 3 -7 -4 -16 -11 -12 -11 -15 0 -12 7 2 15 -3
17 -10 3 -7 -1 -11 -8 -10 -9 2 -13 -13 -15 -52 -1 -39 1 -49 8 -37 5 9 7 21
3 26 -3 5 -1 12 5 16 5 3 10 15 10 26 0 10 5 19 11 19 6 0 7 5 2 13 -15 23
-10 53 10 54 18 2 18 1 2 -17 -13 -14 -14 -20 -3 -26 7 -4 10 -4 6 0 -6 7 14
43 59 106 10 14 18 30 18 35 1 6 7 9 14 7 7 -1 10 2 6 8 -5 8 -11 8 -19 1 -7
-6 -16 -7 -22 -2 -5 6 -15 3 -24 -7z"/>
<path d="M7136 8224 c-7 -18 5 -58 20 -67 7 -4 11 -14 8 -21 -3 -8 0 -25 7
-38 7 -13 14 -29 15 -37 4 -19 34 -49 34 -33 0 7 -4 12 -10 12 -5 0 -10 5 -10
11 0 8 5 8 15 -1 9 -7 13 -21 9 -35 -3 -13 0 -26 7 -30 8 -6 10 -4 5 6 -4 8 0
5 8 -5 9 -11 16 -26 16 -33 0 -21 16 -15 17 7 1 13 -2 18 -10 13 -8 -4 -8 -1
1 9 7 9 12 34 11 57 l-3 40 -38 -4 c-30 -4 -38 -2 -38 10 0 9 -4 13 -10 10
-14 -9 -13 8 2 23 9 9 9 12 0 12 -7 0 -12 -5 -12 -12 0 -6 -3 -8 -6 -5 -4 4
-2 12 4 19 5 7 13 34 17 61 l7 47 -31 -2 c-17 -1 -33 -8 -35 -14z m46 -13 c6
10 7 6 3 -11 -9 -33 -21 -45 -30 -29 -6 8 -4 10 5 4 10 -6 12 -1 7 21 -3 16
-4 23 0 15 5 -11 7 -11 15 0z m68 -178 c0 -32 -5 -28 -14 10 -4 19 -3 26 4 22
5 -3 10 -18 10 -32z m17 5 c-3 -8 -6 -5 -6 6 -1 11 2 17 5 13 3 -3 4 -12 1
-19z"/>
<path d="M8005 7987 c-6 -20 -2 -47 7 -47 4 0 8 7 8 15 0 8 3 14 8 14 21 -4
32 2 26 14 -6 9 -5 9 8 0 8 -7 19 -9 23 -5 5 4 5 1 1 -5 -4 -8 -1 -13 9 -13
10 0 13 5 9 13 -4 6 -3 9 1 4 5 -4 9 -16 10 -27 2 -19 1 -19 -26 1 -15 11 -30
16 -32 11 -3 -4 12 -17 33 -29 l38 -22 10 39 c6 24 6 42 1 46 -5 3 -9 -1 -9
-8 0 -8 -3 -9 -8 -3 -10 15 -112 16 -117 2z"/>
<path d="M7306 7908 c3 -5 15 -6 27 -3 21 6 21 5 4 -9 -18 -14 -18 -15 2 -26
12 -6 21 -8 21 -5 0 4 15 -10 34 -29 29 -31 42 -38 71 -36 3 1 13 -6 21 -15 9
-8 20 -13 25 -10 12 8 12 52 -1 60 -5 3 -10 0 -10 -7 0 -10 -2 -10 -9 1 -5 7
-13 11 -18 8 -17 -11 -33 10 -35 45 l-1 36 -68 -1 c-37 0 -66 -4 -63 -9z m81
-15 c3 -7 -4 -9 -18 -6 -17 5 -20 3 -14 -7 5 -9 4 -11 -4 -6 -9 6 -9 11 0 22
13 16 31 14 36 -3z m41 -46 c5 -24 -15 -21 -21 4 -3 13 -1 19 6 16 7 -2 13
-11 15 -20z m52 -33 c0 -2 -11 -3 -24 -2 -14 1 -23 5 -20 9 4 7 44 0 44 -7z"/>
<path d="M7928 7903 c15 -28 15 -36 0 -27 -7 4 -10 4 -6 -1 4 -4 2 -17 -4 -29
-6 -11 9 -1 33 24 42 42 57 67 25 41 -11 -9 -15 -9 -19 1 -4 10 -6 10 -6 -1
-1 -11 -4 -11 -18 0 -15 13 -15 12 -5 -8z"/>
<path d="M7768 7833 c6 -3 9 -10 5 -16 -4 -7 -8 -22 -9 -33 -1 -20 2 -21 28
-12 29 10 29 27 0 29 -14 0 -13 2 3 8 11 5 23 4 26 -1 7 -11 59 1 59 14 0 5 5
6 10 3 6 -3 10 -2 10 3 0 5 -33 9 -72 9 -40 0 -67 -2 -60 -4z"/>
<path d="M7578 7753 c6 -2 18 -2 25 0 6 3 1 5 -13 5 -14 0 -19 -2 -12 -5z"/>
</g>
</svg>
