<?xml version="1.0" standalone="no"?>
<!DOCTYPE svg PUBLIC "-//W3C//DTD SVG 20010904//EN"
 "http://www.w3.org/TR/2001/REC-SVG-20010904/DTD/svg10.dtd">
<svg version="1.0" xmlns="http://www.w3.org/2000/svg"
 width="2000.000000pt" height="2000.000000pt" viewBox="0 0 2000.000000 2000.000000"
 preserveAspectRatio="xMidYMid meet">

<g transform="translate(0.000000,2000.000000) scale(0.100000,-0.100000)"
fill="#000000" stroke="none">
<path d="M10 9995 l0 -9995 9995 0 9995 0 0 9995 0 9995 -9995 0 -9995 0 0
-9995z m9130 8115 c15 -15 20 -33 20 -76 0 -48 4 -59 29 -85 l29 -29 787 0
787 0 29 29 c25 26 29 37 29 85 0 43 5 61 20 76 20 20 30 20 574 18 l554 -3
26 -24 c14 -13 30 -39 37 -58 8 -25 10 -962 6 -3578 -5 -3423 -6 -3545 -24
-3569 -10 -13 -28 -29 -41 -35 -36 -17 -3959 -15 -3991 2 -13 6 -32 23 -42 37
-18 24 -19 144 -19 3587 -1 2573 2 3569 10 3584 6 11 26 29 43 39 31 19 55 20
575 20 529 0 542 0 562 -20z m2400 -7440 c0 -5 7 -7 15 -4 8 4 15 1 15 -5 0
-6 6 -10 13 -9 8 2 11 -7 10 -27 -9 -106 -9 -124 -1 -119 4 3 8 16 8 28 0 13
7 37 15 52 l16 29 -5 -30 c-3 -16 -10 -47 -16 -67 -6 -20 -10 -40 -8 -45 1 -4
-6 -25 -15 -47 -19 -43 -22 -77 -8 -91 6 -6 4 -26 -4 -50 -9 -24 -11 -41 -5
-43 15 -5 12 -59 -5 -92 -16 -31 -32 -42 -21 -15 3 8 1 15 -4 15 -12 0 -13
-37 -2 -42 5 -1 3 -16 -5 -33 l-14 -30 6 30 c5 23 4 27 -5 19 -6 -6 -14 -30
-17 -53 -4 -31 -10 -41 -24 -41 -10 0 -21 -10 -25 -22 -12 -39 -45 -52 -37
-15 4 19 2 18 -12 -5 -8 -16 -21 -28 -28 -28 -8 0 -6 -4 3 -10 11 -7 11 -10 2
-10 -7 0 -10 -5 -6 -11 5 -9 -1 -10 -20 -5 -19 5 -26 3 -26 -9 0 -8 -4 -15
-10 -15 -5 0 -10 5 -10 10 0 16 -27 12 -34 -6 -3 -8 -11 -12 -16 -9 -6 4 -17
1 -25 -5 -8 -7 -21 -10 -30 -7 -8 4 -17 1 -21 -4 -4 -7 -17 -8 -33 -3 -14 4
-64 8 -111 8 -72 1 -85 3 -82 17 2 12 -5 16 -24 13 -14 -1 -28 -5 -31 -7 -9
-10 -108 32 -111 47 -2 9 -14 14 -31 14 -16 -1 -49 13 -77 32 -47 33 -67 52
-146 143 -91 106 -161 176 -169 171 -5 -3 -9 2 -9 10 0 8 -5 18 -12 22 -7 5
-8 2 -3 -7 7 -11 -29 15 -55 41 -3 3 -18 11 -35 19 -16 7 -38 17 -48 22 -10 5
-68 16 -129 24 -130 17 -123 17 -114 8 4 -4 -23 -13 -61 -20 -119 -23 -131
-27 -153 -55 -12 -16 -27 -28 -34 -28 -15 0 -88 -74 -81 -82 4 -3 0 -5 -8 -4
-8 0 -44 -39 -81 -89 -37 -49 -72 -90 -78 -90 -7 0 -17 -10 -24 -22 -6 -13
-14 -20 -17 -16 -4 3 -7 0 -7 -8 0 -29 -122 -100 -191 -113 -21 -4 -51 -14
-69 -23 -20 -9 -35 -12 -39 -6 -4 6 -19 4 -41 -5 -46 -20 -111 -23 -131 -6
-12 11 -24 11 -54 3 -50 -14 -152 5 -176 32 -20 24 -30 24 -23 2 5 -16 4 -16
-10 1 -8 10 -21 16 -28 14 -13 -5 -54 49 -50 65 1 4 -2 7 -8 7 -5 0 -10 7 -10
15 0 8 -4 15 -9 15 -5 0 -7 -10 -3 -22 3 -14 2 -19 -6 -14 -7 4 -12 15 -12 25
0 9 -13 30 -29 45 -29 28 -67 102 -75 148 -3 13 -5 24 -5 26 -1 2 -6 0 -11 -3
-8 -5 -8 -11 -1 -19 6 -7 8 -16 4 -20 -4 -4 -1 -11 7 -16 9 -6 10 -10 3 -10
-16 0 -20 8 -28 53 -6 31 -5 36 8 31 13 -5 12 3 -5 51 -11 31 -17 59 -14 62 3
4 6 -1 6 -10 0 -26 17 -20 22 8 3 13 2 22 -3 20 -16 -10 -18 12 -3 40 8 15 12
30 9 33 -3 3 -5 -1 -5 -8 0 -7 -3 -10 -7 -7 -3 4 -13 1 -21 -6 -13 -10 -14 -9
-7 3 5 8 8 23 7 33 -2 9 2 17 7 17 6 0 11 -5 11 -11 0 -5 5 -7 10 -4 12 7 14
26 3 24 -29 -5 -39 5 -49 46 -6 25 -7 45 -3 45 4 0 10 17 14 38 4 20 14 45 22
54 15 16 113 17 1564 18 1009 0 1549 -3 1549 -10z m77 -272 c-3 -7 -5 -2 -5
12 0 14 2 19 5 13 2 -7 2 -19 0 -25z m-3210 -20 c-3 -8 -6 -5 -6 6 -1 11 2 17
5 13 3 -3 4 -12 1 -19z m1907 -90 c13 -13 52 -86 86 -163 92 -208 119 -268
128 -285 5 -9 112 -43 268 -85 142 -39 325 -92 405 -118 81 -26 161 -47 178
-47 17 0 184 56 372 125 343 126 386 137 446 114 55 -21 345 -194 355 -212 14
-27 1 -71 -26 -87 -54 -34 -406 -366 -406 -383 0 -11 31 -53 70 -94 80 -87
143 -179 191 -275 32 -66 33 -67 83 -76 28 -5 202 -37 386 -71 184 -34 345
-64 357 -67 18 -5 30 -30 67 -142 l46 -137 0 -496 c0 -460 -1 -497 -17 -512
-17 -15 -36 -21 -58 -18 -5 0 -10 18 -10 39 -1 39 -10 158 -25 332 -5 58 -14
179 -20 270 -13 194 -18 251 -22 255 -8 8 -699 -84 -724 -97 -20 -9 -43 -40
-76 -100 -59 -110 -112 -181 -205 -279 -40 -42 -73 -83 -73 -91 0 -16 36 -52
278 -271 89 -82 162 -154 161 -160 -2 -35 -26 -56 -145 -127 l-129 -78 2 -53
c2 -56 15 -255 37 -609 8 -113 12 -209 10 -215 -3 -6 -32 -28 -67 -50 -50 -31
-73 -40 -122 -43 -55 -4 -76 2 -240 64 -99 37 -181 68 -183 69 -6 5 -3 42 21
245 14 113 32 284 42 380 9 96 21 187 25 202 5 14 5 29 2 33 -4 4 -7 12 -7 18
0 13 -362 152 -420 162 -31 5 -76 -5 -205 -43 -91 -27 -191 -55 -223 -62 l-57
-12 5 -46 c3 -26 19 -189 35 -362 32 -338 44 -449 51 -465 2 -6 0 -11 -5 -12
-5 -1 -12 -6 -15 -11 -7 -11 -160 -45 -305 -67 -113 -18 -125 -23 -158 -65
-19 -24 -24 -27 -25 -13 -1 10 -15 119 -32 243 -16 124 -33 249 -36 279 -8 65
-13 92 -18 98 -3 2 -15 -24 -27 -57 -13 -33 -30 -66 -39 -73 -10 -7 -17 -27
-18 -47 0 -19 -1 -227 -2 -461 -1 -396 -2 -427 -18 -434 -31 -14 -442 -18
-472 -6 -18 8 -43 40 -78 99 l-51 87 -1 459 -2 459 -88 150 -88 150 -89 24
c-49 13 -146 39 -217 58 -70 18 -125 30 -122 26 2 -5 5 -210 5 -457 l0 -449
-27 2 c-16 1 -102 26 -193 54 -91 28 -183 51 -205 51 -24 0 -108 -24 -207 -60
-92 -33 -175 -58 -185 -56 -15 4 -17 14 -15 52 2 40 -33 737 -41 797 -1 11 4
26 13 32 8 7 -50 -10 -128 -37 -170 -59 -222 -63 -294 -25 -26 14 -50 25 -53
25 -3 0 -5 -203 -5 -451 0 -249 -1 -453 -2 -455 -4 -4 -220 116 -242 135 -14
12 -16 60 -16 482 l0 468 -52 10 c-29 6 -73 15 -98 19 -32 6 -44 13 -41 23 2
8 5 46 6 84 1 39 5 80 8 90 4 11 9 88 12 170 10 245 16 355 24 448 4 48 3 87
-2 87 -4 0 -6 4 -3 8 3 5 0 9 -7 10 -7 0 -104 19 -216 41 -113 23 -213 41
-222 41 -22 0 -22 -5 -50 -495 -11 -203 -23 -372 -25 -374 -10 -11 -35 43 -65
141 l-32 108 12 207 c7 115 14 244 17 288 3 44 6 107 8 141 1 33 6 66 11 74 5
8 4 11 -2 7 -5 -3 -8 5 -6 21 2 15 -9 70 -25 122 -49 156 -60 150 406 211 202
27 368 49 370 49 1 0 2 211 2 469 0 258 3 476 6 485 3 9 85 62 182 118 166 96
180 102 232 102 46 1 111 -20 388 -122 183 -68 348 -126 366 -129 23 -4 78 8
172 36 188 55 321 86 498 116 82 13 159 31 171 39 15 10 46 77 104 233 83 218
98 248 136 264 11 4 138 8 282 8 258 1 262 1 287 -21z m1638 -5372 c95 -35
133 -117 110 -237 -18 -97 -202 -670 -239 -743 -46 -91 -123 -167 -198 -195
-95 -36 -181 -43 -469 -39 l-271 3 -59 30 c-76 38 -96 73 -96 166 0 67 3 78
174 629 57 183 107 269 190 328 99 70 175 81 531 78 235 -3 288 -6 327 -20z
m-6712 -6 c0 -6 -16 -60 -36 -120 l-35 -110 -271 0 c-174 0 -284 -4 -309 -11
-71 -22 -81 -42 -179 -349 -50 -157 -91 -297 -92 -312 -2 -55 9 -58 192 -58
92 0 180 5 197 10 26 9 32 21 57 100 15 49 26 97 24 107 -4 20 -52 32 -141 32
l-57 1 6 28 c4 15 18 62 31 105 l24 77 264 0 c216 0 265 -3 265 -14 0 -13
-199 -638 -205 -644 -14 -14 -344 -34 -581 -35 -275 -2 -281 -2 -325 21 -65
34 -84 70 -83 162 0 66 12 112 93 370 118 377 134 418 187 489 63 84 161 140
269 154 71 9 705 7 705 -3z m1214 2 c2 -4 -12 -58 -32 -120 l-36 -112 -298 0
c-255 0 -302 -2 -323 -16 -33 -22 -81 -164 -65 -193 10 -20 19 -21 240 -21
185 0 230 -3 230 -13 0 -8 -16 -64 -35 -125 l-36 -112 -235 0 c-141 0 -243 -4
-254 -10 -26 -14 -77 -176 -63 -199 9 -14 49 -17 304 -22 162 -3 297 -7 301
-8 4 0 1 -22 -7 -47 -15 -51 -11 -77 14 -72 18 4 42 37 454 633 l304 440 172
3 c132 2 173 0 176 -10 4 -11 48 -679 71 -1070 l7 -118 -167 0 c-151 0 -166 2
-167 18 -3 85 -13 151 -25 170 -14 22 -18 22 -207 22 -223 0 -194 13 -291
-127 l-58 -83 -164 0 c-121 0 -164 3 -164 12 0 9 -3 9 -12 0 -9 -9 -126 -12
-467 -12 -251 0 -461 4 -467 8 -14 8 -3 55 61 257 24 77 99 316 166 530 67
215 123 393 126 398 6 9 940 9 947 -1z m2180 -7 c77 -20 111 -46 132 -100 23
-62 15 -140 -30 -290 -67 -222 -136 -331 -251 -393 -26 -15 -53 -35 -59 -44
-8 -13 -1 -55 27 -170 21 -84 37 -161 37 -171 0 -16 -13 -17 -162 -15 l-163 3
-40 156 c-22 86 -46 164 -54 173 -11 13 -33 16 -112 16 -118 0 -110 8 -164
-160 -21 -63 -44 -132 -52 -152 l-15 -38 -150 0 -150 0 6 33 c3 17 58 199 122
402 63 204 139 447 169 540 29 94 58 182 64 198 l11 27 388 0 c315 0 399 -3
446 -15z m1235 -22 c6 -21 34 -141 62 -268 53 -238 67 -273 106 -261 11 3 103
104 205 224 251 294 250 292 276 319 22 22 29 23 182 23 138 0 160 -2 160 -15
0 -23 -362 -1170 -372 -1181 -3 -2 -73 -3 -155 -2 l-151 3 28 95 c16 52 40
132 54 178 74 238 74 241 59 254 -22 18 -34 7 -173 -150 l-125 -141 -125 2
-125 2 -37 144 c-20 79 -44 151 -52 159 -32 32 -38 16 -178 -428 -12 -36 -27
-77 -35 -92 l-14 -28 -150 0 -150 0 6 23 c14 50 58 195 130 427 81 260 92 295
180 573 l56 177 164 0 164 0 10 -37z m3276 7 c69 -35 95 -76 95 -155 0 -123
-44 -222 -138 -314 l-66 -63 17 -27 c68 -109 76 -172 38 -291 -46 -146 -130
-244 -248 -292 -57 -22 -66 -23 -482 -26 l-423 -3 7 38 c3 21 38 139 77 263
38 124 76 248 85 275 8 28 32 104 53 170 21 66 60 188 86 270 25 83 51 158 56
168 9 17 32 18 401 15 l392 -3 50 -25z m932 13 c-3 -10 -19 -64 -36 -120 l-32
-103 -52 -1 c-29 -1 -55 -1 -58 -1 -3 0 -17 -9 -32 -21 -21 -18 -38 -61 -87
-217 -34 -107 -77 -244 -96 -303 -48 -154 -48 -154 42 -172 l52 -10 -28 -90
c-15 -49 -32 -102 -39 -117 l-11 -28 -305 0 c-200 0 -305 3 -305 10 0 6 16 59
35 119 39 120 40 121 136 121 59 0 49 -23 195 450 25 80 50 158 55 174 14 46
-10 74 -71 82 -28 4 -50 9 -50 13 0 3 16 56 36 118 l35 113 310 0 c291 0 310
-1 306 -17z m459 0 c-2 -10 -63 -205 -135 -433 -71 -228 -133 -427 -136 -443
-14 -55 -7 -57 269 -58 138 0 267 -3 287 -7 l37 -7 -28 -90 c-15 -49 -32 -102
-39 -117 l-11 -28 -460 0 c-385 0 -460 2 -460 14 0 13 89 311 109 366 6 14 24
72 41 130 17 58 49 159 70 225 21 66 62 194 90 285 29 91 54 168 57 173 2 4
74 7 159 7 143 0 155 -1 150 -17z m1684 5 c0 -7 -15 -60 -33 -118 l-33 -105
-305 -3 c-270 -2 -306 -5 -326 -20 -28 -22 -75 -170 -62 -194 9 -16 31 -18
244 -18 129 0 235 -3 234 -7 0 -5 -17 -60 -37 -123 l-38 -115 -249 -5 c-138
-3 -251 -7 -252 -8 -1 -1 -16 -45 -33 -98 -24 -74 -28 -99 -19 -110 9 -11 56
-14 234 -14 122 0 257 -3 299 -6 72 -7 76 -8 70 -28 -3 -12 -20 -65 -36 -118
l-31 -98 -475 0 c-375 0 -473 3 -469 13 2 6 12 39 21 72 10 33 42 138 72 232
30 95 90 289 135 430 114 366 130 416 141 436 8 16 41 17 478 17 370 0 470 -3
470 -12z m-11784 -1587 c48 -22 84 -64 84 -98 0 -21 -4 -24 -32 -21 -25 2 -34
8 -36 24 -5 37 -38 57 -100 61 -67 4 -103 -11 -116 -49 -17 -47 11 -67 164
-113 72 -22 106 -48 120 -90 34 -104 -108 -183 -253 -141 -64 19 -117 65 -117
102 0 20 5 24 29 24 23 0 33 -7 43 -27 19 -42 72 -65 135 -60 65 4 93 27 93
73 0 39 -17 50 -125 83 -123 37 -173 81 -161 144 17 89 165 137 272 88z m4959
8 c120 -34 175 -207 108 -340 -38 -73 -91 -104 -183 -104 -123 0 -197 72 -208
200 -7 88 12 149 59 196 55 55 135 72 224 48z m2513 -13 c35 -18 72 -69 72
-98 0 -13 -8 -18 -31 -18 -25 0 -32 5 -41 30 -13 39 -54 60 -116 60 -85 0
-132 -61 -82 -108 11 -10 61 -31 112 -46 115 -34 158 -71 158 -136 0 -54 -39
-93 -111 -110 -117 -28 -238 21 -264 108 -6 20 -3 22 28 22 29 0 37 -5 45 -28
14 -41 71 -65 138 -60 63 5 94 28 94 69 0 40 -21 56 -118 85 -133 40 -172 72
-172 139 0 32 51 89 92 103 45 15 156 9 196 -12z m3082 2 c46 -24 90 -77 90
-109 0 -15 -8 -19 -33 -19 -29 0 -35 5 -46 35 -15 42 -54 65 -111 65 -91 0
-131 -47 -138 -161 -6 -99 19 -162 72 -184 76 -32 156 -9 177 49 11 32 17 36
47 36 32 0 34 -2 27 -27 -32 -129 -249 -166 -344 -58 -75 85 -68 270 12 343
58 54 172 68 247 30z m-9986 -158 c44 -94 82 -173 86 -175 4 -2 44 74 90 170
l83 175 44 0 43 0 0 -220 0 -220 -37 0 -36 0 6 173 5 172 -83 -172 c-80 -163
-86 -173 -113 -173 -26 0 -32 9 -110 173 l-82 172 0 -172 0 -173 -35 0 -35 0
0 220 0 220 48 0 47 0 79 -170z m964 45 c30 -66 73 -164 97 -217 l44 -98 -35
0 c-33 0 -37 3 -59 55 l-25 55 -110 0 -110 0 -25 -55 c-23 -52 -26 -55 -60
-55 -20 0 -34 3 -32 8 3 4 44 95 92 202 112 252 100 232 138 228 29 -3 34 -9
85 -123z m705 111 c99 -42 112 -164 23 -217 -40 -24 -43 -14 33 -129 l49 -75
-36 -3 c-24 -2 -40 2 -47 11 -5 9 -31 50 -58 91 l-48 76 -59 0 -60 0 0 -90 0
-90 -35 0 -35 0 0 220 0 220 120 0 c80 0 132 -5 153 -14z m735 -8 c-3 -21 -9
-23 -85 -26 l-83 -3 0 -194 0 -195 -35 0 -35 0 0 195 0 195 -85 0 c-84 0 -85
0 -85 25 l0 25 206 0 205 0 -3 -22z m592 0 c78 -40 100 -127 48 -193 -26 -33
-105 -55 -200 -55 l-78 0 0 -85 0 -85 -35 0 -35 0 0 220 0 220 128 0 c113 0
133 -3 172 -22z m460 -55 c-1 -43 -1 -86 -1 -95 1 -16 14 -18 131 -18 l130 0
0 95 0 95 35 0 35 0 0 -220 0 -220 -35 0 -34 0 -3 103 c-2 74 -6 102 -15 101
-7 -1 -66 -2 -130 -2 l-118 -2 2 -100 2 -100 -38 0 -38 0 -2 220 -2 220 41 0
41 0 -1 -77z m1596 -93 l129 -170 3 170 2 170 34 0 34 0 -4 -217 -4 -218 -33
-3 c-31 -3 -37 3 -150 152 -66 85 -125 160 -133 167 -12 10 -14 -13 -14 -155
l0 -166 -30 0 c-22 0 -30 5 -30 18 0 9 -2 108 -4 220 l-5 202 37 0 c37 0 40
-3 168 -170z m872 148 c-3 -22 -7 -23 -130 -26 l-128 -3 -1 -32 c0 -18 -2 -49
-5 -69 l-5 -38 116 0 115 0 0 -25 0 -25 -115 0 -116 0 3 -77 c3 -90 -15 -80
161 -82 100 -1 107 -2 107 -21 0 -19 -7 -20 -165 -20 -125 0 -165 3 -165 13 0
6 -1 105 -4 220 l-4 207 170 0 169 0 -3 -22z m1692 -3 l0 -25 -130 0 -130 0 0
-70 0 -70 116 0 c114 0 115 0 112 -22 -3 -22 -7 -23 -115 -26 l-113 -3 0 -74
0 -75 130 0 130 0 0 -25 0 -25 -165 0 -165 0 0 220 0 220 165 0 165 0 0 -25z
m577 14 c60 -23 97 -84 86 -143 -6 -27 -44 -73 -77 -92 -18 -9 -15 -17 43
-102 l62 -92 -40 0 c-39 0 -40 1 -97 90 l-57 90 -58 0 -59 0 0 -90 0 -90 -35
0 -35 0 0 220 0 220 119 0 c66 0 132 -5 148 -11z m432 -16 c7 -16 40 -95 73
-178 33 -82 61 -151 63 -153 1 -1 35 79 76 178 l73 180 38 0 37 0 -35 -82
c-19 -46 -63 -145 -96 -220 -59 -136 -61 -138 -92 -138 l-32 0 -92 213 c-51
116 -92 215 -92 220 0 4 15 7 33 7 27 0 36 -6 46 -27z m721 -193 l0 -220 -35
0 -35 0 0 220 0 220 35 0 35 0 0 -220z m1378 198 c-3 -22 -7 -23 -130 -26
l-128 -3 0 -69 0 -70 110 0 110 0 0 -25 0 -25 -110 0 -110 0 0 -75 0 -74 128
-3 c123 -3 127 -4 130 -25 l3 -23 -170 0 -171 0 0 220 0 220 171 0 170 0 -3
-22z"/>
<path d="M8407 10571 c-3 -15 -3 -38 0 -50 4 -17 8 -19 19 -10 19 15 18 30 -1
23 -9 -4 -15 0 -15 10 0 9 7 16 15 16 17 0 18 2 9 24 -9 24 -21 19 -27 -13z"/>
<path d="M11546 10525 c-9 -26 -7 -32 5 -12 6 10 9 21 6 23 -2 3 -7 -2 -11
-11z"/>
<path d="M11552 10470 c0 -14 2 -19 5 -12 2 6 2 18 0 25 -3 6 -5 1 -5 -13z"/>
<path d="M11572 10465 c0 -16 2 -22 5 -12 2 9 2 23 0 30 -3 6 -5 -1 -5 -18z"/>
<path d="M8450 10286 c0 -8 5 -18 10 -21 6 -3 10 1 10 9 0 8 -4 18 -10 21 -5
3 -10 -1 -10 -9z"/>
<path d="M11557 10224 c-4 -4 -7 -14 -7 -23 0 -11 3 -12 11 -4 6 6 10 16 7 23
-2 6 -7 8 -11 4z"/>
<path d="M8481 10204 c0 -11 3 -14 6 -6 3 7 2 16 -1 19 -3 4 -6 -2 -5 -13z"/>
<path d="M8500 10126 c0 -9 5 -16 10 -16 6 0 10 4 10 9 0 6 -4 13 -10 16 -5 3
-10 -1 -10 -9z"/>
<path d="M7722 9154 l-2 -216 39 48 c21 27 66 76 100 109 83 81 82 91 -20 180
-45 39 -87 76 -94 83 -8 6 -15 12 -18 12 -2 0 -4 -97 -5 -216z"/>
<path d="M11469 8568 c-5 -91 -114 -398 -140 -398 -7 0 -10 -3 -6 -6 9 -9 -21
-65 -46 -87 -12 -10 -31 -20 -44 -22 -13 -3 -34 -7 -47 -10 -16 -3 -52 10
-110 41 -225 118 -530 203 -840 235 -167 16 -475 7 -636 -20 -154 -26 -355
-79 -475 -124 -80 -30 -99 -33 -175 -30 -88 2 -154 17 -181 40 -8 7 -21 13
-27 13 -6 0 -30 18 -53 40 -23 22 -38 40 -33 40 4 0 -2 7 -14 16 -12 8 -20 19
-17 24 3 5 0 12 -7 17 -17 11 -48 67 -48 88 0 9 -5 13 -11 10 -6 -4 -10 -1 -8
6 3 28 -1 40 -13 33 -7 -4 -8 -3 -4 5 4 6 2 19 -5 27 -18 21 -26 3 -35 -72
-10 -95 11 -192 64 -298 38 -76 62 -107 141 -187 107 -107 197 -169 346 -240
276 -132 599 -199 961 -199 296 0 516 33 760 115 391 130 662 355 738 614 21
71 21 208 0 283 -15 53 -33 76 -35 46z"/>
<path d="M7761 7636 c-1 -122 2 -145 13 -139 29 17 126 113 126 125 0 7 -31
46 -69 87 l-69 74 -1 -147z"/>
<path d="M11326 4675 c-10 -8 -22 -13 -25 -10 -10 6 -51 -59 -68 -107 -50
-146 -163 -517 -163 -538 0 -14 7 -36 16 -48 15 -21 20 -22 196 -22 246 0 239
-5 310 220 143 449 144 452 110 495 -17 22 -24 22 -187 24 -136 1 -174 -2
-189 -14z"/>
<path d="M6917 4443 c-17 -19 -128 -187 -146 -222 -8 -15 -9 -27 -1 -41 9 -18
21 -20 100 -20 49 0 92 5 95 10 4 6 10 8 13 6 12 -7 5 241 -8 263 -13 26 -32
27 -53 4z"/>
<path d="M8193 4670 c-116 -4 -135 -7 -153 -26 -28 -28 -102 -271 -90 -294 15
-27 32 -30 183 -30 123 0 146 3 185 21 32 16 49 32 60 58 23 55 73 224 67 229
-3 3 -5 -1 -5 -9 0 -8 -8 1 -16 18 -9 18 -20 30 -25 27 -5 -3 -23 -1 -41 3
-18 4 -93 6 -165 3z"/>
<path d="M12585 4666 c-36 -11 -42 -17 -63 -70 -13 -33 -26 -74 -29 -92 -10
-59 3 -64 151 -64 155 0 188 11 224 77 20 37 36 133 22 131 -3 -1 -18 5 -35
12 -39 17 -218 21 -270 6z"/>
<path d="M12392 4178 c-5 -7 -20 -48 -33 -91 -33 -114 -37 -111 162 -115 206
-3 229 4 259 85 23 62 24 73 9 107 l-11 24 -188 2 c-141 0 -190 -2 -198 -12z"/>
<path d="M9248 3274 c-43 -23 -68 -82 -68 -159 0 -114 43 -175 127 -182 101
-9 153 51 153 175 0 87 -19 136 -64 163 -37 23 -110 24 -148 3z"/>
<path d="M5838 3160 c-21 -49 -38 -94 -38 -100 0 -6 34 -10 85 -10 l84 0 -36
83 c-19 45 -38 90 -40 100 -3 9 -8 17 -12 17 -3 0 -23 -41 -43 -90z"/>
<path d="M6470 3200 l0 -80 75 0 c87 0 119 12 135 51 14 33 6 62 -23 89 -17
17 -35 20 -104 20 l-83 0 0 -80z"/>
<path d="M7770 3194 l0 -86 95 4 c82 3 97 6 117 25 33 33 30 89 -6 119 -24 21
-37 24 -117 24 l-89 0 0 -86z"/>
<path d="M13000 3200 l0 -80 79 0 c99 0 131 20 131 80 0 60 -32 80 -131 80
l-79 0 0 -80z"/>
</g>
</svg>
