<?xml version="1.0" standalone="no"?>
<!DOCTYPE svg PUBLIC "-//W3C//DTD SVG 20010904//EN"
 "http://www.w3.org/TR/2001/REC-SVG-20010904/DTD/svg10.dtd">
<svg version="1.0" xmlns="http://www.w3.org/2000/svg"
 width="3000.000000pt" height="2000.000000pt" viewBox="0 0 3000.000000 2000.000000"
 preserveAspectRatio="xMidYMid meet">

<g transform="translate(0.000000,2000.000000) scale(0.100000,-0.100000)"
fill="#000000" stroke="none">
<path d="M12714 15670 c-267 -40 -501 -239 -592 -505 l-27 -80 -3 -627 c-2
-484 -5 -628 -15 -628 -7 0 -29 -5 -49 -11 -63 -17 -68 -38 -68 -271 0 -205 1
-213 37 -257 2 -3 22 -7 46 -10 l42 -6 3 -217 2 -218 -34 0 c-22 0 -45 -9 -63
-24 l-28 -24 -3 -290 -3 -290 231 -115 230 -115 0 1492 c0 980 4 1513 11 1556
31 195 184 348 379 379 36 6 208 11 383 11 l317 0 0 -155 c0 -131 3 -163 20
-209 24 -63 87 -127 155 -157 42 -19 79 -19 1327 -17 1443 3 1302 -5 1394 80
69 64 84 117 84 303 l0 155 318 0 c174 0 346 -5 382 -11 195 -31 348 -184 379
-379 7 -43 11 -738 11 -2079 l0 -2014 38 6 c20 4 120 14 222 23 105 10 188 22
192 28 4 6 8 339 8 739 0 638 -2 732 -15 758 -17 31 -49 49 -91 49 l-24 0 0
1248 c0 1213 -1 1251 -20 1328 -29 115 -91 232 -167 314 -103 111 -196 170
-348 221 l-70 24 -2270 1 c-1248 1 -2293 -2 -2321 -6z"/>
<path d="M10543 14650 c-248 -22 -500 -108 -617 -211 -109 -96 -130 -292 -56
-523 38 -118 97 -232 202 -392 47 -71 92 -142 101 -159 l15 -30 6 25 c2 14 7
41 11 62 3 20 16 57 30 82 l24 45 -44 87 c-49 96 -57 151 -30 204 16 32 61 60
94 60 27 0 95 -62 111 -101 10 -24 17 -29 34 -25 12 4 34 9 49 13 21 4 26 10
22 22 -4 9 -13 40 -21 70 -20 78 -7 117 59 178 30 26 61 61 71 75 18 27 17 29
-12 92 -82 175 -50 220 158 222 l115 1 0 64 c-1 87 -10 118 -41 129 -38 15
-176 20 -281 10z"/>
<path d="M20530 13813 c-19 -2 -66 -13 -105 -25 -286 -84 -488 -322 -512 -604
l-6 -72 39 -20 c52 -26 152 -50 247 -58 74 -6 77 -6 77 14 0 23 35 52 62 52
22 0 23 7 2 27 -8 9 -14 25 -12 37 3 18 9 21 50 20 l47 0 -15 27 c-21 42 -18
96 6 109 24 13 49 2 78 -35 l20 -25 12 30 c17 41 53 41 70 0 l12 -30 28 30
c28 30 54 37 79 21 16 -11 17 -61 1 -90 -6 -12 -9 -21 -8 -22 2 0 15 -2 30 -3
42 -3 54 -20 35 -50 -16 -24 -16 -25 11 -38 20 -10 27 -20 27 -43 0 -34 -31
-55 -82 -55 l-32 0 20 -35 c35 -58 1 -95 -51 -56 -16 11 -32 21 -35 21 -3 0
-5 -22 -5 -49 0 -117 -93 -107 -114 12 l-7 37 -24 -17 c-24 -18 -24 -20 -25
-180 0 -273 44 -503 156 -804 117 -317 146 -407 166 -504 21 -109 19 -194 -8
-286 -9 -28 -14 -53 -11 -55 8 -8 103 30 147 58 85 56 141 157 171 309 9 46
13 197 14 529 1 524 -4 480 90 800 86 293 109 443 86 575 -16 93 -45 156 -103
229 -135 167 -367 248 -628 219z"/>
<path d="M13880 12642 c-18 -2 -42 -13 -51 -24 -11 -12 -26 -18 -41 -15 -21 4
-21 4 -2 6 12 0 27 8 34 16 10 12 7 13 -20 5 -18 -5 -37 -8 -44 -7 -6 1 -10
-4 -8 -11 1 -9 -6 -10 -23 -6 -32 8 -117 -15 -108 -29 4 -6 0 -8 -10 -4 -8 3
-32 -3 -53 -14 -21 -10 -45 -19 -54 -19 -11 -1 -11 -3 4 -12 18 -10 18 -11 -5
-24 -13 -7 -31 -13 -39 -13 -8 0 -2 6 15 13 24 10 26 13 12 19 -9 3 -17 2 -17
-3 0 -5 -9 -12 -20 -15 -11 -4 -18 -11 -15 -16 3 -5 0 -6 -8 -3 -8 3 -33 -7
-56 -23 -40 -28 -54 -47 -26 -37 23 9 18 -4 -6 -17 -15 -8 -19 -8 -15 0 4 6 1
11 -7 11 -17 0 -49 -34 -40 -43 3 -4 -2 -16 -12 -27 -14 -15 -21 -17 -26 -8
-12 18 -51 -20 -44 -43 7 -20 -10 -35 -21 -18 -4 8 -3 9 4 5 7 -4 12 -2 12 3
0 18 -14 12 -45 -21 -16 -18 -23 -28 -15 -23 14 9 14 8 0 -5 -50 -47 -144
-196 -134 -212 4 -7 2 -8 -4 -4 -7 4 -12 2 -12 -5 0 -7 -12 -37 -27 -68 -15
-31 -27 -73 -27 -93 0 -20 -3 -32 -7 -27 -3 6 -11 -8 -16 -30 -6 -23 -7 -38
-2 -35 5 3 9 1 9 -3 0 -10 52 -33 166 -72 49 -17 127 -44 174 -61 47 -16 139
-48 205 -70 66 -23 129 -45 140 -50 11 -5 40 -16 65 -24 82 -27 289 -119 745
-331 127 -59 268 -125 315 -147 134 -63 218 -100 330 -147 41 -18 96 -41 122
-53 51 -23 89 -25 313 -15 80 4 143 13 190 27 183 55 277 61 459 28 172 -31
437 -30 676 0 96 13 182 25 191 28 31 9 98 285 119 483 14 142 13 239 -5 350
-15 88 -51 212 -80 271 -55 113 -134 239 -157 248 -4 2 -6 7 -4 11 3 4 -12 7
-32 7 -36 -1 -37 0 -37 39 0 39 -1 40 -37 40 -45 0 -54 8 -31 26 14 12 16 12
8 0 -6 -11 -4 -13 9 -8 10 4 15 3 11 -3 -3 -6 -1 -10 4 -10 18 0 12 14 -16 40
-15 14 -24 20 -20 13 4 -6 2 -15 -4 -19 -7 -4 -9 -3 -5 4 8 14 -22 44 -36 36
-6 -4 -8 -2 -5 4 9 14 -91 85 -110 78 -8 -3 -11 -1 -8 4 3 6 2 10 -3 10 -5 0
-19 9 -32 20 -13 11 -34 20 -47 20 -12 0 -23 4 -23 9 0 11 -56 32 -64 24 -3
-3 -12 2 -21 11 -18 17 -40 22 -30 6 8 -12 7 -12 -56 1 -36 8 -47 14 -38 20 8
5 12 9 9 10 -99 19 -183 26 -285 23 -100 -4 -195 -20 -195 -34 0 -3 -19 -6
-41 -6 -27 -1 -45 -7 -51 -18 -5 -9 -27 -19 -48 -22 -22 -4 -40 -10 -40 -15 0
-5 -5 -9 -11 -9 -5 0 -7 4 -4 10 8 13 -23 1 -56 -21 -14 -10 -29 -16 -33 -12
-3 3 -6 1 -6 -6 0 -7 6 -11 13 -8 7 3 24 -1 38 -9 13 -7 20 -13 14 -13 -5 -1
-17 3 -24 8 -9 6 -22 6 -34 -1 -14 -7 -17 -7 -13 1 4 6 1 11 -6 11 -22 0 -43
-18 -43 -37 0 -13 -7 -18 -25 -17 -14 1 -27 -1 -30 -5 -3 -3 -22 -19 -43 -34
-20 -15 -44 -41 -52 -58 -9 -16 -20 -29 -26 -29 -6 0 -3 7 5 16 9 8 16 18 16
22 0 4 -14 -9 -31 -28 -17 -19 -49 -54 -71 -78 -22 -24 -37 -49 -34 -57 3 -10
0 -12 -11 -8 -12 5 -15 2 -10 -10 3 -9 1 -19 -5 -23 -7 -5 -8 -2 -3 7 4 8 -4
1 -19 -16 -14 -16 -28 -39 -32 -50 -4 -11 -15 -33 -26 -48 -11 -15 -21 -35
-22 -45 -2 -9 -8 -17 -14 -17 -7 0 -11 2 -10 5 1 3 -10 23 -24 45 -14 22 -28
49 -32 60 -4 11 -18 34 -32 50 -15 17 -23 24 -19 16 5 -9 4 -12 -3 -7 -6 4 -8
14 -5 23 5 12 2 15 -10 10 -10 -4 -14 -2 -11 7 6 15 -34 68 -46 61 -5 -3 -16
10 -25 29 -9 18 -27 44 -41 57 -26 25 -34 20 -8 -5 8 -9 11 -16 5 -16 -6 0
-17 13 -26 29 -8 17 -32 43 -52 58 -21 15 -40 31 -43 34 -3 4 -16 6 -30 5 -18
-1 -25 4 -25 17 0 19 -21 37 -43 37 -7 0 -10 -5 -6 -11 5 -8 1 -8 -13 0 -11 6
-24 7 -28 3 -5 -4 -5 -2 -2 5 4 6 1 14 -5 16 -9 4 -10 6 -1 6 6 1 15 -3 18 -9
8 -14 25 -13 25 2 0 6 -3 8 -6 5 -4 -4 -19 2 -33 12 -33 22 -64 34 -56 21 3
-6 1 -10 -4 -10 -6 0 -11 6 -11 14 0 18 -104 52 -144 47 -13 -2 -16 1 -11 11
6 10 5 11 -6 1 -7 -7 -24 -13 -38 -12 l-26 1 25 7 c59 17 -215 45 -320 33z
m1940 -36 c0 -3 -4 -8 -10 -11 -5 -3 -10 -1 -10 4 0 6 5 11 10 11 6 0 10 -2
10 -4z m403 -3 c-7 -2 -21 -2 -30 0 -10 3 -4 5 12 5 17 0 24 -2 18 -5z m-2523
-13 l-25 -7 25 -11 c17 -7 20 -11 8 -11 -9 -1 -20 4 -23 9 -3 6 -16 10 -28 11
-21 0 -21 1 -2 9 11 5 31 8 45 8 l25 0 -25 -8z m475 0 c3 -5 1 -10 -4 -10 -6
0 -11 5 -11 10 0 6 2 10 4 10 3 0 8 -4 11 -10z m1630 -20 c10 0 16 -3 12 -6
-11 -11 -55 5 -61 23 -6 16 -6 16 12 0 10 -9 27 -17 37 -17z m-2024 2 c-7 -2
-18 1 -23 6 -8 8 -4 9 13 5 13 -4 18 -8 10 -11z m496 12 c-3 -3 -12 -4 -19 -1
-8 3 -5 6 6 6 11 1 17 -2 13 -5z m80 -12 c6 -4 -19 -8 -55 -8 -51 -1 -59 1
-32 6 49 10 73 11 87 2z m-700 -8 c-3 -3 -12 -4 -19 -1 -8 3 -5 6 6 6 11 1 17
-2 13 -5z m2710 0 c-3 -3 -12 -4 -19 -1 -8 3 -5 6 6 6 11 1 17 -2 13 -5z
m-2792 -14 c3 -5 1 -10 -4 -10 -6 0 -11 5 -11 10 0 6 2 10 4 10 3 0 8 -4 11
-10z m2865 -6 c0 -8 -5 -12 -10 -9 -6 4 -8 11 -5 16 9 14 15 11 15 -7z m-1995
-14 c3 -5 -2 -10 -12 -11 -11 0 -13 -3 -5 -6 13 -5 7 -23 -9 -23 -6 0 -7 5 -4
10 3 6 1 10 -5 10 -7 0 -6 5 2 15 15 17 25 19 33 5z m1120 -7 c-19 -15 -19
-15 10 -10 17 4 24 4 17 1 -6 -3 -9 -11 -5 -17 4 -7 0 -8 -13 -3 -10 5 -27 11
-37 13 -16 5 -16 7 5 18 33 18 47 17 23 -2z m940 -3 c-3 -5 6 -12 20 -16 14
-3 24 -9 21 -12 -9 -8 -66 20 -60 29 3 5 10 9 15 9 6 0 7 -4 4 -10z m-35 -4
c0 -3 -4 -8 -10 -11 -5 -3 -10 -1 -10 4 0 6 5 11 10 11 6 0 10 -2 10 -4z
m-2923 -21 c0 -8 -4 -15 -9 -15 -4 0 -8 7 -8 15 0 8 4 15 8 15 5 0 9 -7 9 -15z
m43 0 c-7 -9 -15 -13 -17 -11 -7 7 7 26 19 26 6 0 6 -6 -2 -15z m2835 4 c11
-17 -1 -21 -15 -4 -8 9 -8 15 -2 15 6 0 14 -5 17 -11z m-3018 -44 c-4 -8 -17
-15 -29 -14 l-23 0 23 9 c12 5 22 15 22 21 0 7 3 10 6 6 4 -3 4 -13 1 -22z
m3217 -5 c7 0 21 -9 31 -20 17 -18 17 -20 2 -14 -9 3 -17 10 -17 15 0 5 -11 9
-25 9 -19 0 -25 5 -25 23 1 20 2 20 11 5 5 -10 16 -18 23 -18z m-1987 -35 c5
-4 0 -5 -11 -1 -10 3 -24 2 -31 -4 -9 -7 -16 -6 -23 3 -9 10 -4 12 24 12 18
-1 37 -5 41 -10z m791 -3 c-8 -9 -14 -9 -24 -1 -15 12 -54 -4 -54 -24 -1 -12
-45 -67 -54 -67 -11 0 37 71 60 89 27 21 89 24 72 3z m1201 2 c2 -2 2 -7 -2
-10 -3 -3 -16 2 -29 11 l-23 17 25 -7 c14 -4 27 -9 29 -11z m-1940 -59 c11
-19 18 -35 15 -35 -7 0 -53 54 -54 63 0 18 20 4 39 -28z m-109 15 c0 -5 -4
-10 -10 -10 -5 0 -10 5 -10 10 0 6 5 10 10 10 6 0 10 -4 10 -10z m680 -81 c0
-5 -7 -9 -15 -9 -9 0 -12 6 -9 15 6 15 24 11 24 -6z m-500 1 c0 -5 -2 -10 -4
-10 -3 0 -8 5 -11 10 -3 6 -1 10 4 10 6 0 11 -4 11 -10z m-1565 -32 c5 4 5 1
1 -6 -6 -10 -11 -10 -22 -1 -8 6 -14 14 -14 16 0 3 6 0 13 -6 8 -6 18 -7 22
-3z m1635 -22 c0 -2 -7 -9 -15 -16 -13 -11 -14 -10 -9 4 5 14 24 23 24 12z
m364 -12 c5 -14 4 -15 -9 -4 -17 14 -19 20 -6 20 5 0 12 -7 15 -16z m-374 -38
c0 -3 -4 -8 -10 -11 -5 -3 -10 -1 -10 4 0 6 5 11 10 11 6 0 10 -2 10 -4z m380
-6 c0 -5 -4 -10 -10 -10 -5 0 -10 5 -10 10 0 6 5 10 10 10 6 0 10 -4 10 -10z
m-297 -60 c3 -11 1 -18 -4 -14 -5 3 -9 12 -9 20 0 20 7 17 13 -6z m200 -24 c6
-15 -17 -16 -30 -1 -4 4 -2 5 5 1 6 -4 12 -2 12 3 0 15 7 14 13 -3z m-2082
-63 c-12 -20 -14 -14 -5 12 4 9 9 14 11 11 3 -2 0 -13 -6 -23z m3969 -8 c0 -5
-5 -3 -10 5 -5 8 -10 20 -10 25 0 6 5 3 10 -5 5 -8 10 -19 10 -25z"/>
<path d="M16293 12603 c9 -2 23 -2 30 0 6 3 -1 5 -18 5 -16 0 -22 -2 -12 -5z"/>
<path d="M15635 12580 c-13 -5 -14 -9 -5 -9 8 0 24 4 35 9 13 5 14 9 5 9 -8 0
-24 -4 -35 -9z"/>
<path d="M14570 12460 c0 -5 5 -10 10 -10 6 0 10 5 10 10 0 6 -4 10 -10 10 -5
0 -10 -4 -10 -10z"/>
<path d="M15410 12460 c0 -5 5 -10 10 -10 6 0 10 5 10 10 0 6 -4 10 -10 10 -5
0 -10 -4 -10 -10z"/>
<path d="M13247 12373 c-10 -9 -9 -23 2 -23 5 0 11 7 15 15 5 15 -5 20 -17 8z"/>
<path d="M16814 12276 c1 -17 6 -22 21 -21 27 3 27 2 8 25 -23 26 -31 25 -29
-4z"/>
<path d="M19963 12241 c-61 -106 -110 -137 -293 -186 -215 -57 -341 -112 -458
-200 -57 -43 -151 -149 -141 -160 2 -2 31 3 64 10 33 8 129 21 215 30 304 31
407 55 560 128 70 34 101 58 181 137 71 70 104 112 128 162 46 92 42 103 -39
104 -36 1 -94 5 -130 8 l-65 6 -22 -39z"/>
<path d="M11960 11140 l0 -189 64 -153 c57 -139 152 -374 222 -553 15 -38 60
-162 100 -275 49 -138 73 -194 74 -172 0 17 0 334 0 704 l0 672 -82 28 c-46
16 -146 51 -223 78 -77 28 -143 50 -148 50 -4 0 -7 -85 -7 -190z"/>
<path d="M12964 10945 c25 -101 137 -339 232 -496 182 -302 471 -617 815 -890
106 -84 131 -103 289 -213 138 -96 384 -242 546 -324 l152 -76 43 19 c84 38
299 155 426 231 452 274 846 607 1123 952 101 125 210 281 210 300 0 6 -30 13
-67 17 -38 4 -122 13 -188 21 -221 26 -333 29 -400 9 -86 -24 -135 -52 -135
-74 0 -27 -48 -81 -71 -81 -13 0 -26 -15 -41 -45 -15 -31 -33 -51 -58 -63 -25
-11 -42 -29 -52 -54 -13 -30 -27 -43 -65 -59 -83 -36 -87 -35 -307 39 -228 78
-274 104 -342 192 -27 36 -59 63 -95 82 -64 32 -72 33 -109 11 -28 -16 -37
-15 -307 51 -462 113 -653 164 -1003 267 -280 82 -509 162 -594 207 -5 3 -6
-7 -2 -23z"/>
<path d="M17708 10412 l-128 -3 -1 -492 c-1 -271 -1 -498 0 -504 2 -10 -107
-163 -130 -183 -3 -3 -20 -27 -39 -55 -19 -27 -37 -52 -41 -55 -3 -3 -24 -31
-45 -64 -22 -32 -60 -90 -86 -130 -26 -39 -48 -76 -48 -82 0 -7 -7 -15 -16
-18 -8 -3 -13 -10 -10 -15 4 -5 3 -11 -1 -13 -9 -4 -53 -65 -53 -73 0 -3 5 -3
12 1 7 4 8 3 4 -5 -4 -6 -11 -9 -16 -6 -5 3 -13 -7 -16 -22 -4 -15 -14 -33
-21 -38 -8 -6 -17 -30 -20 -53 -3 -23 -9 -42 -13 -42 -4 0 -10 -8 -14 -17 -3
-10 -10 -28 -15 -39 -8 -18 -6 -21 12 -21 15 0 30 13 47 38 26 42 50 51 50 19
0 -11 -4 -20 -10 -20 -5 0 -10 -9 -10 -20 0 -11 5 -20 10 -20 6 0 10 -18 10
-40 l0 -40 40 0 40 0 0 -40 0 -40 120 0 120 0 0 -40 0 -40 40 0 40 0 0 -40 0
-40 50 -1 c28 -1 77 -3 110 -4 33 -1 65 -3 70 -4 6 0 10 -33 10 -76 l0 -75 80
0 80 0 0 -40 0 -40 40 0 40 0 0 -40 0 -40 120 0 120 0 0 -40 0 -40 40 0 40 0
0 -40 0 -41 48 2 c26 1 53 7 61 13 8 6 12 7 10 1 -3 -5 3 -18 14 -28 18 -19
19 -18 12 2 -4 15 1 27 19 44 29 27 49 74 41 95 -3 9 0 12 9 9 8 -3 17 1 20 9
4 10 1 13 -7 9 -6 -4 -4 0 7 9 10 8 16 22 13 30 -4 9 1 17 14 21 17 6 23 19
22 53 -1 7 1 11 4 8 9 -8 29 17 36 45 4 14 18 38 32 53 14 15 28 38 31 51 3
14 11 25 16 25 6 0 8 7 4 15 -3 8 4 21 16 29 12 9 23 25 25 37 3 19 1 20 -14
8 -16 -13 -17 -12 -4 4 11 14 16 15 29 5 10 -9 13 -9 9 -1 -4 6 -4 13 1 15 11
5 95 141 95 156 0 6 3 12 7 12 6 0 30 44 30 56 0 3 -5 2 -12 -2 -7 -4 -8 -3
-4 5 4 6 11 9 16 6 4 -3 22 17 38 43 24 39 28 52 19 68 -9 16 -9 17 5 6 21
-17 30 5 23 61 -3 32 -2 35 3 12 l7 -30 18 45 c9 25 17 55 17 67 0 12 5 23 11
25 7 2 12 27 13 56 1 32 5 52 12 52 12 0 12 43 0 90 -6 24 -6 24 3 3 6 -13 12
-23 14 -23 3 0 5 26 6 58 1 31 2 80 3 107 1 28 -1 89 -4 137 -5 71 -10 90 -28
108 -12 12 -25 18 -29 14 -3 -5 -19 -9 -36 -10 -16 0 -70 -4 -120 -8 -49 -4
-106 -8 -125 -9 -40 -1 -247 12 -300 19 -19 3 -55 7 -80 9 -25 2 -70 9 -100
15 -30 6 -68 13 -85 16 -42 5 -53 8 -115 27 -30 9 -73 19 -94 23 -22 3 -46 12
-53 20 -8 8 -21 14 -28 14 -15 0 -105 51 -144 81 -19 16 -26 17 -33 7 -7 -10
-8 -9 -5 2 2 8 8 14 13 13 5 0 9 24 10 55 1 64 29 128 108 246 l46 69 0 229 0
229 -37 -3 c-21 -2 -95 -4 -165 -6z m78 -874 l19 -23 -25 20 c-14 11 -27 21
-29 22 -2 2 0 3 6 3 5 0 18 -10 29 -22z m-141 -61 c-8 -13 -12 -27 -8 -32 5
-4 2 -5 -5 -1 -12 7 -9 17 11 44 16 21 18 13 2 -11z m21 -17 c0 -12 -4 -16 -9
-11 -5 5 -6 14 -3 20 10 15 12 14 12 -9z m647 -87 c-7 -2 -19 -2 -25 0 -7 3
-2 5 12 5 14 0 19 -2 13 -5z m-1195 -708 c-3 -3 -9 2 -12 12 -6 14 -5 15 5 6
7 -7 10 -15 7 -18z m1852 -42 c-11 -17 -11 -17 -6 0 3 10 7 26 7 35 1 15 2 15
6 0 2 -10 -1 -25 -7 -35z m-1863 5 c-3 -8 -6 -5 -6 6 -1 11 2 17 5 13 3 -3 4
-12 1 -19z m-27 -24 c0 -8 -5 -12 -10 -9 -6 4 -8 11 -5 16 9 14 15 11 15 -7z
m27 -26 c-3 -8 -6 -5 -6 6 -1 11 2 17 5 13 3 -3 4 -12 1 -19z m1790 -40 c-3
-8 -6 -5 -6 6 -1 11 2 17 5 13 3 -3 4 -12 1 -19z m-393 -713 c3 -8 1 -15 -4
-15 -6 0 -10 7 -10 15 0 8 2 15 4 15 2 0 6 -7 10 -15z m-107 -57 c-3 -8 -6 -5
-6 6 -1 11 2 17 5 13 3 -3 4 -12 1 -19z"/>
<path d="M19080 9370 c0 -5 5 -10 10 -10 6 0 10 5 10 10 0 6 -4 10 -10 10 -5
0 -10 -4 -10 -10z"/>
<path d="M12459 9304 c-159 -171 -955 -177 -1340 -10 -51 22 -24 -567 42 -914
70 -363 167 -647 448 -1303 243 -566 352 -859 441 -1186 l40 -144 0 -716 c0
-767 1 -772 52 -894 49 -119 149 -245 250 -316 29 -21 49 -43 52 -60 32 -157
121 -846 131 -1011 6 -84 11 -109 27 -126 19 -21 19 -23 1 -80 -23 -77 -25
-328 -3 -389 18 -47 37 -58 145 -79 169 -34 348 -45 695 -41 398 4 599 23 752
72 47 15 98 53 98 72 0 17 -58 78 -109 115 -110 81 -480 249 -716 326 -38 12
-73 25 -77 29 -8 7 -15 74 -23 231 -13 237 -45 726 -51 763 l-6 37 1485 0
1485 0 5 22 c3 13 8 64 12 113 4 50 9 98 11 108 5 16 -71 17 -1505 17 l-1509
0 -7 63 c-3 34 -21 222 -41 417 -145 1483 -391 3114 -689 4584 -35 175 -66
320 -68 322 -2 2 -14 -8 -28 -22z"/>
<path d="M16996 8529 c-25 -56 -15 -59 12 -4 12 25 18 45 14 45 -4 0 -15 -19
-26 -41z"/>
<path d="M16944 8385 c-7 -27 -19 -33 -28 -12 -3 6 -2 -1 1 -17 4 -20 3 -27
-6 -22 -6 4 -11 3 -11 -3 0 -5 12 -8 28 -7 24 3 27 7 28 45 0 47 -3 52 -12 16z
m3 -47 c-3 -8 -6 -5 -6 6 -1 11 2 17 5 13 3 -3 4 -12 1 -19z"/>
<path d="M16861 8214 c0 -11 3 -14 6 -6 3 7 2 16 -1 19 -3 4 -6 -2 -5 -13z"/>
<path d="M16824 8180 c2 -16 20 -14 24 2 3 10 2 10 -6 -1 -7 -9 -11 -10 -15
-2 -4 7 -5 8 -3 1z"/>
<path d="M18420 7668 c0 -7 5 -20 10 -28 8 -12 10 -11 10 7 0 12 -4 25 -10 28
-5 3 -10 0 -10 -7z"/>
<path d="M18404 7638 c0 -20 3 -35 7 -32 4 2 10 -2 12 -8 4 -9 6 -8 6 2 0 8
-6 28 -12 44 l-13 30 0 -36z"/>
<path d="M18401 7580 c0 -8 4 -22 9 -30 12 -18 12 -2 0 25 -6 13 -9 15 -9 5z"/>
<path d="M18322 7495 c0 -16 2 -22 5 -12 2 9 2 23 0 30 -3 6 -5 -1 -5 -18z"/>
<path d="M18360 7510 c8 -5 10 -17 6 -36 -9 -34 -5 -31 15 11 15 29 14 30 -10
32 -15 1 -20 -2 -11 -7z"/>
<path d="M18280 7499 c0 -5 5 -7 10 -4 6 3 10 8 10 11 0 2 -4 4 -10 4 -5 0
-10 -5 -10 -11z"/>
<path d="M18326 7445 c-3 -9 -6 -22 -5 -28 0 -7 5 -1 10 12 5 13 8 26 5 28 -2
2 -6 -3 -10 -12z"/>
<path d="M18313 7393 c-15 -5 -17 -39 -4 -47 5 -3 11 7 14 22 6 31 6 31 -10
25z"/>
<path d="M18295 7319 c-4 -6 -5 -12 -2 -15 2 -3 7 2 10 11 7 17 1 20 -8 4z"/>
<path d="M18240 7291 c0 -6 4 -13 10 -16 6 -3 7 1 4 9 -7 18 -14 21 -14 7z"/>
<path d="M17818 6616 l-88 -21 -20 -70 c-12 -38 -46 -148 -76 -242 l-54 -172
0 -858 c0 -534 -4 -883 -10 -923 -15 -94 -68 -196 -135 -259 -93 -88 -209
-131 -359 -131 l-71 -1 -38 -112 c-21 -62 -41 -120 -44 -131 -6 -18 2 -18 193
-14 169 4 209 9 269 27 258 83 450 287 510 544 13 54 15 234 15 1222 0 637 -1
1158 -2 1159 -2 1 -42 -7 -90 -18z"/>
<path d="M16010 2617 c-74 -31 -118 -60 -113 -74 2 -6 -1 -15 -8 -19 -8 -4 -9
-3 -5 4 4 7 1 12 -8 12 -9 0 -16 -4 -16 -10 0 -5 -7 -10 -15 -10 -9 0 -32 -7
-53 -16 -35 -15 -36 -16 -18 -30 22 -16 50 -19 42 -5 -4 5 0 12 6 14 7 3 4 6
-7 6 -17 1 -17 3 -5 11 18 12 30 13 29 3 -1 -5 -1 -18 0 -31 1 -18 4 -21 19
-13 9 5 27 19 40 31 14 13 23 17 21 9 -4 -31 2 -49 16 -49 8 0 15 -4 15 -10 0
-6 28 -10 65 -10 50 0 65 -3 65 -14 0 -10 13 -16 38 -18 29 -2 38 -8 40 -25 3
-19 12 -22 82 -28 63 -6 79 -10 83 -25 4 -14 20 -19 78 -25 69 -7 99 -20 99
-44 0 -6 -12 -11 -27 -11 -24 -1 -26 -2 -12 -13 8 -7 18 -20 22 -30 4 -10 11
-15 17 -12 6 4 8 10 5 15 -3 5 2 16 12 25 16 16 17 16 30 -1 7 -10 13 -24 13
-31 0 -16 27 -17 44 -1 11 11 10 16 -7 30 -11 10 -15 18 -9 18 6 0 13 8 15 18
3 12 5 11 6 -6 0 -13 5 -21 10 -18 5 3 7 14 5 24 -5 19 -11 73 -13 110 0 13
-5 20 -11 17 -6 -4 -10 8 -10 30 0 20 -4 34 -9 31 -5 -4 -7 4 -3 16 4 16 2 19
-8 13 -8 -5 -11 -4 -7 2 4 6 -5 33 -20 59 l-27 49 -10 -35 c-5 -19 -14 -38
-19 -41 -5 -4 -6 -12 -3 -18 4 -6 3 -10 -1 -9 -5 2 -24 -11 -41 -29 -38 -37
-104 -55 -160 -42 -20 4 -48 6 -62 3 -14 -2 -19 -1 -12 2 16 7 16 24 -1 24
-14 0 -56 66 -81 129 -15 39 -40 70 -56 70 -3 0 -30 -10 -60 -22z m-33 -43
c-3 -3 -12 -4 -19 -1 -8 3 -5 6 6 6 11 1 17 -2 13 -5z m140 -46 c-3 -8 -6 -5
-6 6 -1 11 2 17 5 13 3 -3 4 -12 1 -19z m-117 -27 c0 -8 -52 -23 -59 -16 -1 2
0 8 4 14 8 13 55 15 55 2z m440 -81 c0 -5 -5 -10 -11 -10 -5 0 -7 5 -4 10 3 6
8 10 11 10 2 0 4 -4 4 -10z m35 -9 c-3 -6 -11 -11 -16 -11 -5 0 -4 6 3 14 14
16 24 13 13 -3z m124 -86 c0 -5 -4 -3 -9 5 -5 8 -9 22 -9 30 0 16 17 -16 18
-35z m-9 -36 c0 -11 -4 -18 -9 -14 -5 3 -12 -5 -14 -17 -3 -17 -5 -14 -6 10 0
20 3 31 9 27 6 -3 10 -1 10 4 0 6 2 11 5 11 3 0 5 -9 5 -21z m1 -87 c-7 -2
-18 1 -23 6 -8 8 -4 9 13 5 13 -4 18 -8 10 -11z"/>
<path d="M15687 2455 c-21 -20 -22 -26 -2 -19 8 4 15 1 15 -5 0 -6 7 -11 15
-11 18 0 19 11 2 34 -13 17 -14 17 -30 1z"/>
<path d="M15750 2421 c0 -25 6 -27 13 -6 4 8 2 17 -3 20 -6 4 -10 -3 -10 -14z"/>
<path d="M15593 2415 c0 -8 4 -12 9 -9 5 3 6 10 3 15 -9 13 -12 11 -12 -6z"/>
<path d="M15628 2423 c7 -3 16 -2 19 1 4 3 -2 6 -13 5 -11 0 -14 -3 -6 -6z"/>
<path d="M16370 2211 c0 -11 29 -18 53 -13 30 6 18 22 -18 22 -19 0 -35 -4
-35 -9z"/>
<path d="M16320 2140 c0 -5 7 -10 16 -10 8 0 12 5 9 10 -3 6 -10 10 -16 10 -5
0 -9 -4 -9 -10z"/>
<path d="M16470 2140 c-9 -6 -10 -10 -3 -10 6 0 15 5 18 10 8 12 4 12 -15 0z"/>
</g>
</svg>
