<?xml version="1.0" standalone="no"?>
<!DOCTYPE svg PUBLIC "-//W3C//DTD SVG 20010904//EN"
 "http://www.w3.org/TR/2001/REC-SVG-20010904/DTD/svg10.dtd">
<svg version="1.0" xmlns="http://www.w3.org/2000/svg"
 width="2000.000000pt" height="2000.000000pt" viewBox="0 0 2000.000000 2000.000000"
 preserveAspectRatio="xMidYMid meet">

<g transform="translate(0.000000,2000.000000) scale(0.100000,-0.100000)"
fill="#000000" stroke="none">
<path d="M9800 15586 c-401 -84 -712 -400 -805 -816 -12 -55 -18 -146 -22
-337 l-6 -263 -331 0 c-365 0 -396 -4 -516 -62 -89 -43 -215 -169 -259 -258
-69 -142 -65 -66 -68 -1207 l-4 -1032 213 217 c117 119 272 278 345 352 l131
135 -5 116 c-4 89 -2 134 11 193 50 222 222 412 440 482 66 22 101 27 191 28
130 1 190 -12 305 -66 70 -33 101 -56 171 -127 138 -138 194 -276 191 -471 -1
-58 -3 -115 -5 -126 -1 -16 119 -147 484 -525 l485 -504 142 0 142 1 217 224
c119 124 337 349 484 501 l268 276 -6 115 c-4 88 -2 132 11 192 23 103 85 223
153 296 l55 60 -5 347 c-3 291 -7 358 -21 407 -48 163 -164 304 -311 376 -114
56 -148 60 -511 60 l-332 0 -5 278 c-4 198 -10 296 -21 343 -74 317 -268 565
-551 705 -159 78 -236 96 -430 100 -109 2 -181 -1 -225 -10z m304 -206 c347
-49 622 -319 690 -679 12 -60 16 -145 16 -307 l0 -224 -811 0 -811 0 5 273 c5
312 12 350 95 512 63 123 209 271 327 332 170 88 320 116 489 93z"/>
<path d="M12063 11374 l-143 -149 0 -1427 0 -1428 -1915 0 -1915 0 0 1273 0
1272 -44 -49 c-40 -46 -42 -53 -35 -85 5 -20 9 -75 9 -122 0 -165 -60 -322
-171 -443 l-60 -65 3 -1068 3 -1068 22 -65 c64 -186 203 -325 388 -388 l80
-27 1715 0 1715 0 80 27 c185 63 324 202 388 388 l22 65 3 1490 c1 820 1 1609
0 1754 l-3 264 -142 -149z"/>
<path d="M6120 6636 c-191 -41 -339 -151 -414 -310 -42 -88 -56 -153 -56 -263
0 -257 143 -454 397 -544 41 -15 93 -23 179 -26 145 -7 238 10 343 63 69 34
177 124 170 141 -2 5 -47 48 -99 95 l-95 86 -45 -41 c-60 -53 -121 -79 -201
-85 -102 -7 -170 18 -239 87 -66 66 -90 128 -90 232 0 190 125 314 315 313 85
0 144 -24 209 -84 l46 -42 32 26 c18 14 65 55 103 91 l70 65 -55 53 c-65 61
-150 109 -235 131 -84 23 -254 29 -335 12z"/>
<path d="M7280 6636 c-221 -47 -383 -186 -449 -383 -30 -89 -37 -211 -17 -303
60 -282 295 -460 611 -460 191 0 329 54 450 175 77 76 126 158 150 250 19 76
19 224 0 300 -51 199 -207 354 -415 411 -79 21 -251 26 -330 10z m277 -282
c102 -49 154 -136 161 -265 6 -114 -13 -171 -79 -244 -102 -110 -258 -128
-386 -42 -60 41 -98 98 -119 178 -69 269 182 491 423 373z"/>
<path d="M8210 6070 l0 -560 145 0 145 0 0 281 c0 154 4 278 9 275 4 -3 68
-105 142 -226 l134 -220 74 2 74 3 141 235 141 235 3 -292 2 -293 145 0 145 0
-2 558 -3 557 -130 0 -130 0 -187 -315 c-103 -173 -191 -315 -195 -314 -4 1
-94 142 -199 315 l-192 314 -131 3 -131 3 0 -561z"/>
<path d="M9738 6624 c-5 -4 -8 -256 -8 -561 l0 -553 160 0 160 0 0 144 0 143
163 6 c99 3 183 11 216 21 132 37 228 114 279 224 24 51 27 69 27 167 0 98 -3
116 -27 167 -35 75 -95 138 -166 176 -112 60 -147 65 -487 69 -170 3 -313 1
-317 -3z m596 -269 c57 -28 79 -64 84 -132 3 -48 0 -64 -20 -92 -42 -63 -77
-76 -220 -80 l-128 -3 0 167 0 167 123 -4 c97 -3 130 -7 161 -23z"/>
<path d="M11196 6622 c-9 -15 -478 -1077 -483 -1094 -5 -17 7 -18 155 -18
l159 0 44 108 44 107 231 3 c178 2 234 -1 241 -10 6 -7 27 -57 48 -110 l38
-98 164 0 c90 0 163 2 163 5 0 3 -110 254 -245 558 l-244 552 -155 3 c-85 1
-157 -1 -160 -6z m222 -474 c34 -84 64 -161 68 -170 6 -17 -5 -18 -136 -18
-78 0 -140 4 -138 8 68 173 134 332 138 332 3 0 34 -69 68 -152z"/>
<path d="M12097 6623 c-4 -3 -7 -255 -7 -560 l0 -553 155 0 155 0 2 296 3 296
244 -296 245 -296 133 0 133 0 -2 558 -3 557 -152 3 -153 3 -2 -298 -3 -297
-245 297 -245 297 -126 0 c-69 0 -129 -3 -132 -7z"/>
<path d="M13240 6626 c0 -3 95 -162 210 -354 l210 -350 0 -206 0 -206 160 0
160 0 0 199 0 200 210 352 c116 193 210 355 210 360 0 5 -67 9 -149 9 l-148 0
-133 -221 c-72 -121 -135 -218 -138 -214 -3 3 -63 101 -132 218 l-126 212
-167 3 c-92 1 -167 0 -167 -2z"/>
</g>
</svg>
